<svg width="576" height="46" viewBox="0 0 576 46" fill="none" xmlns="http://www.w3.org/2000/svg">
<path fill-rule="evenodd" clip-rule="evenodd" d="M575.04 6.38787C574.246 6.7288 573.614 6.15263 573.618 5.23489C573.622 4.20243 573.15 3.39748 572.516 3.28018C571.723 3.27695 569.981 3.04042 568.555 2.80518C565.861 2.45006 564.904 4.05224 565.523 7.84049C565.836 8.6448 565.201 8.98637 564.093 8.52299C562.985 8.0596 562.517 6.22219 562.842 4.388C563.488 1.40793 563.172 1.06249 559.526 1.16237C557.306 1.26805 551.601 0.900675 547.005 0.537815C541.301 -0.0589961 537.812 0.156247 536.223 1.06753C534.952 1.75068 534.001 1.86153 534.003 1.28794C534.006 0.599639 529.41 0.23678 522.592 0.553192C490.883 1.68606 481.371 1.9915 469.482 1.8284C459.971 1.78969 456.006 2.23244 454.257 3.48723C452.509 4.62731 451.398 4.85223 450.768 3.93191C449.505 2.66486 423.19 2.78721 422.074 4.1593C421.597 4.61624 420.17 4.61043 418.903 4.26112C417.478 3.91116 415.733 4.24821 414.778 5.16208C413.982 6.07659 413.03 6.30216 412.557 5.61192C412.086 4.57752 405.269 4.54979 379.111 5.13165C376.257 5.23476 373.878 5.56923 373.876 5.91338C373.875 6.25753 369.435 6.58362 364.045 6.6764C346.607 6.72016 300.153 8.36662 288.418 9.35134C287.943 9.34941 287.151 9.23146 286.676 9.11481C284.142 8.41618 278.435 8.50768 277.798 9.30812C276.683 10.4508 264.952 10.5178 263.848 9.25135C263.374 8.67583 260.363 8.43414 257.034 8.65002C253.704 8.86591 243.874 9.17006 235.154 9.47873C226.435 9.67269 214.385 10.0825 208.202 10.4015C202.177 10.6064 193.932 10.9171 189.969 10.9009C178.238 10.9679 177.287 10.964 155.885 11.4505C144.628 11.7489 130.677 12.151 124.969 12.3572C104.516 13.1917 76.6118 14.2253 73.1244 14.2112C71.0636 14.2028 69.4762 14.7699 69.4734 15.4582C69.4697 16.3759 68.9941 16.374 67.7297 15.4511C66.6233 14.6436 64.2454 14.6339 60.2796 15.3061C57.1064 15.9815 50.9209 16.7593 46.4814 16.9707C42.2 17.2974 37.9176 17.8536 36.9646 18.3086C36.1701 18.7643 32.5218 19.323 29.0339 19.4235C25.5455 19.6388 20.9452 20.4231 18.7226 21.2171C16.5001 22.0111 12.8503 22.914 10.4705 23.3632C7.93285 23.697 6.02697 24.607 6.02464 25.1806C6.02184 25.8689 4.75173 26.3226 3.16654 26.3161C1.58135 26.3097 0.151332 27.1069 0.147597 28.0246C0.141528 29.516 1.72491 29.9813 5.68929 29.6533C6.32385 29.5411 6.64279 29.0835 6.32852 28.394C6.17235 27.8197 6.64892 27.5922 7.59816 28.055C8.54792 28.403 8.86167 29.2073 8.38381 29.7789C7.9059 30.3506 8.22011 31.0402 9.16941 31.5029C10.1186 31.9657 10.2734 32.8841 9.31665 34.2568C8.04193 35.8577 8.98743 37.2382 13.57 40.8131C19.4171 45.311 24.4837 46.8229 24.4949 44.0697C24.4981 43.2667 24.0245 42.8059 23.3895 43.0327C22.7545 43.2596 22.2807 42.7988 22.2844 41.881C22.2905 40.3897 22.7662 40.3916 25.9305 41.8959C30.8353 44.2102 34.4817 44.1103 34.65 41.7019C34.6552 40.44 35.1316 40.2125 35.6035 41.1322C36.5471 42.9716 41.1443 42.9903 43.8466 41.1658C45.595 40.0257 45.9119 40.027 44.9562 41.1703C44.1598 42.0848 45.1092 42.5475 47.804 42.5585C50.0233 42.5675 52.0822 43.0348 52.7134 43.7257C53.8175 45.1068 58.4196 43.8636 60.9653 41.5796C62.7155 39.9806 63.1912 39.9826 64.6118 41.4797C65.5582 42.6307 66.1919 42.748 66.1956 41.8303C66.1989 41.0273 67.6284 40.3448 69.3721 40.3519C71.1158 40.359 72.5443 39.9059 72.5471 39.2176C72.5532 37.7263 76.8332 37.7437 77.6193 39.353C78.4053 40.9622 90.6034 42.9621 91.2436 41.4734C91.5629 40.9011 92.6735 40.6761 93.6227 41.1389C94.731 41.4876 94.2574 41.0267 92.5179 39.9872C89.671 38.3695 89.6714 38.2548 92.8409 38.4972C94.7431 38.5049 96.4823 39.6592 96.9523 41.0377C97.7374 42.8764 98.2125 42.9931 99.3273 41.7357C100.92 39.9067 107.423 39.1301 107.416 40.7361C107.414 41.195 108.046 41.6565 108.997 41.6603C109.79 41.6635 109.952 40.7465 109.481 39.7121C108.537 37.8727 108.696 37.8734 111.068 39.1449C112.491 40.0685 115.026 40.4229 116.93 39.9718C118.993 39.5213 120.102 39.7553 120.098 40.7877C120.092 42.0496 120.41 42.0509 121.524 40.7935C122.162 39.8784 123.75 39.3113 125.017 39.4311C130.405 40.0267 132.626 39.4621 131.683 37.6228C130.897 36.0135 131.214 35.9001 134.063 37.0588C135.962 37.8696 137.546 38.1055 137.548 37.6466C137.549 37.3025 138.5 37.5358 139.765 38.2292C141.188 39.0381 144.358 39.2804 148.64 38.839C153.556 38.2854 155.141 38.4065 154.345 39.321C153.707 40.1215 153.863 40.6957 154.656 40.6989C155.607 40.7028 156.883 38.7578 157.844 36.4673C158.646 34.0615 159.442 33.147 159.596 34.4095C159.897 38.1964 164.331 39.4764 171.629 37.9C175.12 37.2259 177.82 35.975 177.506 35.1707C177.35 34.367 177.828 34.0248 178.777 34.4875C179.726 34.8356 180.04 35.6399 179.562 36.2115C178.129 37.8118 188.273 38.1972 191.609 36.49C193.674 35.4659 195.418 35.3583 196.683 36.0518C197.791 36.6299 199.85 36.9824 201.595 36.7601C203.181 36.6518 206.191 36.8935 208.091 37.4748C210.783 38.1741 212.528 37.9518 214.753 36.4695C217.297 34.759 218.248 34.6482 220.621 35.805C222.994 37.1913 226.164 37.0895 232.352 35.7381C234.097 35.401 234.099 35.0568 232.361 33.6731C231.255 32.7509 229.83 32.2862 229.354 32.5137C228.719 32.7406 227.928 32.1637 227.456 31.2441C226.04 28.8292 230.631 30.3392 236.796 34.4942C242.171 38.0724 248.506 39.7042 248.514 37.5246C248.517 36.8363 249.628 36.4967 250.895 36.846C252.161 37.31 253.589 37.0864 254.226 36.4007C254.704 35.7143 256.766 35.3785 258.51 35.5003C260.412 35.5081 262.314 35.5158 262.79 35.403C268.979 33.8222 293.235 33.3473 296.082 34.8502C298.138 36.0058 298.139 35.8911 296.244 34.1626C294.98 33.0102 294.825 32.0918 295.776 32.0957C296.727 32.0996 298.79 31.7638 300.376 31.4261C302.756 30.8622 302.756 30.9769 300.85 32.0016C299.579 32.6848 299.259 33.2571 300.051 33.375C301.002 33.3789 303.062 33.6167 304.647 33.8526C306.389 34.0891 308.928 33.4111 310.201 32.2691C311.633 31.1278 313.696 30.4478 314.805 30.6818C315.913 31.0305 316.391 30.5735 315.761 29.5385C314.66 27.3543 318.463 27.5993 322.101 29.7937C323.998 30.9486 325.107 31.0679 326.855 30.0425C328.127 29.2446 331.139 29.0275 333.674 29.3819C336.051 29.7358 337.161 29.6256 335.894 29.2763C332.728 28.2309 327.513 24.1945 329.257 24.2016C330.208 24.2055 331.315 24.7836 331.788 25.3591C332.42 26.05 335.272 26.4057 338.285 26.0738C341.299 25.6272 343.676 25.8663 343.673 26.5547C343.67 27.243 342.876 27.5839 341.926 27.3506C340.975 27.232 339.861 28.3746 339.696 29.98C339.372 31.5848 339.369 32.2731 339.848 31.5867C340.327 30.6709 343.657 30.455 349.362 30.8224C357.286 31.4283 358.238 31.3174 359.039 29.0263C359.841 26.8499 360.635 26.6237 364.912 27.3294C369.189 28.0351 369.506 27.9217 367.611 26.1932C366.506 25.1562 366.192 24.3519 366.985 24.3551C367.777 24.3584 369.516 25.6273 370.619 27.2379C371.722 28.8485 372.986 29.8861 373.304 29.6579C373.78 29.4304 375.999 29.5542 378.375 30.1375C381.226 30.7227 383.605 30.5029 385.67 29.4788C387.893 28.3407 389.162 28.2311 390.743 29.1553C392.324 30.1942 392.801 30.0814 392.807 28.5901C392.811 27.5577 393.607 26.7579 394.558 26.7617C397.094 26.7721 400.752 23.8042 399.488 22.7666C398.856 22.1905 399.174 22.1917 400.282 22.5404C401.231 23.0032 402.501 22.6642 402.82 21.9772C403.459 20.9473 403.776 20.9486 403.772 21.8663C403.928 22.5553 402.812 24.0421 401.382 24.954C398.361 27.1214 399.628 27.356 403.916 25.4232C406.616 24.1723 407.408 24.2902 408.513 25.4419C409.46 26.4782 410.412 26.3674 412.639 24.5409C414.229 23.2855 416.135 22.2608 416.928 22.264C417.72 22.2672 417.242 23.0683 415.969 24.0956C412.631 26.3764 412.631 26.2617 418.498 26.0561C431.34 25.6495 433.084 25.4272 430.55 24.958C426.273 24.1375 427.231 22.4206 431.668 22.8976C435.789 23.1438 437.062 21.7723 433.737 20.8411C432.47 20.4917 432.789 20.1489 434.532 20.156C435.96 20.0471 437.226 20.5111 437.223 21.1994C437.218 22.3466 447.191 25.8287 450.203 25.841C451.154 25.8449 450.998 25.1559 450.051 24.2343C448.472 22.8512 448.949 22.509 452.911 22.6399C455.605 22.7656 457.347 23.2315 456.87 23.6885C456.392 24.2601 457.184 24.3781 458.454 24.0391C459.882 23.7007 460.995 22.7875 460.997 22.2139C461 21.5256 462.428 21.302 464.17 21.6532C465.913 22.0045 467.341 21.6661 467.343 21.0925C467.346 20.4042 468.613 20.6388 470.194 21.6777C471.774 22.8314 473.673 23.6421 474.466 23.6453C475.259 23.6486 474.469 22.957 472.729 22.0322C471.147 21.108 470.201 19.957 470.995 19.5013C471.631 19.045 472.106 19.2764 472.103 19.9647C472.094 22.1443 475.901 21.5862 481.937 18.6281C487.496 16.0122 492.726 16.2629 490.337 19.1212C489.381 20.1497 489.857 20.1517 492.397 19.2443C494.143 18.5631 496.052 16.9648 496.691 15.8202C497.651 13.7591 497.968 13.7604 502.076 16.9893C504.921 19.0658 506.979 19.8772 507.299 19.0755C507.939 17.5867 511.43 16.7979 517.772 16.4795C519.674 16.4873 521.262 15.9202 521.264 15.4613C521.266 14.8877 521.9 14.8903 522.85 15.2383C525.539 16.5112 530.769 16.8766 530.773 15.8441C530.775 15.3853 532.203 15.1617 533.945 15.5129C535.688 15.8641 537.115 15.6405 537.118 15.0669C537.122 14.0345 540.294 13.5885 548.22 13.506C550.44 13.5151 552.978 12.9518 553.932 12.3821C554.885 11.8124 556.947 11.5913 558.372 12.056C559.797 12.406 560.908 12.181 560.911 11.378C560.914 10.6897 561.707 10.4635 562.657 10.8115C565.821 12.3158 574.865 10.2876 575.667 7.99649C576.148 6.73654 575.834 5.93222 575.04 6.38787ZM559.333 9.65081C558.539 9.99173 557.747 9.75907 557.749 9.18549C557.752 8.49718 558.547 7.92682 559.34 7.93005C560.291 7.93392 560.924 8.16594 560.923 8.39537C560.922 8.73952 560.285 9.31053 559.333 9.65081ZM554.104 8.94122C552.515 9.8525 551.882 9.73521 551.886 8.70275C551.89 7.78502 552.844 7.10058 554.112 7.10574C555.221 7.11026 556.172 7.22884 556.172 7.34356C556.171 7.57299 555.217 8.25743 554.104 8.94122ZM510.959 15.5341C510.485 15.188 511.281 14.5029 512.867 14.1652C515.089 13.4859 515.247 13.6013 513.816 14.7427C512.703 15.5412 511.434 15.8802 510.959 15.5341ZM510.67 8.76446C507.501 8.4074 505.279 8.97196 506.227 9.89357C506.699 10.5838 505.588 10.9234 503.845 10.8016C501.943 10.6792 500.836 10.1011 501.315 9.18527C501.794 8.38418 501.48 7.69458 500.846 7.692C500.053 7.68878 499.099 8.37321 498.62 9.1743C498.141 10.0901 497.348 10.2016 496.242 9.39406C494.977 8.58587 495.773 7.78608 498.471 6.87931C501.646 5.85975 502.597 5.86362 503.384 7.12874C503.855 8.39256 504.964 8.5118 507.028 7.71716C508.457 7.14938 510.201 7.04177 510.834 7.3885C512.098 8.3114 512.096 8.88498 510.67 8.76446ZM508.274 13.2288C507.641 12.9967 506.052 13.908 504.778 15.1648C502.391 17.4494 501.128 16.2971 503.515 13.8977C505.108 12.1834 510.661 10.8294 509.862 12.4322C509.542 13.1192 508.748 13.4601 508.274 13.2288ZM489.1 11.4299C489.574 11.8907 489.731 12.2355 489.255 12.2336C488.779 12.2317 487.514 11.5382 486.567 10.6166C485.145 9.3489 485.464 8.89132 488.002 8.44278C490.541 7.99423 491.015 8.22559 489.743 9.25289C488.788 10.052 488.467 11.0832 489.1 11.4299ZM453.555 20.2334C452.124 21.1453 451.331 21.2568 451.969 20.4564C452.606 19.7707 452.133 18.9657 451.184 18.6177C450.075 18.269 450.71 18.1569 452.771 18.1653C455.518 18.2529 455.779 18.9423 453.555 20.2334ZM422.304 25.7275C421.828 25.7255 421.037 25.2634 420.565 24.5732C420.091 23.9977 420.411 23.4254 421.203 23.4286C422.154 23.4325 422.945 24.0093 422.942 24.5829C422.94 25.2712 422.621 25.7287 422.304 25.7275ZM349.25 19.4648C346.557 19.1096 346.557 18.9949 349.258 17.3998C351.006 16.3745 351.799 16.263 351.003 17.1775C349.57 18.7777 351.788 19.0162 354.489 17.4211C355.601 16.8521 355.442 17.0808 354.17 18.1081C353.056 19.1361 350.676 19.7 349.25 19.4648ZM344.661 17.3811C344.344 17.3798 343.555 16.5736 343.084 15.5392C342.612 14.6195 342.772 14.1613 343.722 14.5093C345.304 15.2041 345.929 17.3863 344.661 17.3811ZM323.091 20.0466C322.301 19.4698 323.571 18.9014 325.95 18.7963C329.438 18.6958 329.754 18.8118 327.214 19.834C325.626 20.5158 323.724 20.5081 323.091 20.0466ZM319.616 16.9351C318.35 16.5857 318.827 16.2435 320.57 16.2506C322.315 16.143 323.264 16.491 322.629 16.8326C322.152 17.1748 320.725 17.2837 319.616 16.9351ZM319.909 23.0164C319.116 23.0131 318.325 22.7805 318.325 22.551C318.327 22.2069 319.122 21.6365 319.916 21.2956C320.868 20.9553 321.501 21.1873 321.499 21.7609C321.496 22.4492 320.86 23.0202 319.909 23.0164ZM314.351 25.2881C313.083 25.283 311.974 25.049 311.975 24.8196C311.976 24.5902 313.088 24.1358 314.358 23.6821C315.627 23.3431 316.736 23.5771 316.734 24.1506C316.731 24.8389 315.619 25.2933 314.351 25.2881ZM311.17 27.9137C309.745 27.5638 308.955 26.987 309.431 26.7595C309.908 26.4172 310.859 26.5358 311.808 26.9986C314.34 28.0414 313.862 28.7277 311.17 27.9137ZM258.201 33.4341C254.073 34.9087 253.439 34.9061 252.653 33.4116C252.181 32.4919 252.499 32.149 253.291 32.4964C254.24 32.8444 255.825 32.8509 256.937 32.2818C259.002 31.3725 262.809 30.8143 262.806 31.3879C262.806 31.6174 260.741 32.5267 258.201 33.4341ZM235.549 29.2121C233.172 29.0877 231.119 27.2438 233.338 27.2528C233.655 27.2541 235.083 27.0305 236.352 26.6915C237.622 26.2378 238.571 26.7005 238.567 27.733C238.564 28.6507 237.134 29.3332 235.549 29.2121ZM221.449 27.2044C220.498 27.2006 220.341 26.7411 220.82 26.0547C221.298 25.483 222.568 24.9146 223.361 24.9178C224.312 24.9217 224.468 25.4959 223.99 26.0676C223.512 26.754 222.242 27.2077 221.449 27.2044ZM221.638 19.7485C220.844 20.0894 220.052 19.8567 220.055 19.2831C220.057 18.5948 220.852 18.0245 221.645 18.0277C222.596 18.0316 223.229 18.2636 223.228 18.493C223.227 18.8372 222.59 19.4082 221.638 19.7485ZM191.461 33.9656C190.668 33.9623 189.878 33.3855 189.881 32.6972C189.883 32.1236 190.677 31.8974 191.468 32.2448C192.417 32.5928 193.049 33.169 193.048 33.5132C193.047 33.7426 192.412 33.9694 191.461 33.9656ZM182.752 31.4063C182.278 31.0602 183.074 30.3751 184.66 30.0374C186.882 29.3582 187.04 29.4735 185.609 30.6149C184.496 31.4134 183.227 31.7524 182.752 31.4063ZM169.259 36.1696C167.366 33.8675 169.115 32.3833 171.804 34.0003C173.543 35.0398 173.699 35.7288 172.427 36.6414C171.155 37.554 170.363 37.436 169.259 36.1696ZM164.503 36.1502C163.71 36.147 162.919 35.9144 162.92 35.6849C162.921 35.3408 163.716 34.7704 164.51 34.4295C165.462 34.0892 166.096 34.3212 166.093 34.8948C166.09 35.5831 165.454 36.1541 164.503 36.1502ZM140.727 35.4799C139.775 35.8202 139.618 35.3607 140.097 34.4449C141.215 32.3845 142.326 32.0448 142.32 33.6509C142.317 34.3392 141.68 35.1396 140.727 35.4799Z" fill="#0000FF"/>
</svg>
