<svg width="577" height="44" viewBox="0 0 577 44" fill="none" xmlns="http://www.w3.org/2000/svg">
<path fill-rule="evenodd" clip-rule="evenodd" d="M575.347 33.8573C574.527 34.1323 573.945 33.5065 574.023 32.5921C574.112 31.5635 573.707 30.7227 573.085 30.5541C572.295 30.4862 570.577 30.1083 569.175 29.7575C566.52 29.1839 565.435 30.7026 565.742 34.5287C565.99 35.3559 565.328 35.6445 564.262 35.0923C563.196 34.5401 562.879 32.6706 563.352 30.869C564.239 27.9516 563.953 27.5815 560.31 27.3836C558.089 27.3079 552.433 26.4763 547.882 25.7398C542.246 24.6796 538.751 24.6096 537.093 25.3882C535.771 25.9654 534.814 25.9982 534.863 25.4267C534.922 24.741 530.371 24.0044 523.55 23.7636C491.854 22.306 482.348 21.8344 470.512 20.702C461.036 19.8876 457.048 20.0054 455.203 21.1133C453.367 22.107 452.242 22.2406 451.689 21.2719C450.534 19.906 424.296 17.8813 423.073 19.1578C422.56 19.5743 421.138 19.4521 419.904 19.0006C418.512 18.5356 416.745 18.7291 415.719 19.5621C414.851 20.4086 413.883 20.5557 413.469 19.8292C413.083 18.7598 406.292 18.1761 380.173 16.6221C377.32 16.4921 374.922 16.6313 374.892 16.9742C374.863 17.3171 370.411 17.2799 365.031 16.9327C347.648 15.5538 301.214 13.4053 289.439 13.4294C288.965 13.3887 288.185 13.2065 287.721 13.0515C285.253 12.1485 279.557 11.7742 278.857 12.5199C277.653 13.5679 265.955 12.6777 264.958 11.3254C264.533 10.7132 261.552 10.2267 258.216 10.1702C254.879 10.1137 245.058 9.61501 236.341 9.21131C227.635 8.69331 215.593 8.11884 209.403 7.93233C203.382 7.6451 195.14 7.28212 191.191 6.94276C179.494 6.05255 178.546 5.9711 157.175 4.71003C145.932 4.08914 131.994 3.35178 126.289 3.09169C105.836 2.25497 77.9403 1.00883 74.4657 0.710198C72.4125 0.533729 70.7841 0.96948 70.7251 1.65526C70.6466 2.56964 70.1728 2.52892 68.9878 1.50594C67.951 0.610844 65.5818 0.407221 61.5744 0.75364C58.3567 1.16793 52.1284 1.43862 47.6864 1.28713C43.3926 1.26351 39.0791 1.46848 38.0922 1.84422C37.2632 2.23354 33.5815 2.49281 30.097 2.30847C26.6027 2.23843 21.9537 2.64485 19.6738 3.25488C17.3938 3.86492 13.6825 4.46708 11.2741 4.72064C8.71763 4.84635 6.74387 5.59784 6.69475 6.16932C6.63581 6.8551 5.33293 7.20369 3.75355 7.06794C2.17416 6.9322 0.683881 7.61011 0.605293 8.52448C0.477588 10.0103 2.01774 10.6033 5.99566 10.5997C6.63725 10.5397 6.99246 10.1097 6.73549 9.39678C6.62668 8.81172 7.12023 8.62385 8.02855 9.16249C8.94676 9.58683 9.19384 10.4141 8.67095 10.9448C8.14799 11.4756 8.4049 12.1885 9.31329 12.7271C10.2216 13.2658 10.3009 14.1937 9.23539 15.4838C7.83433 16.9754 8.66406 18.4284 12.9398 22.3653C18.4004 27.3251 23.3267 29.2454 23.5625 26.5022C23.6313 25.7022 23.1969 25.2042 22.5454 25.3785C21.894 25.5528 21.4594 25.0549 21.538 24.1405C21.6657 22.6547 22.1396 22.6954 25.1707 24.4528C29.8703 27.1595 33.5128 27.3574 33.877 24.9708C33.985 23.7135 34.4785 23.5256 34.8737 24.4807C35.6642 26.3909 40.2445 26.7846 43.0867 25.1866C44.9222 24.1929 45.238 24.2201 44.1921 25.2816C43.3239 26.1281 44.2323 26.6667 46.9172 26.8975C49.1284 27.0876 51.1423 27.7212 51.7151 28.4613C52.7028 29.9279 57.391 29.0643 60.1146 26.9955C61.9894 25.5447 62.4633 25.5854 63.757 27.1934C64.6064 28.4178 65.2284 28.5864 65.307 27.6721C65.3757 26.872 66.8561 26.3084 68.5935 26.4577C70.3308 26.607 71.7915 26.272 71.8505 25.5862C71.9782 24.1003 76.2425 24.4669 76.8946 26.1349C77.5468 27.8029 89.5411 30.7912 90.3005 29.3596C90.6655 28.8153 91.7908 28.6817 92.6991 29.2204C93.7752 29.6583 93.3408 29.1604 91.6918 27.9824C88.9865 26.1379 88.9962 26.0236 92.1353 26.5237C94.0306 26.6865 95.6699 27.9788 96.0258 29.3911C96.6583 31.2878 97.1223 31.4428 98.3359 30.2805C100.073 28.5875 106.617 28.344 106.479 29.9441C106.44 30.4013 107.032 30.9128 107.98 30.9943C108.77 31.0621 109.006 30.1613 108.621 29.0919C107.83 27.1817 107.988 27.1953 110.249 28.6562C111.592 29.6927 114.09 30.2528 116.024 29.9585C118.117 29.6778 119.203 30.0014 119.114 31.0301C119.006 32.2874 119.322 32.3145 120.536 31.1523C121.246 30.2922 122.875 29.8565 124.128 30.0793C129.449 31.1124 131.709 30.7309 130.919 28.8207C130.267 27.1527 130.592 27.0655 133.337 28.4529C135.164 29.4158 136.723 29.7802 136.763 29.323C136.792 28.9801 137.72 29.2901 138.925 30.0845C140.278 31.0068 143.417 31.5068 147.72 31.4162C152.666 31.2655 154.235 31.5155 153.367 32.362C152.666 33.1078 152.775 33.6929 153.565 33.7607C154.512 33.8422 155.943 32.0077 157.087 29.8032C158.083 27.4709 158.951 26.6244 159.001 27.8952C158.993 31.6942 163.307 33.3315 170.71 32.3558C174.244 31.9686 177.036 30.9421 176.789 30.1149C176.7 29.3013 177.204 28.9991 178.112 29.5377C179.03 29.9621 179.277 30.7893 178.754 31.32C177.195 32.798 187.274 34.0097 190.738 32.5803C192.88 31.7281 194.627 31.7631 195.831 32.5575C196.888 33.224 198.912 33.7434 200.669 33.6641C202.258 33.6855 205.239 34.172 207.085 34.9064C209.711 35.823 211.468 35.7437 213.807 34.4479C216.481 32.9506 217.439 32.9177 219.71 34.2643C221.961 35.8395 225.129 35.9967 231.407 35.1545C233.174 34.961 233.203 34.6181 231.584 33.0972C230.557 32.0878 229.175 31.5085 228.681 31.6963C228.03 31.8706 227.289 31.2312 226.894 30.2762C225.679 27.7537 230.131 29.6333 235.937 34.2774C241.003 38.2821 247.183 40.4252 247.369 38.2536C247.428 37.5678 248.563 37.3199 249.797 37.7714C251.022 38.3372 252.463 38.2308 253.153 37.5993C253.686 36.9542 255.769 36.7878 257.496 37.0514C259.392 37.2143 261.287 37.3772 261.771 37.3036C268.068 36.2329 292.282 37.7383 294.997 39.4685C296.952 40.7879 296.962 40.6736 295.214 38.7963C294.048 37.5447 293.969 36.6168 294.917 36.6982C295.864 36.7797 297.947 36.6132 299.556 36.4061C301.974 36.0382 301.964 36.1525 299.981 37.0183C298.658 37.5955 298.293 38.1398 299.073 38.322C300.021 38.4034 302.054 38.8085 303.614 39.1728C305.332 39.5508 307.918 39.0822 309.279 38.0478C310.799 37.027 312.911 36.5177 313.997 36.8413C315.073 37.2792 315.586 36.8627 315.043 35.7798C314.124 33.5131 317.895 34.0675 321.341 36.5513C323.138 37.8572 324.234 38.0665 326.059 37.1872C327.392 36.4957 330.412 36.525 332.91 37.0851C335.249 37.6316 336.365 37.6123 335.131 37.1608C332.06 35.8607 327.192 31.4123 328.93 31.5616C329.877 31.6431 330.934 32.3096 331.358 32.9218C331.931 33.6619 334.745 34.2491 337.775 34.1641C340.815 33.9649 343.164 34.3971 343.106 35.0828C343.047 35.7686 342.227 36.0437 341.299 35.7336C340.362 35.5379 339.158 36.5858 338.862 38.1724C338.409 39.7454 338.35 40.4312 338.883 39.7861C339.435 38.9125 342.771 38.9689 348.428 39.8005C356.276 41.0507 357.233 41.0179 358.219 38.7998C359.196 36.696 360.005 36.5353 364.21 37.5876C368.416 38.6399 368.742 38.5527 366.994 36.6754C365.976 35.5517 365.729 34.7245 366.519 34.7923C367.309 34.8602 368.938 36.2668 369.906 37.962C370.874 39.6572 372.049 40.7944 372.385 40.593C372.878 40.4051 375.08 40.7095 377.4 41.4846C380.193 42.3004 382.582 42.2754 384.724 41.4232C387.033 40.4703 388.306 40.4646 389.807 41.5147C391.298 42.6791 391.782 42.6055 391.91 41.1197C391.998 40.091 392.856 39.3588 393.804 39.4402C396.331 39.6574 400.219 36.9979 399.044 35.8606C398.461 35.2349 398.777 35.262 399.853 35.6999C400.762 36.2386 402.055 36.0043 402.429 35.3456C403.15 34.3713 403.466 34.3984 403.387 35.3128C403.486 36.0121 402.253 37.403 400.753 38.1952C397.565 40.1089 398.809 40.4461 403.24 38.8696C406.033 37.8431 406.813 38.0252 407.821 39.2632C408.68 40.3733 409.637 40.3405 412.006 38.7018C413.693 37.5803 415.677 36.7145 416.466 36.7823C417.256 36.8502 416.714 37.6096 415.362 38.5297C411.848 40.5305 411.858 40.4162 417.722 40.6899C430.554 41.3322 432.311 41.253 429.823 40.5786C425.628 39.412 426.723 37.779 431.106 38.6163C435.192 39.1978 436.574 37.9348 433.336 36.7354C432.102 36.2839 432.447 35.9681 434.184 36.1175C435.615 36.1253 436.84 36.6911 436.781 37.3769C436.683 38.5199 446.338 42.804 449.339 43.0619C450.287 43.1433 450.188 42.444 449.319 41.4482C447.857 39.9408 448.36 39.6387 452.299 40.0923C454.974 40.4374 456.672 41.0439 456.159 41.4604C455.636 41.9911 456.416 42.1733 457.709 41.939C459.16 41.7183 460.344 40.8989 460.393 40.3275C460.452 39.6417 461.893 39.5352 463.601 40.0275C465.309 40.5197 466.76 40.2989 466.809 39.7275C466.868 39.0417 468.112 39.3789 469.603 40.5433C471.084 41.822 472.91 42.785 473.7 42.8528C474.49 42.9207 473.759 42.1671 472.1 41.1034C470.6 40.0532 469.75 38.8288 470.579 38.4395C471.25 38.0366 471.704 38.3059 471.645 38.9917C471.459 41.1634 475.298 40.9177 481.555 38.4618C487.309 36.308 492.502 36.9846 489.887 39.6384C488.851 40.5856 489.325 40.6263 491.93 39.9292C493.727 39.3927 495.759 37.9554 496.489 36.8668C497.614 34.8909 497.93 34.918 501.761 38.4713C504.427 40.773 506.412 41.7495 506.796 40.9766C507.556 39.545 511.099 39.0436 517.446 39.2436C519.341 39.4065 520.97 38.9708 521.009 38.5136C521.058 37.9421 521.69 37.9964 522.608 38.4208C525.185 39.9088 530.368 40.6996 530.456 39.671C530.496 39.2138 531.937 39.1074 533.645 39.5996C535.352 40.0918 536.793 39.9854 536.843 39.4139C536.931 38.3852 540.129 38.1995 548.036 38.7639C550.247 38.954 552.823 38.5997 553.82 38.1096C554.817 37.6196 556.89 37.5675 558.272 38.1468C559.664 38.6119 560.789 38.4783 560.858 37.6782C560.917 36.9925 561.726 36.8317 562.644 37.2561C565.675 39.0134 574.854 37.7298 575.841 35.5117C576.422 34.2952 576.176 33.468 575.347 33.8573ZM559.426 35.828C558.606 36.1031 557.836 35.8066 557.886 35.2351C557.944 34.5493 558.783 34.0457 559.573 34.1136C560.521 34.195 561.133 34.4779 561.113 34.7065C561.084 35.0494 560.403 35.5666 559.426 35.828ZM554.272 34.6943C552.615 35.4729 551.993 35.3043 552.081 34.2757C552.16 33.3613 553.166 32.7569 554.43 32.8655C555.535 32.9606 556.473 33.1563 556.463 33.2706C556.444 33.4992 555.437 34.1035 554.272 34.6943ZM510.733 37.7456C510.289 37.362 511.138 36.744 512.747 36.5369C515.017 36.0412 515.165 36.169 513.645 37.1898C512.471 37.8949 511.178 38.1292 510.733 37.7456ZM510.997 30.9749C507.868 30.3605 505.608 30.742 506.477 31.7378C506.892 32.4643 505.756 32.7122 504.029 32.4486C502.144 32.1714 501.087 31.5049 501.64 30.6312C502.182 29.8719 501.925 29.1589 501.293 29.1046C500.504 29.0367 499.497 29.6411 498.954 30.4004C498.402 31.2741 497.603 31.3205 496.566 30.4254C495.371 29.5167 496.229 28.7845 498.993 28.1009C502.24 27.3437 503.188 27.4252 503.869 28.7503C504.235 30.0483 505.331 30.2576 507.453 29.634C508.924 29.1847 510.671 29.2197 511.273 29.6169C512.458 30.6399 512.409 31.2114 510.997 30.9749ZM508.245 35.2289C507.633 34.946 505.975 35.7246 504.603 36.8733C502.038 38.9556 500.872 37.704 503.448 35.5074C505.175 33.9287 510.82 33.0322 509.893 34.5645C509.518 35.2232 508.699 35.4982 508.245 35.2289ZM489.282 31.8719C489.716 32.3698 489.845 32.7263 489.371 32.6856C488.897 32.6448 487.692 31.8505 486.823 30.8546C485.51 29.4752 485.865 29.0452 488.432 28.8052C490.998 28.5652 491.452 28.8345 490.1 29.7546C489.084 30.4732 488.679 31.4747 489.282 31.8719ZM453.137 37.7464C451.637 38.5386 450.837 38.585 451.538 37.8392C452.229 37.2078 451.824 36.367 450.905 35.9426C449.829 35.5047 450.471 35.4447 452.524 35.6212C455.255 35.9327 455.459 36.6411 453.137 37.7464ZM421.542 40.6728C421.068 40.6321 420.317 40.107 419.903 39.3805C419.478 38.7683 419.843 38.224 420.633 38.2918C421.58 38.3733 422.321 39.0126 422.272 39.5841C422.213 40.2699 421.857 40.6999 421.542 40.6728ZM349.242 28.4715C346.587 27.8979 346.597 27.7836 349.419 26.4142C351.245 25.5348 352.044 25.4884 351.176 26.3349C349.617 27.8129 351.809 28.2315 354.631 26.8621C355.786 26.3857 355.608 26.6007 354.256 27.5208C353.062 28.4544 350.644 28.8223 349.242 28.4715ZM344.839 26.0205C344.523 25.9934 343.802 25.1254 343.417 24.056C343.022 23.1009 343.219 22.6573 344.137 23.0817C345.657 23.9032 346.103 26.1291 344.839 26.0205ZM323.124 26.9175C322.383 26.2782 323.695 25.8153 326.074 25.9046C329.559 26.089 329.865 26.2304 327.25 27.0419C325.611 27.5919 323.716 27.429 323.124 26.9175ZM319.914 23.5329C318.68 23.0814 319.183 22.7792 320.921 22.9286C322.668 22.9636 323.586 23.3879 322.925 23.6765C322.421 23.9787 320.99 23.9708 319.914 23.5329ZM319.709 29.6178C318.92 29.5499 318.15 29.2534 318.169 29.0248C318.199 28.682 319.038 28.1783 319.857 27.9033C320.834 27.6419 321.446 27.9248 321.397 28.4963C321.338 29.182 320.657 29.6992 319.709 29.6178ZM313.985 31.4286C312.721 31.32 311.636 30.9964 311.655 30.7678C311.675 30.5392 312.82 30.177 314.123 29.8284C315.415 29.5942 316.501 29.9178 316.452 30.4893C316.393 31.175 315.248 31.5372 313.985 31.4286ZM310.6 33.786C309.208 33.3209 308.468 32.6815 308.961 32.4937C309.464 32.1915 310.402 32.3872 311.311 32.9259C313.749 34.1717 313.216 34.8168 310.6 33.786ZM257.357 34.9669C253.123 36.0999 252.491 36.0456 251.829 34.4918C251.434 33.5367 251.78 33.221 252.54 33.6318C253.458 34.0561 255.037 34.1918 256.192 33.7154C258.324 32.9775 262.164 32.7318 262.114 33.3033C262.095 33.5318 259.963 34.2698 257.357 34.9669ZM235.126 28.9111C232.766 28.5932 230.87 26.588 233.082 26.778C233.397 26.8052 234.838 26.6987 236.131 26.4644C237.434 26.1158 238.343 26.6545 238.254 27.6832C238.176 28.5975 236.695 29.1611 235.126 28.9111ZM221.236 25.7599C220.288 25.6785 220.17 25.2077 220.703 24.5627C221.225 24.0319 222.538 23.569 223.328 23.6369C224.275 23.7183 224.384 24.3034 223.861 24.8342C223.329 25.4792 222.026 25.8278 221.236 25.7599ZM222.033 18.3442C221.213 18.6192 220.443 18.3228 220.492 17.7513C220.551 17.0655 221.39 16.5619 222.18 16.6298C223.128 16.7112 223.74 16.9941 223.72 17.2227C223.691 17.5656 223.01 18.0828 222.033 18.3442ZM190.796 30.0522C190.006 29.9843 189.266 29.345 189.325 28.6592C189.374 28.0877 190.183 27.927 190.944 28.3377C191.862 28.7621 192.444 29.3879 192.415 29.7308C192.395 29.9593 191.744 30.1336 190.796 30.0522ZM182.326 26.7911C181.881 26.4074 182.73 25.7895 184.339 25.5824C186.609 25.0866 186.757 25.2145 185.237 26.2353C184.063 26.9404 182.77 27.1747 182.326 26.7911ZM168.488 30.4377C166.789 27.9889 168.654 26.6523 171.202 28.4833C172.851 29.6612 172.95 30.3606 171.608 31.1664C170.266 31.9722 169.486 31.79 168.488 30.4377ZM163.75 30.0305C162.96 29.9626 162.19 29.6661 162.21 29.4375C162.239 29.0947 163.078 28.591 163.897 28.316C164.874 28.0546 165.487 28.3375 165.437 28.909C165.378 29.5947 164.698 30.1119 163.75 30.0305ZM140.108 27.4228C139.131 27.6843 139.012 27.2135 139.565 26.3399C140.847 24.3775 141.982 24.1297 141.845 25.7298C141.786 26.4156 141.085 27.1614 140.108 27.4228Z" fill="#0000FF"/>
</svg>
