<svg width="128" height="137" viewBox="0 0 128 137" fill="none" xmlns="http://www.w3.org/2000/svg">
<path fill-rule="evenodd" clip-rule="evenodd" d="M116.506 0.733384C116.442 1.17771 116.442 1.87595 116.506 2.32028C116.569 2.82808 115.871 3.01845 114.348 2.89149C112.951 2.70107 112.316 2.89156 112.507 3.27241C112.761 3.65326 112.57 3.84366 112.189 3.71671C110.729 3.2089 111.428 2.19328 113.522 1.8759L115.617 1.49506L113.776 1.11422C111.935 0.733369 109.333 2.19326 109.968 3.20887C110.095 3.46277 109.333 3.5263 108.127 3.33587C105.715 2.95502 103.557 4.54189 105.524 5.3036C106.223 5.5575 106.477 5.43052 106.223 4.79576C105.969 4.16101 106.159 3.97064 106.73 4.22454C107.238 4.41497 107.492 4.79582 107.302 5.17668C107.111 5.49406 107.429 5.74791 108.063 5.68444C108.762 5.62096 110.285 5.5575 111.491 5.62098C113.586 5.68445 113.649 5.74796 112.507 6.76357C111.682 7.58875 111.237 7.7157 111.047 7.08095C110.602 5.87491 109.143 6.19229 108.063 7.7157C107.492 8.47741 106.857 8.92174 106.603 8.66784C106.413 8.41393 106.73 7.77913 107.429 7.27133C108.444 6.50962 108.508 6.38267 107.556 6.31919C106.984 6.31919 106.032 6.1288 105.398 5.87489C104.572 5.55752 104.445 5.68442 104.826 6.38265C105.144 6.95393 104.89 6.8905 104.191 6.19227C103.303 5.36709 102.795 5.30363 101.589 5.81143C100.764 6.19229 100.066 6.89052 100.066 7.39832C100.066 7.84265 99.7481 8.16003 99.3038 8.03308C98.8595 7.96961 98.5421 8.22351 98.4787 8.66784C98.4787 9.61997 97.5265 10.5721 97.5265 9.68343C97.5265 8.60435 96.257 9.04868 92.8293 11.2703C91.052 12.4129 89.4016 13.3015 89.1477 13.3015C88.1321 13.3015 88.6399 14.5076 89.7824 14.7615C90.3537 14.8884 89.5921 15.2693 88.0052 15.6502C86.4183 15.9675 85.2122 16.6023 85.3391 16.9831C85.4026 17.4275 85.2122 17.7448 84.8949 17.7448C84.5775 17.7448 83.4984 18.0622 82.6097 18.3796C81.0863 18.9508 81.0228 19.1413 81.7211 20.0935C82.4828 21.0456 82.4193 21.109 81.1498 20.7917C80.1976 20.5378 79.5629 20.6647 79.309 21.2994C79.1185 21.8072 78.4204 22.1881 77.7856 22.1881C77.1509 22.1881 76.5796 22.6324 76.5796 23.1402C76.5796 24.1558 74.4214 25.5523 73.7866 24.9176C73.4692 24.5367 73.1519 25.6793 73.3423 26.7584C73.3423 27.0123 72.9615 27.0758 72.3902 26.8219C71.7554 26.5679 71.311 26.9488 71.0571 27.8374C70.8667 28.5357 70.3589 29.1704 69.9146 29.1704C69.4703 29.1704 68.3277 29.9956 67.5025 31.0747C66.6139 32.0903 65.6618 32.979 65.4079 32.979C64.5192 32.979 60.6472 37.4222 61.028 38.057C61.2185 38.4379 60.9645 38.6918 60.4567 38.6918C59.9489 38.6918 58.4255 39.39 57.156 40.2787C54.744 41.929 52.7762 42.3099 52.1414 41.2308C51.951 40.9134 51.3797 40.7864 50.9354 40.9769C50.4276 41.1673 49.8563 41.0403 49.6024 40.6595C49.3485 40.2152 49.7928 39.9613 50.6815 39.8978C51.6548 39.8978 51.6125 39.6862 50.5546 39.2631C49.6659 38.8822 48.7137 38.184 48.4598 37.6762C48.079 37.0414 47.6346 36.9779 46.9364 37.3588C45.7938 37.9935 43.5722 37.5492 43.5722 36.6606C43.5722 36.3432 43.3183 36.2797 42.9375 36.4701C42.6201 36.6605 42.4931 36.4701 42.6836 35.8988C42.874 35.391 43.4453 35.1372 43.9531 35.3276C44.4609 35.518 44.8417 35.4545 44.8417 35.2641C44.8417 34.6928 41.8584 33.5503 39.4463 33.1694C37.2881 32.7886 36.4629 32.3442 38.0498 32.3442C38.6846 32.3442 39.1289 32.0903 39.1289 31.7729C39.1289 31.0112 37.4786 30.4399 35.3204 30.4399C34.3048 30.4399 33.2892 30.1226 33.0988 29.8052C32.8448 29.4243 32.2101 29.2974 31.6388 29.4243C31.004 29.6148 30.1788 29.5513 29.7345 29.2339C29.1632 28.9165 29.6076 28.7261 30.8771 28.6627C32.0197 28.6627 33.0352 28.4722 33.2257 28.3453C33.3526 28.1549 31.7023 27.1392 29.5441 26.0601C25.5452 24.0924 24.0217 23.5211 25.7991 24.7906C26.5608 25.2984 26.4973 25.4254 25.4817 25.235C24.7834 25.108 24.2122 24.6002 24.2122 24.0924C24.2122 23.648 23.1966 22.9499 21.9905 22.6325C20.7845 22.3151 19.4515 21.8072 19.1341 21.5533C18.7533 21.236 17.1029 21.2995 15.389 21.6803C13.6752 21.9977 12.1518 22.0612 11.8979 21.8073C11.3901 21.0456 8.66063 20.9821 8.66063 21.6803C8.66063 21.9342 8.02583 22.1881 7.26412 22.1881C5.99461 22.1881 5.99461 22.2516 6.94674 23.3307C8.15278 24.6637 8.47022 28.2183 7.32766 27.5201C6.94681 27.3296 7.07376 27.8375 7.64504 28.6627C9.10498 30.8843 8.40674 32.4712 6.37552 31.7094C4.53473 31.0112 4.40778 31.7095 6.05815 33.2329C6.75638 33.8676 7.64501 34.185 8.08934 33.8676C8.53367 33.6137 8.72408 33.6772 8.47017 34.0581C8.21627 34.4389 8.66062 34.8833 9.35885 35.0737C10.3745 35.3276 10.5649 35.2006 10.311 34.4389C9.9936 33.6137 10.0571 33.5502 10.8823 34.2485C11.7075 34.9467 13.6752 34.8833 17.2298 34.0581C17.9281 33.9311 18.1185 33.9311 17.6741 34.0581C17.1663 34.2485 16.976 34.7563 17.1664 35.2006C17.3568 35.7719 17.1029 35.9623 16.3412 35.8354C15.7064 35.7084 14.8178 35.8988 14.31 36.2162C13.8022 36.5336 13.7387 36.7875 14.0561 36.851C17.1029 37.2318 19.4515 38.184 19.4515 38.9457C19.4515 39.7709 21.7366 39.7708 24.4025 39.0091C25.4182 38.6283 25.7991 38.8187 25.7991 39.5804C25.7991 40.3421 25.4182 40.5326 24.2756 40.2152C23.4504 40.0248 22.6253 40.1517 22.3714 40.4691C22.1809 40.7865 23.1966 41.0404 24.5295 41.0404C26.3069 41.0404 27.0686 40.7865 27.0686 40.1517C27.0686 39.6439 27.3859 39.4535 27.7668 39.6439C28.2111 39.9613 27.8938 40.6595 27.0051 41.6116C26.2434 42.4368 25.799 43.3255 25.9894 43.5794C26.2433 43.7699 26.4338 43.8333 26.4338 43.5794C26.4338 43.389 27.259 43.5159 28.3381 43.8333C29.3537 44.2141 30.0519 44.7854 29.8615 45.1028C29.3537 45.9914 30.4328 45.7376 31.7658 44.7219C32.8449 43.8968 33.1622 43.8968 34.1778 44.8489C34.8126 45.4202 36.2725 45.8646 37.3516 45.8011C38.4941 45.8011 40.081 46.1819 40.8427 46.6897C41.6045 47.134 42.6836 47.5784 43.2549 47.5784C43.8261 47.5784 44.1435 47.8323 43.8896 48.1496C43.6992 48.467 44.207 48.9114 44.9687 49.0383C45.8573 49.2076 45.7939 49.3345 44.7783 49.4192C43.8261 49.4192 42.6201 48.9113 41.9853 48.2131C41.3506 47.4514 40.3984 47.0705 39.9541 47.261C39.4463 47.3879 39.2559 47.261 39.4463 46.9436C39.6367 46.5627 39.2559 46.3088 38.5576 46.3088C36.9707 46.3088 36.8438 47.1341 38.1768 48.4036C39.002 49.2922 38.9385 49.4827 37.3516 49.9905C35.8282 50.5617 35.7647 50.6887 37.0342 50.6887C37.7959 50.7521 38.7481 51.26 39.0655 51.8313C39.4463 52.466 39.7637 52.593 39.7637 52.1486C39.7637 50.7522 40.9062 51.3234 41.1601 52.9738C41.3506 53.8624 41.2236 54.5607 40.7793 54.5607C40.3984 54.5607 40.7793 55.005 41.541 55.5763C42.747 56.4014 42.8105 56.7189 42.2393 57.9249C41.7949 58.6866 41.0966 59.5753 40.5888 59.8292C40.1445 60.1466 39.8906 60.5908 40.0811 60.9717C40.335 61.2891 40.0176 61.543 39.4463 61.543C38.875 61.543 38.5577 61.7969 38.8116 62.1143C39.002 62.4317 38.3038 63.3203 37.2247 64.082C36.2091 64.8437 35.3204 65.8593 35.3204 66.3037C35.3204 66.8115 34.7491 67.5097 33.9874 67.8905C33.2892 68.3349 32.8449 69.0331 33.0353 69.4774C33.1622 69.9218 32.9083 70.4931 32.4005 70.6835C31.8293 70.8739 31.6388 71.3182 31.8292 71.6991C32.0197 72.0165 31.6388 72.3338 30.9406 72.3338C29.7345 72.3338 29.2902 72.9686 29.5441 74.4286C29.6076 74.6825 28.6555 75.825 27.3859 77.0311C26.1799 78.1736 25.4182 79.3796 25.6721 79.6335C25.926 79.824 25.6086 80.3318 24.9738 80.6491C24.4026 81.03 23.8948 81.5378 23.8948 81.9186C23.8948 82.236 23.26 83.2517 22.4983 84.0768C18.9436 87.8219 18.6263 88.8375 20.7845 88.8375C21.9905 88.8375 22.054 88.9645 21.2923 89.9166C20.4671 90.8688 20.5306 90.8687 21.6731 90.1705C22.4348 89.7262 23.6408 88.3932 24.4025 87.1872C25.5451 85.4098 26.1799 85.029 27.8937 85.0924L29.925 85.156L28.1476 85.7907C26.9416 86.2351 26.2433 86.9967 25.9894 88.2662C25.799 89.2818 25.4182 90.2974 25.1008 90.4879C24.8469 90.6148 24.7199 91.1861 24.9738 91.6939C25.2912 92.5826 25.0373 92.773 23.133 92.9C21.2922 93.0269 21.1653 95.8198 22.9426 95.8198C23.4505 95.8198 23.7678 96.3911 23.7043 97.0893C23.6409 98.2319 23.5774 98.2319 22.4983 97.2798C21.8635 96.7085 21.3558 96.5816 21.3558 96.899C21.3558 97.2798 20.8479 97.5337 20.2766 97.4702C19.6419 97.4702 19.1975 97.7876 19.3245 98.1685C19.388 98.6128 19.1341 98.9936 18.7533 98.9936C18.4359 98.9936 18.3089 99.2475 18.4994 99.6284C18.6898 99.9457 18.5628 100.263 18.2454 100.263C17.8646 100.263 17.5472 100.707 17.5472 101.215C17.5472 101.723 17.2933 102.167 16.9125 102.167C16.5951 102.167 16.2777 102.548 16.2777 103.056C16.2777 103.691 16.7855 103.881 17.9281 103.691C18.9437 103.5 19.388 103.627 19.1341 104.072C18.9437 104.389 18.2454 104.706 17.6107 104.706C17.0394 104.706 16.2142 105.024 15.7699 105.468C15.3255 105.912 15.0082 105.976 15.0082 105.659C15.0082 105.405 14.4369 105.785 13.7387 106.611C13.0405 107.436 12.4692 108.578 12.4692 109.213C12.4692 110.546 10.184 112.006 9.67623 111.117C9.42232 110.8 9.6762 110.165 10.1205 109.658C11.0092 108.832 12.4692 106.357 12.4692 105.786C12.4692 105.595 11.8979 105.341 11.1997 105.151C10.5014 104.96 10.0571 105.087 10.311 105.405C10.5014 105.722 10.311 105.976 9.86668 105.976C9.42235 105.976 9.23187 106.166 9.48577 106.357C9.6762 106.547 9.2954 107.372 8.59717 108.071C7.89894 108.832 7.51809 109.785 7.64504 110.229C7.83546 110.61 7.45456 111.117 6.88328 111.244C5.99462 111.435 5.93118 111.562 6.75636 111.879C7.26417 112.07 8.47017 112.387 9.42231 112.577C10.6283 112.831 11.0727 113.339 11.0092 114.164C11.0092 114.863 10.6918 115.243 10.3744 115.053C9.80316 114.736 7.39112 117.211 7.39112 118.163C7.39112 118.481 7.77193 118.544 8.21626 118.354C8.59711 118.1 8.40671 118.417 7.77196 118.925C6.75635 119.75 6.37546 119.75 5.99461 119.115C5.74071 118.735 5.48685 118.671 5.48685 119.052C5.48685 119.369 5.80421 120.004 6.18507 120.385C6.94677 121.147 5.86769 122.162 4.91555 121.527C4.09037 121.083 5.35987 117.402 6.24853 117.592C6.62938 117.655 7.07371 117.338 7.20066 116.894C7.70847 115.561 4.59818 116.005 3.64604 117.465C3.01129 118.544 3.01129 118.925 3.64604 119.306C4.21732 119.687 3.9634 120.258 2.75737 121.464C1.80523 122.416 1.23397 123.559 1.42439 124.066C1.6783 124.574 1.55131 125.019 1.23394 125.019C0.916558 125.019 0.662656 125.59 0.59918 126.352C0.472229 127.367 0.662702 127.494 1.36093 126.923C1.86874 126.542 2.56697 126.352 2.94783 126.606C3.45563 126.923 3.32868 127.304 2.63045 127.812C1.67831 128.51 1.74174 128.7 2.82083 129.97C3.45558 130.731 4.21735 131.176 4.47126 130.922C4.66168 130.731 4.85209 130.795 4.85209 131.176C4.85209 131.557 5.42337 132.001 6.12161 132.191C7.7085 132.572 7.89888 130.414 6.31199 129.843C5.42333 129.462 5.42336 129.335 6.50244 128.51C7.1372 128.002 8.21627 127.558 8.78755 127.558C9.35883 127.558 9.86668 127.05 9.86668 126.479C9.93016 123.876 10.184 123.178 11.0092 122.797C11.5805 122.607 11.7709 122.035 11.5805 121.337C11.2631 120.512 11.644 119.941 12.7865 119.433C13.7387 118.988 14.183 118.354 13.9926 117.782C13.8022 117.275 14.3099 116.322 15.0717 115.561C15.8968 114.799 16.5951 113.656 16.722 113.022C16.849 112.07 16.5951 111.879 15.4525 112.133C13.8021 112.577 14.0561 112.197 16.2142 111.054C17.1664 110.546 17.5472 110.546 17.2933 110.991C17.0394 111.371 17.1028 111.689 17.4202 111.689C17.8011 111.689 18.2455 110.991 18.4359 110.102C18.6898 109.213 19.1341 108.515 19.4515 108.515C19.8323 108.515 20.0862 108.198 20.0862 107.817C20.0862 107.436 20.5306 106.674 21.1018 106.166C21.927 105.341 21.927 105.024 21.2288 104.579C20.6575 104.135 20.7845 104.072 21.7366 104.262C22.5618 104.453 23.3235 104.072 23.8313 103.373C24.2757 102.548 24.3391 102.167 23.8313 102.167C23.5139 102.167 23.387 101.85 23.5774 101.533C23.7678 101.152 23.387 100.898 22.6253 100.898C21.8636 100.898 21.4827 100.58 21.6731 100.263C21.927 99.8188 22.4348 99.8188 23.26 100.263C24.1487 100.771 24.593 100.517 25.4817 99.1206C26.1164 98.1685 27.4494 96.6451 28.465 95.6294C30.0519 94.1695 29.9884 93.5982 28.2111 93.7886C28.0207 93.8521 27.6398 93.4712 27.4494 92.9C27.259 92.3922 27.3225 92.1382 27.6399 92.3287C27.9572 92.5191 28.4016 92.0748 28.6555 91.3765C29.0998 89.9166 29.5441 89.8531 30.8771 90.8052C31.7023 91.3765 31.7022 91.4401 30.7501 91.1861C29.8614 90.8688 28.5285 92.3921 29.1632 93.0269C29.671 93.5347 32.1466 91.1861 32.1466 90.234C32.1466 89.6627 32.9718 88.5836 33.9874 87.8854C35.003 87.2506 35.7647 86.4255 35.5743 86.1716C35.3839 85.9177 35.8917 85.4098 36.6534 85.029C37.542 84.5212 37.8594 83.8864 37.669 83.0612C37.4785 82.4265 37.6055 81.9821 37.8594 82.1726C38.1768 82.363 38.7481 81.9187 39.1289 81.2204C39.8272 79.8874 40.3349 79.2527 43.7626 75.5711C44.7147 74.5555 45.4765 73.5399 45.4765 73.3494C45.4765 73.159 46.6191 71.826 47.9521 70.493C49.2851 69.16 50.3006 67.8271 50.1102 67.6366C49.9197 67.4462 50.2372 67.1289 50.8085 66.875C51.3797 66.6845 51.6971 66.3036 51.5701 66.0497C51.4432 65.8593 52.0145 65.3516 52.8397 64.9072C53.9187 64.3994 54.49 64.3994 54.8074 64.8438C55.0613 65.2881 54.8709 65.3515 54.2996 65.0341C53.7918 64.7168 53.6013 64.7802 53.9187 65.0976C54.2361 65.415 54.6804 65.6689 54.8708 65.6689C55.1247 65.6689 55.696 65.9228 56.0769 66.1767C56.5212 66.4306 57.4099 66.3671 58.1082 65.9863C59.7585 65.0976 60.5202 65.1611 60.901 66.1767C61.1549 66.8115 60.8376 67.0019 59.8854 66.8115C58.7429 66.5576 58.489 66.875 58.4255 68.081C58.3621 69.3505 58.6794 69.7314 60.0759 70.0487C61.0915 70.2392 62.0437 70.874 62.2341 71.5087C62.4245 72.2069 63.1862 72.7147 63.8844 72.7782C65.4713 72.9052 67.3121 74.619 66.4235 75.1902C66.1061 75.3807 65.7887 75.3172 65.7887 74.9999C65.7887 74.619 65.2808 74.1746 64.7096 73.9842C63.7574 73.6033 63.7575 73.7303 64.8366 74.8729C65.4713 75.5711 66.4235 76.1424 66.9948 76.1424C68.0104 76.1424 69.9781 78.5545 69.7242 79.4432C69.4703 80.3318 71.0572 79.9509 72.1997 78.9353C73.2153 78.0467 73.3423 78.0467 74.0405 79.3162C74.7388 80.5857 74.6753 80.6491 73.4692 80.0144C72.3902 79.3796 72.1997 79.4431 72.5171 80.2683C72.771 80.7761 73.1518 81.2204 73.5327 81.2204C73.8501 81.2204 73.9136 81.6013 73.6597 81.9822C73.3423 82.5535 73.5327 82.4899 74.2309 81.9186C74.8657 81.4108 75.5004 81.2205 75.7543 81.4743C75.9448 81.6648 75.8178 81.8552 75.3735 81.8552C74.9292 81.8552 74.7388 82.1091 74.9927 82.4265C75.1831 82.7439 76.3891 82.8708 77.6586 82.6804C79.309 82.4265 79.8168 82.49 79.4994 82.9978C79.2455 83.4421 78.6108 83.7595 78.103 83.7595C77.5317 83.7595 76.643 84.2673 76.0717 84.8386C75.1831 85.7272 75.1831 85.8542 75.9448 85.5368C76.5161 85.3464 77.4682 85.5368 78.1665 86.0446C79.2455 86.8698 79.2455 86.9332 78.2299 86.9332C77.6586 86.9332 77.3413 87.2506 77.5317 87.568C77.7856 87.9489 78.1665 88.0758 78.4838 87.8854C79.2455 87.441 81.9115 88.7741 81.4037 89.3453C81.1498 89.5358 81.9115 90.1071 82.9906 90.5514C84.0697 90.9957 84.7679 91.6304 84.514 92.0113C84.0697 92.7095 85.4662 92.8365 86.9896 92.2652C87.8148 91.9478 87.8782 91.6305 87.3704 90.9957C86.9261 90.5514 86.2279 90.361 85.7201 90.5514C85.2123 90.7418 84.8314 90.6148 84.8314 90.3609C84.8314 90.0436 86.0374 89.7262 87.5608 89.7262C89.0207 89.6627 89.719 89.7262 89.1477 89.9166C87.7512 90.2975 87.6878 90.9957 89.0208 92.2652C89.7825 93.0269 89.7824 93.2808 89.1477 93.3443C88.7034 93.3443 88.8938 93.5982 89.5921 93.9156C90.5442 94.2964 90.6077 94.4869 89.846 94.4869C89.2747 94.5503 88.6399 94.3599 88.386 94.106C88.1956 93.8521 87.3069 93.5982 86.5452 93.4713C85.1487 93.2808 85.1488 93.3443 86.7357 94.6773C87.7513 95.566 87.9417 95.8833 87.2434 95.6294C86.6087 95.3755 86.1009 95.5024 86.1009 95.8198C86.1009 96.5815 88.259 97.7241 89.7824 97.7241C90.798 97.7241 90.9885 98.1049 90.7981 99.9457C90.6712 101.533 90.925 102.167 91.5598 102.167C92.0676 102.167 92.6389 102.612 92.8928 103.183C93.2736 104.135 93.4006 104.135 94.1623 103.056C94.9875 101.914 95.3049 102.421 95.0509 104.452C94.924 105.405 96.7648 106.103 97.2091 105.341C98.0978 103.945 99.9386 104.706 100.383 106.674C100.7 108.198 101.081 108.578 102.033 108.325C102.668 108.134 103.112 108.261 102.858 108.578C102.541 109.086 103.43 109.277 106.921 109.34C107.683 109.404 108.317 109.658 108.317 109.975C108.317 110.292 107.048 110.419 105.524 110.292C103.112 109.975 102.731 110.102 103.049 110.991C103.303 111.816 103.239 111.879 102.731 111.054C102.351 110.546 102.224 109.911 102.414 109.531C102.668 109.213 102.351 109.086 101.779 109.34C101.145 109.531 100.7 109.531 100.7 109.277C100.7 109.023 99.9385 108.769 98.9864 108.705L97.2091 108.642L98.796 109.34C101.843 110.8 102.16 111.117 101.208 111.879C100.764 112.324 100.446 112.577 100.573 112.514C100.7 112.514 101.525 112.831 102.414 113.276C103.303 113.72 104.382 113.974 104.826 113.847C105.207 113.656 105.588 113.91 105.588 114.418C105.588 114.989 105.08 115.243 104.255 115.053C103.176 114.799 103.112 114.863 103.874 115.434C104.636 116.005 104.699 116.196 103.938 116.703C102.858 117.402 104.128 118.354 105.271 117.655C106.159 117.084 110.729 117.084 111.301 117.592C111.491 117.846 110.729 118.036 109.523 118.1C108.317 118.1 106.857 118.354 106.223 118.544C105.207 118.988 105.207 119.115 106.032 120.258C106.921 121.401 106.984 121.401 107.048 120.385C107.048 118.862 108.317 118.988 108.317 120.575C108.317 121.401 108.635 121.718 109.333 121.401C109.841 121.21 110.158 120.702 109.968 120.258C109.65 119.306 112.57 118.544 113.142 119.369C113.332 119.687 113.015 119.941 112.507 119.941C111.935 119.941 111.491 120.194 111.491 120.575C111.491 120.893 112.253 121.21 113.205 121.21C114.538 121.21 114.728 121.401 114.157 121.972C113.522 122.607 113.078 122.607 112.062 121.908C111.11 121.337 110.539 121.274 110.031 121.781C109.523 122.289 109.714 122.48 110.666 122.48C111.428 122.48 112.126 122.797 112.253 123.178C112.634 124.257 114.411 123.178 115.236 121.464C115.617 120.575 115.681 120.004 115.363 120.258C114.982 120.448 114.411 120.068 114.094 119.369C113.522 118.354 113.586 118.227 114.792 118.544C115.807 118.798 115.998 118.671 115.617 118.036C115.236 117.402 115.363 117.275 116.125 117.592C116.95 117.909 117.204 117.655 117.204 116.703C117.204 116.005 116.95 115.561 116.633 115.751C116.315 115.942 115.934 115.688 115.681 115.18C115.49 114.672 115.554 114.291 115.807 114.291C117.585 114.545 117.839 114.164 116.823 112.641C115.744 110.991 115.998 110.8 118.918 110.864C119.362 110.927 119.553 110.673 119.362 110.292C119.172 109.975 118.664 109.848 118.283 109.975C116.823 110.483 114.348 108.642 114.157 106.992C114.094 105.722 114.284 105.468 115.173 105.786C115.744 106.039 116.633 106.611 117.077 107.055C117.521 107.499 118.22 107.88 118.6 107.88C118.981 107.88 119.108 107.69 118.918 107.436C118.664 107.245 118.791 106.674 119.235 106.166C119.743 105.532 119.743 105.405 118.981 105.659C118.346 105.912 117.902 105.595 117.648 104.706C117.331 103.5 117.014 103.373 115.236 103.754C113.268 104.199 113.205 104.199 114.221 103.12C114.855 102.548 115.807 102.231 116.379 102.421C117.267 102.802 117.267 102.675 116.506 101.723C115.998 101.088 115.046 100.073 114.411 99.5014C113.776 98.8667 113.522 98.3588 113.903 98.3588C114.919 98.3588 114.157 96.645 112.951 96.2007C112.38 95.9468 111.491 96.1373 110.92 96.5816C109.968 97.3433 109.968 97.2798 110.856 96.1372C111.364 95.439 112.062 94.6773 112.316 94.4869C112.634 94.2964 112.062 93.4712 111.047 92.7095C107.81 90.234 105.842 88.3297 106.223 87.9488C106.477 87.7584 106.286 87.568 105.905 87.568C105.461 87.568 105.144 87.1871 105.144 86.6793C105.144 86.1715 104.255 85.2194 103.176 84.5212C102.097 83.8865 101.335 83.1247 101.462 82.9343C101.716 82.4265 97.463 79.2527 96.9552 79.6335C96.7013 79.7605 96.4474 79.1258 96.3839 78.2371C96.257 76.4598 94.4796 74.7459 93.2736 75.1902C92.8293 75.3172 92.6389 75.0633 92.8928 74.492C93.2736 73.4129 90.7346 71.1278 89.0208 71.0643C88.2591 71.0643 88.0052 70.747 88.2591 70.1122C88.4495 69.6044 88.3225 69.1601 88.0686 69.1601C87.7513 69.1601 85.974 67.7001 84.1332 65.9863C82.2924 64.209 80.388 62.8125 79.9437 62.8125C79.4994 62.8125 79.1186 62.4951 79.1186 62.1777C79.1186 61.2256 74.5483 57.0997 73.9135 57.4805C73.6596 57.671 73.4058 57.3536 73.4058 56.7823C73.4058 56.2745 72.771 55.5128 72.0093 55.132C71.1841 54.8146 69.5972 53.9894 68.3912 53.3546L66.2965 52.2121L68.7086 49.7365C70.105 48.4035 72.4537 46.2454 73.9771 45.0393C75.5005 43.8333 77.3413 42.2464 78.103 41.4847C78.8012 40.723 80.0707 39.9613 80.8959 39.7074C81.6576 39.4535 82.2924 38.8187 82.2924 38.3109C82.2924 37.8031 82.4827 37.4858 82.8001 37.6127C83.054 37.8031 83.8158 37.3588 84.4506 36.724C85.2123 36.0258 85.3392 35.518 84.8949 35.518C84.4505 35.518 84.2601 35.2641 84.4506 34.9467C84.641 34.6293 85.3391 34.5024 85.9739 34.6293C86.6087 34.8197 87.9417 34.1215 89.2747 32.979C90.4807 31.8999 92.258 30.8208 93.2101 30.6304C94.1623 30.44 95.3049 29.8687 95.6857 29.4243C96.0666 28.9165 96.7013 28.5357 97.0821 28.5357C97.3995 28.5357 98.1613 28.0279 98.7326 27.3931C99.8751 26.1871 103.874 23.8385 103.874 24.4097C103.874 24.6002 105.207 24.0289 106.794 23.1402C108.381 22.2516 109.523 21.8073 109.27 22.1246C109.079 22.5055 110.285 22.3151 111.935 21.8073C113.586 21.236 115.871 20.7282 116.887 20.6012C119.489 20.3473 124.25 18.3796 123.869 17.7448C123.678 17.4274 124.123 17.0466 124.821 16.7927C126.408 16.2849 126.471 15.2058 125.011 15.2058C124.186 15.1423 124.377 14.8884 125.646 14.1902C126.598 13.6824 127.36 12.9841 127.36 12.6033C127.36 12.2224 127.106 12.0955 126.852 12.2859C126.535 12.4763 125.9 12.032 125.456 11.3338C124.44 9.93732 122.599 9.68342 123.107 11.0164C123.361 11.6512 123.107 11.7781 122.219 11.5877C121.266 11.3338 121.139 11.0799 121.711 10.3816C122.472 9.49299 126.281 9.36607 125.71 10.2547C125.519 10.5086 125.837 10.5721 126.408 10.3816C127.106 10.0643 127.233 9.74688 126.725 9.1756C126.218 8.54084 126.217 8.22351 126.852 8.03308C127.297 7.90613 127.043 7.84259 126.344 7.96954C125.519 8.09649 124.821 7.84261 124.631 7.27133C124.377 6.70005 124.567 6.50967 125.202 6.76357C126.344 7.2079 126.344 5.7479 125.138 4.16101C124.504 3.33582 123.805 3.08195 122.663 3.39933C121.52 3.65323 121.013 3.5263 121.013 3.01849C121.013 2.51069 120.822 2.44718 120.505 2.82803C119.933 3.71669 118.727 3.65323 117.839 2.76457C117.267 2.19329 117.267 1.8759 117.839 1.55852C118.283 1.30462 118.854 1.49503 119.172 1.93936C119.679 2.70107 119.806 2.70107 120.314 1.93936C120.695 1.36808 121.013 1.30463 121.266 1.81244C121.52 2.19329 122.092 2.51066 122.472 2.51066C122.917 2.51066 122.663 2.06633 122.028 1.55852C121.393 1.05072 120.632 0.796814 120.314 0.923765C120.06 1.11419 119.68 0.98724 119.426 0.606387C118.854 -0.282272 116.569 -0.155274 116.506 0.733384ZM116.569 4.47838C116.569 5.36704 115.49 5.11314 115.109 4.16101C114.855 3.52625 115.046 3.33589 115.681 3.58979C116.125 3.78021 116.569 4.16101 116.569 4.47838ZM124.567 5.17668C124.821 5.55753 124.758 5.68448 124.377 5.49406C123.996 5.24015 123.361 5.49401 122.917 6.00181C122.092 7.01742 120.695 6.63659 121.393 5.62098C121.584 5.3036 122.028 5.17663 122.345 5.36706C122.663 5.62096 122.917 5.43052 122.917 5.11314C122.917 4.16101 123.996 4.22454 124.567 5.17668ZM104.318 7.96954C104.128 8.15997 103.557 8.22351 103.112 8.03308C102.605 7.84265 102.795 7.65217 103.493 7.65217C104.191 7.58869 104.572 7.77912 104.318 7.96954ZM110.476 8.16C110.666 8.47738 110.412 8.85825 109.904 9.04868C109.333 9.30258 109.143 9.11214 109.396 8.47738C109.777 7.46177 110.031 7.39829 110.476 8.16ZM105.461 9.49297C105.271 9.81035 105.398 10.1277 105.715 10.1277C106.096 10.1277 106.413 10.3816 106.413 10.699C106.413 11.0164 105.778 11.2703 105.017 11.1433C104.191 11.0799 103.557 10.7625 103.557 10.3816C103.557 10.0643 103.747 9.87387 104.064 9.93735C104.318 10.0643 104.509 9.81035 104.509 9.49297C104.509 9.11212 104.826 8.85822 105.207 8.85822C105.524 8.85822 105.651 9.11212 105.461 9.49297ZM119.933 9.36605C120.949 9.81038 120.949 9.93734 120.06 11.2703C119.489 12.032 118.537 12.6668 117.966 12.6033C117.077 12.6033 117.077 12.4764 117.839 12.159C119.235 11.5242 119.362 9.61997 118.029 9.30259C117.267 9.11217 117.204 8.98522 117.839 8.98522C118.347 8.98522 119.299 9.17563 119.933 9.36605ZM114.665 12.159C115.236 12.3494 115.3 12.6033 114.855 12.8572C114.03 13.365 112.126 11.7147 112.126 10.5721C112.189 10.1278 112.507 10.2547 112.951 10.8259C113.395 11.3972 114.157 11.9686 114.665 12.159ZM101.97 11.6512C101.97 11.7781 101.525 12.032 101.018 12.2859C100.51 12.4763 100.066 12.3494 100.066 12.032C100.066 11.6511 100.51 11.3972 101.018 11.3972C101.525 11.3972 101.97 11.5242 101.97 11.6512ZM94.3527 12.9207C94.3527 13.0476 93.5275 13.3016 92.5119 13.4285C91.4328 13.5555 90.7346 13.492 90.925 13.1746C91.2424 12.6668 94.3527 12.4129 94.3527 12.9207ZM123.107 14.3171C122.853 15.0153 122.536 15.0788 121.901 14.5076C120.822 13.6189 121.33 12.6033 122.599 13.0476C123.044 13.238 123.298 13.8093 123.107 14.3171ZM98.796 14.2536C99.1134 14.0632 99.4943 14.1902 99.7482 14.571C99.9386 14.8884 99.6847 15.2058 99.1769 15.2058C98.6056 15.2058 98.1613 15.3963 98.1613 15.6502C98.1613 15.9675 97.1457 16.1579 95.9396 16.1579C94.7336 16.1579 93.718 15.9041 93.718 15.6502C93.718 15.3328 93.4006 15.3327 92.9562 15.5866C92.5754 15.8405 92.4485 15.7771 92.7024 15.3328C92.8928 14.9519 94.1623 14.7615 95.4952 14.8884C97.3995 15.0788 97.5899 15.0154 96.4474 14.571C94.4162 13.7458 94.6066 13.1746 96.6378 13.9363C97.5265 14.3171 98.4787 14.4441 98.796 14.2536ZM96.5744 17.8718C96.8918 17.6179 96.8917 17.7449 96.6378 18.1892C96.3839 18.6335 95.8127 18.8239 95.3049 18.6335C94.7971 18.3796 94.1623 18.697 93.9719 19.2682C93.7815 19.8395 92.8928 20.2838 92.0676 20.2838C90.4807 20.2838 89.9729 21.236 91.3693 21.7438C91.7502 21.8708 91.1155 21.9342 89.9094 21.8707C87.3069 21.6803 86.2913 22.1247 87.4339 22.9499C88.0686 23.3942 87.9417 23.4576 86.9896 23.1402C85.7835 22.8229 85.6566 23.0133 85.847 24.5367C85.9739 25.5524 85.9105 25.9332 85.7201 25.4889C85.4027 24.8541 85.1487 24.8541 84.3236 25.4889C83.5618 26.1236 83.4349 26.1236 83.8158 25.4889C84.1332 24.9811 83.8157 24.7271 82.8001 24.7271C81.4671 24.7271 79.4994 26.6949 79.436 28.1548C79.436 28.4722 79.0551 28.8531 78.6107 29.0435C77.9125 29.2339 77.8491 29.0435 78.4204 28.0279C78.8012 27.3931 78.9282 26.6314 78.7377 26.5045C78.6108 26.314 79.436 25.4253 80.642 24.4732C82.9271 22.7594 83.9427 22.3785 83.2445 23.4576C83.0541 23.775 83.4349 24.0924 84.1966 24.0924C84.9583 24.0924 85.4027 23.8385 85.2122 23.5846C84.7044 22.7594 88.5129 20.1569 89.4651 20.6012C89.8459 20.8551 89.6555 20.5377 89.0208 20.0299C88.0052 19.2047 87.6243 19.2048 87.2434 19.8395C86.926 20.2839 86.7357 19.903 86.7357 18.7604C86.7357 16.9831 86.7991 16.9831 87.5608 18.0622C88.1955 18.8874 88.5765 19.0143 88.8938 18.443C89.1478 18.0622 89.9094 17.8718 90.6077 18.0622C91.2424 18.3161 92.4484 17.9987 93.2101 17.4274C94.4797 16.5388 94.7336 16.5388 95.3683 17.4274C95.7492 17.9352 96.3205 18.1257 96.5744 17.8718ZM102.351 19.5856C102.16 19.903 101.462 20.2839 100.827 20.4108C100.066 20.6647 99.6846 20.3473 99.6212 19.5222C99.5577 18.697 99.8116 18.3796 100.383 18.6335C100.891 18.8239 101.272 18.7605 101.272 18.5066C101.081 17.237 101.462 16.9197 102.033 17.9353C102.351 18.5065 102.541 19.2682 102.351 19.5856ZM120.187 18.1256C119.997 18.3161 119.426 18.3796 118.981 18.1892C118.473 17.9988 118.664 17.8083 119.362 17.8083C120.06 17.7448 120.441 17.9352 120.187 18.1256ZM115.49 19.2048C113.967 19.5222 112.761 20.0934 112.761 20.3473C112.761 20.6647 112.126 20.9186 111.364 20.8551C110.412 20.8551 110.222 20.7282 110.856 20.4743C111.364 20.2839 111.999 19.776 112.253 19.3952C112.507 18.9508 113.903 18.6335 115.427 18.6335L118.156 18.57L115.49 19.2048ZM14.6908 24.0289C14.5004 24.4098 15.2621 24.4733 16.5951 24.2828C17.9281 24.0924 18.8167 24.2194 18.8167 24.6002C18.8167 25.4889 21.8001 25.9332 22.5618 25.1715C23.26 24.4733 23.1965 25.8697 22.4348 27.0758C22.054 27.6471 21.5462 27.7105 20.3402 27.1392C19.1976 26.6314 18.6263 26.568 18.3089 27.0758C17.9915 27.5201 17.3568 27.5201 16.2777 27.1392L14.6908 26.5679L16.2777 25.6158C17.1664 25.0445 17.3568 24.7906 16.722 24.981C15.3255 25.4254 11.8344 24.7271 11.8344 24.0289C11.8344 23.7115 12.5961 23.4576 13.4848 23.4576C14.3734 23.4576 14.9447 23.7115 14.6908 24.0289ZM81.975 26.6314C81.7846 26.9488 81.2768 27.2661 80.9594 27.2661C80.5785 27.2661 80.515 26.9488 80.7055 26.6314C80.8959 26.2505 81.4037 25.9966 81.7211 25.9966C82.1019 25.9966 82.1654 26.2505 81.975 26.6314ZM28.2111 28.2183C28.4015 28.4087 27.7668 28.5357 26.8146 28.5357C25.8625 28.5357 24.593 28.7896 24.0217 29.107C23.3869 29.4243 22.3714 29.4243 21.6731 29.107C20.5306 28.5992 20.5305 28.5357 21.8635 28.7896C22.9426 28.98 23.26 28.853 23.0061 28.2183C22.7522 27.5835 23.3235 27.3931 25.2912 27.647C26.7512 27.7739 28.0207 28.0279 28.2111 28.2183ZM11.7074 28.6627C12.0883 28.7261 12.4692 28.98 12.4692 29.2974C12.4692 29.9322 10.2475 29.4244 8.66063 28.4087C7.9624 27.9644 8.15283 27.9009 9.29539 28.2183C10.184 28.4722 11.2631 28.6627 11.7074 28.6627ZM77.2143 28.5357C77.2143 28.853 76.3891 29.1704 75.31 29.1704C74.2944 29.1704 73.4058 28.853 73.4058 28.5357C73.4058 28.1548 74.2944 27.9009 75.31 27.9009C76.3891 27.9009 77.2143 28.1548 77.2143 28.5357ZM18.182 29.4243C18.182 29.5513 18.3724 30.2496 18.5628 30.8843C18.8802 31.8999 18.8167 31.8999 18.055 31.0112C17.6107 30.4399 16.7855 29.8687 16.2777 29.6148C15.643 29.3609 15.7699 29.2339 16.7855 29.2339C17.5472 29.1704 18.182 29.2974 18.182 29.4243ZM27.0686 30.186C27.0686 30.313 26.6242 30.4399 26.1164 30.4399C25.6086 30.4399 25.1643 30.186 25.1643 29.8052C25.1643 29.4878 25.6086 29.3608 26.1164 29.5513C26.6242 29.8052 27.0686 30.0591 27.0686 30.186ZM74.9927 31.0747C75.1831 31.3921 74.9292 31.7094 74.3579 31.7094C73.7866 31.7094 73.5327 31.3921 73.7232 31.0747C73.9136 30.6938 74.231 30.4399 74.3579 30.4399C74.4849 30.4399 74.8022 30.6938 74.9927 31.0747ZM21.3558 32.0903C21.3558 32.2172 20.9114 32.3442 20.4036 32.3442C19.8958 32.3442 19.4515 32.0903 19.4515 31.7094C19.4515 31.3921 19.8958 31.2651 20.4036 31.4555C20.9114 31.7094 21.3558 31.9633 21.3558 32.0903ZM12.4692 32.0903C12.4692 32.5981 11.2631 32.9155 10.9457 32.4712C10.7553 32.1538 11.0092 31.8999 11.517 31.8999C12.0248 31.8999 12.4692 32.0268 12.4692 32.0903ZM29.6076 32.3442C29.0998 32.6616 28.2111 32.9155 27.7033 32.9155C27.0686 32.9155 27.1955 32.7251 28.0207 32.3442C29.7345 31.5825 30.7502 31.5825 29.6076 32.3442ZM16.9125 32.5981C16.9125 32.7251 16.4682 33.0424 15.8969 33.2329C15.3891 33.4233 15.1351 33.3598 15.3256 32.979C15.7064 32.3442 16.9125 32.0903 16.9125 32.5981ZM31.5119 32.979C31.5119 33.2963 31.1945 33.6137 30.8136 33.6137C30.4963 33.6137 30.3693 33.2963 30.5597 32.979C30.7502 32.5981 31.0675 32.3442 31.2579 32.3442C31.3849 32.3442 31.5119 32.5981 31.5119 32.979ZM72.771 32.979C73.2788 33.2963 73.4693 33.6137 73.0884 33.6137C72.771 33.6137 72.0093 33.2963 71.5015 32.979C70.9937 32.6616 70.8668 32.3442 71.1841 32.3442C71.565 32.3442 72.2632 32.6616 72.771 32.979ZM24.5295 34.2485C24.5295 34.8198 22.5617 35.7084 22.1809 35.2641C21.9905 35.0736 22.2444 34.5659 22.6887 34.0581C23.5774 33.106 24.5295 33.2329 24.5295 34.2485ZM33.7335 34.2485C33.5431 34.5658 33.0353 34.8832 32.7179 34.8832C32.3371 34.8832 32.2736 34.5658 32.464 34.2485C32.6544 33.8676 33.1622 33.6137 33.4796 33.6137C33.8604 33.6137 33.9239 33.8676 33.7335 34.2485ZM36.9073 34.2485C37.0977 34.5658 37.0342 34.8832 36.6534 34.8832C36.336 34.8832 35.8282 34.5658 35.6378 34.2485C35.4473 33.8676 35.5108 33.6137 35.8917 33.6137C36.2091 33.6137 36.7169 33.8676 36.9073 34.2485ZM69.5338 35.3276C68.2008 37.1049 68.0738 37.1684 68.5181 36.0258C68.772 35.3276 68.5181 34.8833 67.8199 34.6928C67.2486 34.5024 67.566 34.3754 68.5816 34.3119C70.232 34.2485 70.2955 34.3755 69.5338 35.3276ZM32.7814 36.2162C32.7814 36.5336 33.1622 36.6606 33.6065 36.4067C33.9874 36.1528 34.1143 36.2162 33.8604 36.4701C33.0352 37.4222 31.5119 37.3588 31.5119 36.4067C31.5119 35.8988 31.8292 35.518 32.1466 35.518C32.5275 35.518 32.7814 35.8353 32.7814 36.2162ZM22.054 37.4857L23.5774 38.7552L21.9905 38.3109C21.1019 38.1205 19.9593 37.5492 19.4515 37.0414C17.8646 35.518 20.3401 35.8988 22.054 37.4857ZM40.6524 36.724C40.9063 37.0414 40.5889 37.2318 40.0811 37.1683C38.7481 36.9779 38.1133 36.1527 39.3193 36.1527C39.8906 36.1527 40.4619 36.4067 40.6524 36.724ZM28.3381 37.2953C28.3381 37.5492 27.7033 37.8666 26.9416 37.8666C25.799 37.9936 25.6721 37.8666 26.4338 37.4222C27.5764 36.6605 28.3381 36.5971 28.3381 37.2953ZM66.8043 38.184C66.8678 38.8822 66.6139 39.1361 65.9156 38.8822C65.4078 38.6283 65.0904 38.7552 65.3443 39.0726C65.5348 39.4535 65.154 39.7709 64.4557 39.7709C63.821 39.8344 63.2497 39.4535 63.2497 38.9457C63.2497 38.4379 63.8209 38.057 64.5826 38.057C65.3444 38.057 65.7252 37.8031 65.4079 37.3588C65.154 36.9145 65.3444 36.7241 65.7887 36.9145C66.233 37.0414 66.6773 37.6127 66.8043 38.184ZM33.0353 39.0726C33.5431 40.4691 33.543 40.5961 32.6544 40.4057C32.21 40.2787 32.4639 40.4691 33.2891 40.8499C34.0508 41.1673 34.6856 41.7386 34.6856 42.056C34.6856 42.3734 34.0508 42.4368 33.2891 42.1829C32.4639 41.9925 31.5119 41.7386 31.1945 41.7386C30.3058 41.6117 30.3058 39.1361 31.131 38.5648C32.1466 37.8666 32.591 37.93 33.0353 39.0726ZM29.798 41.2942C29.5441 42.1829 29.7345 42.5638 30.3058 42.5003C31.8927 42.2464 32.7814 42.5003 32.7814 43.1351C32.7814 43.8968 30.2423 43.9603 29.2902 43.2621C28.9728 43.0082 28.6555 41.9291 28.6555 40.7865C28.6555 39.39 28.8459 38.9457 29.3537 39.39C29.798 39.7074 29.9884 40.596 29.798 41.2942ZM43.3183 39.8978C43.0644 40.2152 43.2548 40.5961 43.6357 40.723C44.9687 41.1674 43.001 43.9603 41.6045 43.5794C40.9697 43.389 40.208 43.5159 40.0176 43.8333C39.8272 44.2141 39.3194 44.1507 38.7481 43.7064C38.0499 43.1351 37.8594 43.1985 37.8594 43.8333C37.7959 44.9124 35.3839 41.8656 35.3204 40.723C35.3204 40.1517 35.6378 40.0882 36.5265 40.596C38.1768 41.4212 39.3194 41.4212 38.7481 40.4691C38.4307 39.9613 38.6211 39.8978 39.3193 40.1517C39.8906 40.3422 41.0332 40.2787 41.7949 39.9613C43.0644 39.4535 43.5722 39.4323 43.3183 39.8978ZM48.2694 42.056C47.6982 42.3734 46.9364 42.3099 46.4286 41.8655C45.0322 40.723 45.9208 39.9613 47.6347 40.7865C48.9042 41.4212 49.0312 41.6117 48.2694 42.056ZM61.7262 42.8811C61.155 43.3889 60.7107 44.1507 60.7107 44.468C60.7107 44.7854 60.4567 45.0393 60.0759 45.0393C59.7585 45.0393 59.4411 44.7854 59.4411 44.468C59.4411 43.5159 62.2975 40.596 62.4879 41.2308C62.6149 41.6116 62.2341 42.3099 61.7262 42.8811ZM44.7783 43.2621C44.207 44.4681 44.207 44.595 44.9052 43.8968C45.9208 42.9447 47.3808 42.8811 47.3808 43.8333C47.3808 44.1507 47.1269 44.3411 46.8095 44.1507C46.4921 43.8967 46.3651 44.595 46.4921 45.6741C46.746 47.1975 46.619 47.5149 45.8573 47.1975C45.2861 47.0071 44.8417 46.5628 44.8417 46.2454C44.8417 45.928 44.1435 45.801 43.2549 45.928C42.3662 46.1184 41.668 45.928 41.668 45.6106C41.668 45.2932 42.0488 45.0393 42.4931 45.0393C43.0009 45.0393 43.6991 44.3411 44.08 43.4524C44.4608 42.5638 44.9687 41.8655 45.1591 41.8655C45.3495 41.8655 45.1591 42.5003 44.7783 43.2621ZM49.158 44.2142C49.0311 44.7855 48.3964 45.2932 47.6981 45.4202C46.4921 45.6106 46.4921 45.5471 47.5077 44.7854C48.1424 44.3411 48.4598 43.7699 48.2059 43.5794C48.0155 43.3255 48.1425 43.1351 48.5868 43.1351C49.0312 43.1351 49.285 43.5794 49.158 44.2142ZM51.6336 44.7854C51.4432 44.9758 50.8719 45.0394 50.4276 44.8489C49.9197 44.6585 50.1102 44.468 50.8085 44.468C51.5067 44.4046 51.8875 44.595 51.6336 44.7854ZM48.4598 49.1652C48.4598 49.673 48.2059 50.1174 47.8885 50.1174C47.2538 50.1174 47.1903 49.2288 47.8251 48.6575C48.3963 48.0227 48.4598 48.0862 48.4598 49.1652ZM41.0332 49.5461C41.0332 49.8635 41.2871 49.9904 41.668 49.8C41.9853 49.6096 42.1123 49.8 41.9853 50.2444C41.6045 51.133 39.1289 51.4504 39.1289 50.6252C39.1289 50.3713 39.4463 50.1174 39.8272 50.1174C40.1445 50.1174 40.2715 49.8 40.0811 49.4826C39.8906 49.1018 40.0176 48.8479 40.335 48.8479C40.7158 48.8479 41.0332 49.1652 41.0332 49.5461ZM42.6201 52.6564C42.8105 52.9738 42.6836 53.2912 42.3662 53.2912C41.9853 53.2912 41.668 52.9738 41.668 52.6564C41.668 52.2755 41.7949 52.0216 41.9219 52.0216C42.1123 52.0216 42.4297 52.2755 42.6201 52.6564ZM44.8417 53.0372C44.8417 53.545 44.5878 53.799 44.207 53.6085C43.8896 53.4181 43.5722 52.9738 43.5722 52.5929C43.5722 52.2756 43.8896 52.0216 44.207 52.0216C44.5878 52.0216 44.8417 52.466 44.8417 53.0372ZM63.821 59.8926C62.9323 60.9082 62.0436 61.2891 61.1549 61.0987C60.224 60.8871 60.1817 61.1198 61.028 61.7969C62.1071 62.6856 62.1706 62.749 61.1549 62.4317C59.8854 61.9873 56.9021 63.2569 56.9021 64.2725C56.9021 64.5899 57.4099 64.6533 58.0446 64.3994C58.8698 64.082 58.9333 64.2089 58.362 64.7802C57.4099 65.7324 56.3308 65.0341 56.4577 63.4473C56.5212 62.8125 56.7117 62.3047 56.9021 62.3047C58.1082 62.4317 58.8064 62.1143 58.489 61.6064C58.0447 60.8447 59.3142 60.0831 61.3454 59.7657C62.2341 59.6388 63.1862 59.3214 63.5671 58.9405C64.8366 57.671 65.0905 58.4327 63.821 59.8926ZM46.1113 60.4005C46.0478 62.4952 43.3818 63.5742 42.6836 61.7969C42.4297 61.0987 42.5566 60.8448 43.1914 61.0987C43.8261 61.3526 44.0165 61.1622 43.7626 60.5274C43.5722 59.9561 43.8896 59.6387 44.7783 59.6387C45.54 59.6387 46.1113 60.0196 46.1113 60.4005ZM65.1539 61.1622C65.1539 61.2891 64.7096 61.543 64.2018 61.7969C63.694 61.9873 63.2497 61.8604 63.2497 61.543C63.2497 61.1621 63.694 60.9082 64.2018 60.9082C64.7096 60.9082 65.1539 61.0352 65.1539 61.1622ZM41.4775 63.0664C41.2236 63.7647 41.414 63.8916 42.1757 63.6377C42.9374 63.3838 43.0644 63.4473 42.6201 63.9551C42.3027 64.3359 41.1602 64.7803 40.0811 64.9707C39.002 65.2246 38.6211 65.1611 39.1924 64.9072C39.7637 64.5899 40.1446 63.8916 40.0176 63.2569C39.9541 62.6221 40.2715 62.1777 40.8427 62.1777C41.414 62.1777 41.6679 62.5586 41.4775 63.0664ZM68.9625 62.8125C68.9625 63.1299 68.8355 63.4473 68.7086 63.4473C68.5181 63.4473 68.2008 63.1299 68.0103 62.8125C67.8199 62.4316 67.9469 62.1777 68.2643 62.1777C68.6451 62.1777 68.9625 62.4316 68.9625 62.8125ZM41.668 65.9228C41.668 66.2402 42.3027 66.3672 43.0644 66.1133C43.9531 65.9229 44.2704 66.0498 43.9531 66.4941C43.7626 66.875 42.6836 67.3193 41.668 67.5732C40.6524 67.8271 39.6367 68.2714 39.4463 68.5888C38.7481 69.6044 37.9229 69.2235 38.0498 67.8905C38.1133 67.1288 38.4942 66.748 38.875 66.875C39.3193 67.0654 39.8272 66.748 40.0176 66.2402C40.3985 65.2881 41.668 65.0342 41.668 65.9228ZM76.8335 65.9228C77.0874 66.2402 76.643 66.3672 75.9448 66.1767C74.4849 65.7959 74.2944 65.3515 75.564 65.3515C76.0718 65.3515 76.6431 65.6054 76.8335 65.9228ZM80.7055 65.9863C80.8959 66.3671 80.642 66.4306 80.1342 66.2402C78.9916 65.7959 78.8012 65.3515 79.6899 65.3515C80.0707 65.3515 80.515 65.6054 80.7055 65.9863ZM37.8594 69.9853C37.8594 70.2392 38.1133 70.3661 38.3672 70.1757C38.6211 70.0487 39.2558 70.1122 39.6367 70.3661C40.208 70.6835 39.5732 71.1913 37.9229 71.8261C35.5108 72.7782 35.4473 72.7782 35.0665 71.5087C34.8761 70.8105 34.8761 69.9853 35.0665 69.7314C35.4473 69.0966 37.8594 69.287 37.8594 69.9853ZM69.9146 69.7948C69.7242 70.1122 69.0259 70.4296 68.4546 70.4296C67.5025 70.4296 67.5025 70.3026 68.3277 69.7948C69.5972 68.9696 70.4224 68.9696 69.9146 69.7948ZM67.439 71.8261C68.2431 72.7994 68.2219 72.9475 67.3756 72.2704C66.6774 71.6356 65.5348 71.0644 64.8366 70.874C63.6305 70.62 63.6305 70.5565 64.9 70.493C65.5983 70.493 66.7408 71.0644 67.439 71.8261ZM79.5629 70.8104C79.3725 71.0008 78.8012 71.0644 78.3568 70.874C77.849 70.6835 78.0395 70.493 78.7377 70.493C79.436 70.4296 79.8168 70.62 79.5629 70.8104ZM87.18 70.8104C86.9895 71.0008 86.4182 71.0644 85.9739 70.874C85.4661 70.6835 85.6566 70.493 86.3548 70.493C87.0531 70.4296 87.4339 70.62 87.18 70.8104ZM34.6856 71.6991C34.6856 72.0165 34.5587 72.3338 34.4317 72.3338C34.2413 72.3338 33.9239 72.0165 33.7335 71.6991C33.5431 71.3182 33.67 71.0643 33.9874 71.0643C34.3683 71.0643 34.6856 71.3182 34.6856 71.6991ZM75.6274 72.3338C75.8813 72.7147 75.2465 72.9686 74.2309 72.9686C72.8344 72.9686 72.6441 72.8417 73.4058 72.3338C74.6118 71.5721 75.1196 71.5721 75.6274 72.3338ZM34.5586 74.5555C34.6856 74.6824 33.9874 75.5076 33.0988 76.5232C31.3849 78.364 31.3214 79.697 32.9718 79.5701C33.543 79.5066 33.8605 79.697 33.67 80.0144C33.2257 80.7761 29.798 80.7126 29.2902 80.0144C29.0998 79.6335 29.6076 79.0623 30.3693 78.618C31.3002 78.1101 31.3637 77.687 30.5597 77.3484C29.4172 76.9041 29.4171 76.8406 30.4327 76.8406C31.0675 76.7771 31.4484 76.5232 31.2579 76.2058C31.0675 75.8885 31.3849 75.4441 31.9562 75.2537C32.9083 74.8729 32.9083 74.7459 32.1466 74.1747C31.4484 73.6668 31.6388 73.6033 32.7814 73.9842C33.67 74.1746 34.4317 74.492 34.5586 74.5555ZM70.232 74.2381C70.232 74.5555 69.5972 74.8729 68.8355 74.8729C67.6294 74.8729 67.566 74.7459 68.3277 74.2381C69.5338 73.4129 70.232 73.4129 70.232 74.2381ZM79.9437 74.1747C80.1976 74.2381 80.3881 74.492 80.3881 74.8094C80.3881 75.4442 77.976 74.9998 77.5317 74.2381C77.3413 73.9207 77.7221 73.7938 78.2934 73.9207C78.9281 74.0477 79.6263 74.1747 79.9437 74.1747ZM36.9707 76.0155C36.9707 76.6502 36.4629 77.158 35.8282 77.158C34.8125 77.158 34.8126 77.0311 35.7647 76.0155C36.336 75.3807 36.8438 74.8729 36.8438 74.8729C36.9073 74.8729 36.9707 75.3807 36.9707 76.0155ZM72.9614 76.3328C73.2153 76.1424 73.4058 76.2694 73.4058 76.6502C73.4058 77.5389 73.2788 77.5389 71.8823 77.0311C71.3111 76.8406 70.8668 76.3328 70.8668 76.0155C70.8668 75.5711 71.1841 75.6346 71.6919 76.0789C72.1997 76.4598 72.771 76.5867 72.9614 76.3328ZM84.1966 75.7615C84.1966 76.3328 81.6576 76.5867 81.2768 76.0789C81.0863 75.7615 81.6576 75.5076 82.5463 75.5076C83.4349 75.5076 84.1966 75.6346 84.1966 75.7615ZM39.8272 77.285C39.3828 77.4119 38.6846 77.2215 38.3672 76.9041C37.8594 76.3963 38.1133 76.3329 39.1924 76.5868C40.0176 76.8407 40.335 77.0946 39.8272 77.285ZM89.2747 78.0467C89.2747 78.364 89.1477 78.6814 89.0208 78.6814C88.8303 78.6814 88.513 78.364 88.3225 78.0467C88.1321 77.6658 88.2591 77.4119 88.5765 77.4119C88.9573 77.4119 89.2747 77.6658 89.2747 78.0467ZM28.7189 82.1726C28.5285 82.6804 28.6555 83.1247 28.9728 83.1247C29.3537 83.1247 29.6076 83.3786 29.6076 83.6325C29.6076 83.9499 28.9728 84.1403 28.2111 84.0134C27.3859 83.9499 26.1799 83.8229 25.4817 83.7595C24.593 83.696 24.8469 83.4421 26.3068 83.0612C27.3859 82.7439 28.3381 82.1726 28.3381 81.8552C28.3381 81.4743 28.5285 81.2204 28.7189 81.2204C28.9093 81.2204 28.9728 81.6648 28.7189 82.1726ZM94.9875 83.3786C94.9875 83.5056 94.5432 83.7595 94.0354 84.0134C93.5275 84.2038 93.0832 84.0768 93.0832 83.7595C93.0832 83.3786 93.5275 83.1247 94.0354 83.1247C94.5432 83.1247 94.9875 83.2517 94.9875 83.3786ZM98.796 84.0134C98.796 84.1403 98.3517 84.4577 97.7804 84.6481C97.2726 84.8386 97.0187 84.7751 97.2091 84.3942C97.59 83.7595 98.796 83.5056 98.796 84.0134ZM20.9114 99.9457C20.721 100.517 20.4036 100.834 20.2766 100.644C20.0862 100.454 20.1497 100.073 20.4036 99.6918C20.9749 98.6762 21.3557 98.8667 20.9114 99.9457ZM93.0832 100.517C93.0832 100.644 92.6389 100.961 92.0676 101.152C91.5598 101.342 91.3059 101.279 91.4963 100.898C91.8772 100.263 93.0832 100.009 93.0832 100.517ZM108.762 103.564C108.635 104.326 108.19 105.024 107.746 105.087C107.365 105.151 107.302 105.087 107.683 104.897C108 104.77 108.19 104.326 107.937 104.008C107.746 103.691 107.81 103.12 108 102.802C108.635 101.787 108.952 102.104 108.762 103.564ZM97.4631 104.135C96.0666 105.024 95.3683 104.77 96.257 103.754C96.7013 103.246 97.3361 102.993 97.6534 103.183C98.0343 103.437 97.9709 103.818 97.4631 104.135ZM102.605 105.214C102.605 105.532 102.16 105.786 101.652 105.786C101.145 105.786 100.7 105.532 100.7 105.214C100.7 104.96 101.145 104.706 101.652 104.706C102.16 104.706 102.605 104.96 102.605 105.214ZM108.635 111.689C108.444 112.006 107.873 112.323 107.492 112.323C107.048 112.323 107.111 112.07 107.683 111.689C108.889 110.927 109.143 110.927 108.635 111.689ZM111.174 112.323C111.364 112.641 111.301 112.958 110.92 112.958C110.602 112.958 110.095 112.641 109.904 112.323C109.714 111.943 109.777 111.689 110.158 111.689C110.476 111.689 110.983 111.943 111.174 112.323ZM115.236 112.958C114.411 113.53 112.761 113.085 112.761 112.323C112.761 112.07 113.522 112.006 114.411 112.197C115.49 112.387 115.808 112.641 115.236 112.958ZM112.316 115.18C113.522 115.688 114.728 115.878 115.046 115.624C115.363 115.37 115.173 115.688 114.728 116.259C113.84 117.402 113.142 117.275 110.539 115.243C108.952 114.037 109.46 113.974 112.316 115.18ZM13.5482 115.243C13.3578 115.434 12.7865 115.497 12.3422 115.307C11.8344 115.116 12.0249 114.926 12.7231 114.926C13.4213 114.863 13.8021 115.053 13.5482 115.243ZM108.317 116.132C108.317 116.449 108.19 116.767 108.063 116.767C107.873 116.767 107.556 116.449 107.365 116.132C107.175 115.751 107.302 115.497 107.619 115.497C108 115.497 108.317 115.751 108.317 116.132ZM12.7865 117.909C12.5961 118.1 12.0883 117.909 11.644 117.465C11.0727 116.83 11.1361 116.767 12.0248 117.148C12.6596 117.338 12.977 117.719 12.7865 117.909ZM4.7251 124.193C3.89991 125.209 2.31307 125.273 2.31307 124.32C2.31307 124.003 2.63045 123.876 2.94783 124.066C3.58258 124.447 3.83648 123.622 3.58258 121.845C3.51911 121.21 3.77296 121.274 4.40772 122.162C5.10595 123.051 5.16943 123.686 4.7251 124.193Z" fill="#0000FF"/>
<path fill-rule="evenodd" clip-rule="evenodd" d="M41.6652 41.2308C40.967 41.6752 40.9035 41.9925 41.4113 42.5004C41.9191 43.0082 42.3 42.9447 42.8712 42.2464C43.7599 41.1674 42.9347 40.4691 41.6652 41.2308Z" fill="#0000FF"/>
<path fill-rule="evenodd" clip-rule="evenodd" d="M10.3079 19.4591C10.1175 19.9669 10.3079 20.2843 10.7522 20.1573C11.1331 20.0939 12.0852 20.3478 12.7835 20.7286C13.4817 21.1095 14.6243 21.1729 15.3225 20.919C16.4651 20.4747 16.465 20.3477 15.5129 19.9669C14.9416 19.713 14.1165 19.7764 13.6721 20.0303C13.2278 20.2842 13.1008 20.2208 13.2912 19.8399C13.5451 19.4591 13.0374 19.0148 12.1487 18.8878C11.1966 18.6974 10.4983 18.8878 10.3079 19.4591Z" fill="#0000FF"/>
<path fill-rule="evenodd" clip-rule="evenodd" d="M45.1578 36.0893C44.9674 36.4067 45.0943 36.851 45.4752 37.1049C45.7926 37.2954 46.1099 37.0414 46.1099 36.5336C46.1099 35.3911 45.7291 35.2007 45.1578 36.0893Z" fill="#0000FF"/>
<path fill-rule="evenodd" clip-rule="evenodd" d="M34.0535 48.2136C33.3553 48.7214 33.5456 48.7849 34.8786 48.4675C35.9577 48.2136 36.5925 48.3406 36.5925 48.7849C36.5925 49.1658 36.9099 49.4831 37.2907 49.4831C37.7985 49.4831 37.7986 49.1657 37.2273 48.531C36.3386 47.4519 35.3865 47.325 34.0535 48.2136Z" fill="#0000FF"/>
<path fill-rule="evenodd" clip-rule="evenodd" d="M18.8155 90.4248C18.1807 91.1865 18.1808 91.3769 19.0694 91.3769C19.6407 91.3769 20.085 90.9326 20.085 90.4248C20.085 89.917 19.958 89.4727 19.8311 89.4727C19.7041 89.4727 19.2598 89.917 18.8155 90.4248Z" fill="#0000FF"/>
<path fill-rule="evenodd" clip-rule="evenodd" d="M16.5957 93.2804C15.8339 93.5978 15.707 93.8517 16.2148 93.8517C16.8496 93.9152 16.4052 94.7403 15.0088 96.1368C13.8027 97.3428 12.9775 98.3584 13.168 98.4219C14.9453 98.6758 17.6748 98.7393 17.1669 98.5489C16.1513 98.2315 16.8495 95.8194 17.9286 95.8194C19.0077 95.8194 19.0712 94.7404 18.0555 94.3595C17.4208 94.1056 17.4843 93.8517 18.1825 93.3438C19.3251 92.5187 18.373 92.5187 16.5957 93.2804Z" fill="#0000FF"/>
<path fill-rule="evenodd" clip-rule="evenodd" d="M20.0876 93.282C19.5798 93.5993 19.3259 94.0437 19.5163 94.2341C19.7703 94.4245 20.2781 94.1706 20.7224 93.5993C21.6111 92.5203 21.4206 92.3933 20.0876 93.282Z" fill="#0000FF"/>
<path fill-rule="evenodd" clip-rule="evenodd" d="M14.0504 100.264C14.2408 100.581 14.5582 100.898 14.7486 100.898C14.8756 100.898 15.0025 100.581 15.0025 100.264C15.0025 99.8828 14.6852 99.6289 14.3043 99.6289C13.9869 99.6289 13.86 99.8828 14.0504 100.264Z" fill="#0000FF"/>
<path d="M13.1035 102.803C13.4541 102.803 13.7383 102.519 13.7383 102.168C13.7383 101.817 13.4541 101.533 13.1035 101.533C12.7529 101.533 12.4688 101.817 12.4688 102.168C12.4688 102.519 12.7529 102.803 13.1035 102.803Z" fill="#0000FF"/>
<path fill-rule="evenodd" clip-rule="evenodd" d="M97.3367 106.23C97.1462 106.738 97.6541 107.373 98.5427 107.817C99.7488 108.389 100.066 108.325 100.066 107.563C100.066 107.056 99.7488 106.611 99.3679 106.611C99.0506 106.611 98.9236 106.294 99.114 105.977C99.3044 105.596 99.114 105.342 98.6062 105.342C98.0984 105.342 97.5271 105.723 97.3367 106.23Z" fill="#0000FF"/>
<path fill-rule="evenodd" clip-rule="evenodd" d="M6.30633 114.164C6.24286 115.052 6.49679 115.306 7.13155 115.052C7.82978 114.798 7.89329 114.481 7.32201 113.846C6.36987 112.704 6.43328 112.704 6.30633 114.164Z" fill="#0000FF"/>
<path fill-rule="evenodd" clip-rule="evenodd" d="M1.29736 131.429C1.10694 131.746 1.29733 132 1.74166 132C2.18599 132 1.86863 132.572 1.04345 133.27C-0.289542 134.412 -0.289542 134.539 0.726068 134.984C1.86863 135.364 1.86865 135.428 0.662608 135.872C-0.289526 136.253 -0.0991612 136.38 1.55121 136.38C2.63029 136.443 3.77287 136.443 4.02677 136.507C4.34415 136.507 4.72502 135.618 4.91544 134.603C5.2963 132.889 5.1059 132.508 3.51901 131.746C2.43993 131.238 1.55127 131.112 1.29736 131.429Z" fill="#0000FF"/>
</svg>
