<svg xmlns="http://www.w3.org/2000/svg" fill="none" viewBox="0 0 163 50">
  <path fill="#000" stroke="#A6A6A6" stroke-width=".48" d="M6.96 49.24h149.08c3.47 0 6.2-2.75 6.2-6.24V7c0-3.5-2.73-6.24-6.2-6.24H6.96A6.16 6.16 0 0 0 .76 7v36c0 3.5 2.73 6.24 6.2 6.24Z"/>
  <path fill="url(#a)" d="M155.97 1H74.33l32.27 48h48.9c1.5 0 3.48-.3 4.88-1.66a5.16 5.16 0 0 0 1.62-4.13V6.4a5.1 5.1 0 0 0-1.62-3.75A6.85 6.85 0 0 0 155.97 1Z"/>
  <path fill="#fff" d="M36.3 23.85c-.04-3.84 3.18-5.71 3.33-5.8a7.2 7.2 0 0 0-5.65-3.01c-2.37-.25-4.67 1.4-5.88 1.4-1.24 0-3.1-1.38-5.1-1.34-2.59.04-5 1.52-6.33 3.81-2.74 4.68-.7 11.55 1.92 15.33 1.31 1.86 2.85 3.92 4.85 3.85 1.96-.08 2.7-1.23 5.06-1.23 2.35 0 3.04 1.23 5.08 1.18 2.1-.03 3.43-1.86 4.7-3.73A15.2 15.2 0 0 0 40.42 30a6.7 6.7 0 0 1-4.12-6.15Zm-3.87-11.3a6.75 6.75 0 0 0 1.58-4.87 7.05 7.05 0 0 0-4.54 2.31c-.97 1.13-1.84 2.97-1.61 4.7 1.71.13 3.47-.86 4.57-2.14Z"/>
  <path fill="#fff" d="M64.7 37.82h-2.73l-1.5-4.66h-5.23l-1.43 4.66h-2.67l5.18-15.86h3.2l5.19 15.86Zm-4.69-6.61-1.36-4.14a52.4 52.4 0 0 1-.8-3h-.06c-.15.68-.4 1.68-.76 3L55.7 31.2H60Zm17.97.75c0 1.95-.53 3.49-1.6 4.62-.96 1-2.15 1.5-3.57 1.5-1.54 0-2.64-.54-3.31-1.62v6h-2.57V30.14c0-1.22-.04-2.47-.1-3.76h2.26l.15 1.82h.05a4.3 4.3 0 0 1 3.9-2.05c1.37 0 2.51.53 3.42 1.6a6.27 6.27 0 0 1 1.37 4.21Zm-2.62.1c0-1.12-.25-2.04-.76-2.76a2.65 2.65 0 0 0-2.24-1.13 2.89 2.89 0 0 0-2.74 2.26c-.07.25-.11.51-.12.78v1.9c0 .84.26 1.54.77 2.11.52.57 1.2.86 2.02.86.97 0 1.72-.37 2.26-1.1.54-.74.81-1.72.81-2.92Zm15.95-.1c0 1.95-.54 3.49-1.6 4.62-.97 1-2.16 1.5-3.58 1.5-1.53 0-2.64-.54-3.3-1.62v6h-2.58V30.14c0-1.22-.03-2.47-.1-3.76h2.27l.14 1.82h.05a4.3 4.3 0 0 1 3.9-2.05c1.37 0 2.51.53 3.43 1.6a6.28 6.28 0 0 1 1.37 4.21Zm-2.63.1c0-1.12-.25-2.04-.76-2.76a2.64 2.64 0 0 0-2.24-1.13 2.88 2.88 0 0 0-2.74 2.26c-.08.32-.12.57-.12.78v1.9c0 .84.26 1.54.77 2.11a2.6 2.6 0 0 0 2.02.86c.97 0 1.72-.37 2.26-1.1.54-.74.81-1.72.81-2.92Zm17.52 1.31c0 1.35-.47 2.45-1.42 3.3-1.05.92-2.5 1.39-4.38 1.39a7.71 7.71 0 0 1-4.16-.99l.6-2.12c1.12.66 2.36 1 3.71 1 .97 0 1.73-.23 2.27-.66.54-.43.8-1 .8-1.72a2.2 2.2 0 0 0-.66-1.63 6.22 6.22 0 0 0-2.22-1.22c-2.8-1.04-4.22-2.55-4.22-4.55a4 4 0 0 1 1.5-3.2c.99-.83 2.3-1.25 3.94-1.25 1.46 0 2.68.25 3.65.76l-.65 2.07a6.44 6.44 0 0 0-3.09-.73c-.9 0-1.62.22-2.13.66-.43.4-.64.87-.64 1.44 0 .62.24 1.14.74 1.55.42.38 1.2.78 2.33 1.22 1.39.55 2.4 1.2 3.05 1.93.66.74.98 1.66.98 2.75Zm8.53-5.08h-2.83v5.56c0 1.4.5 2.11 1.5 2.11.46 0 .84-.04 1.14-.12l.07 1.93a5.9 5.9 0 0 1-2 .29 3.1 3.1 0 0 1-2.38-.92c-.57-.62-.86-1.64-.86-3.09V28.3h-1.69v-1.91h1.69v-2.1l2.53-.75v2.85h2.83v1.91Zm12.78 3.72c0 1.76-.51 3.2-1.53 4.33a5.47 5.47 0 0 1-4.24 1.74c-1.7 0-3.05-.55-4.06-1.67a6.04 6.04 0 0 1-1.52-4.21c0-1.77.52-3.22 1.56-4.35a5.44 5.44 0 0 1 4.21-1.7c1.7 0 3.07.56 4.1 1.67a5.96 5.96 0 0 1 1.48 4.19Zm-2.67.06c0-1.05-.23-1.95-.69-2.7a2.55 2.55 0 0 0-2.31-1.36c-1.03 0-1.82.45-2.36 1.36-.46.75-.7 1.67-.7 2.75 0 1.04.24 1.95.7 2.7a2.6 2.6 0 0 0 2.34 1.36c.98 0 1.75-.47 2.31-1.39a5.1 5.1 0 0 0 .71-2.72Zm11.04-3.45a4.52 4.52 0 0 0-.81-.07c-.9 0-1.6.33-2.1 1.01-.43.6-.64 1.35-.64 2.26v6h-2.58V30c0-1.2-.02-2.4-.07-3.6h2.24l.1 2.18h.06c.28-.75.7-1.36 1.3-1.81.53-.4 1.18-.61 1.85-.61.24 0 .46.01.65.04v2.43Zm11.5 2.94c.02.39-.02.77-.09 1.16h-7.72c.03 1.13.4 2 1.12 2.59.65.53 1.5.8 2.53.8 1.14 0 2.19-.18 3.12-.54l.4 1.76c-1.09.47-2.38.7-3.88.7-1.8 0-3.2-.52-4.23-1.56a5.74 5.74 0 0 1-1.54-4.2 6.5 6.5 0 0 1 1.44-4.3 4.96 4.96 0 0 1 4.05-1.84c1.66 0 2.93.61 3.79 1.83a6.12 6.12 0 0 1 1.02 3.6Zm-2.44-.66a3.4 3.4 0 0 0-.5-1.95 2.26 2.26 0 0 0-2.06-1.06c-.84 0-1.52.34-2.04 1.03a3.77 3.77 0 0 0-.77 1.98h5.37Z"/>
  <path fill="#fff" d="M54.5 16.35c-.71 0-1.33-.04-1.85-.1V8.6c.72-.11 1.45-.17 2.18-.17 2.95 0 4.31 1.44 4.31 3.78 0 2.7-1.6 4.15-4.64 4.15Zm.43-6.94c-.4 0-.73.02-1.01.08v5.83c.15.02.44.03.85.03 1.93 0 3.03-1.08 3.03-3.12 0-1.82-1-2.82-2.87-2.82Zm8.45 7c-1.67 0-2.74-1.23-2.74-2.9 0-1.73 1.1-2.97 2.83-2.97 1.64 0 2.74 1.17 2.74 2.88 0 1.76-1.13 2.99-2.83 2.99Zm.05-4.95c-.92 0-1.5.84-1.5 2.02 0 1.16.6 2 1.48 2 .9 0 1.49-.9 1.49-2.02 0-1.15-.59-2-1.47-2Zm12.27-.8-1.78 5.62h-1.16l-.74-2.44c-.18-.6-.34-1.2-.46-1.82h-.02c-.1.62-.27 1.23-.46 1.82l-.78 2.44h-1.17l-1.68-5.62h1.3l.64 2.67c.16.64.28 1.24.4 1.8h.02c.09-.47.24-1.06.46-1.79l.81-2.68h1.03l.78 2.63c.18.63.34 1.26.45 1.85h.04c.08-.58.21-1.2.38-1.85l.7-2.63h1.24Zm6.55 5.62H81v-3.23c0-1-.39-1.5-1.15-1.5-.75 0-1.26.65-1.26 1.39v3.34H77.3v-4.01c0-.5-.01-1.04-.05-1.61h1.12l.06.86h.03c.34-.6 1.03-.98 1.8-.98 1.2 0 1.98.9 1.98 2.37v3.37Zm3.5 0h-1.27v-8.2h1.26v8.2Zm4.6.13c-1.66 0-2.74-1.23-2.74-2.9 0-1.73 1.1-2.97 2.84-2.97 1.64 0 2.74 1.17 2.74 2.88 0 1.76-1.14 2.99-2.84 2.99Zm.05-4.95c-.91 0-1.5.84-1.5 2.02 0 1.16.6 2 1.49 2s1.49-.9 1.49-2.02c0-1.15-.59-2-1.48-2Zm7.78 4.82-.1-.65h-.03c-.38.52-.95.78-1.66.78-1.02 0-1.75-.7-1.75-1.66 0-1.38 1.22-2.1 3.33-2.1v-.1c0-.75-.4-1.12-1.18-1.12-.56 0-1.06.14-1.49.42l-.26-.82a3.67 3.67 0 0 1 1.96-.49c1.49 0 2.24.78 2.24 2.33v2.07c0 .57.02 1 .08 1.34h-1.14Zm-.18-2.8c-1.4 0-2.1.34-2.1 1.13 0 .6.36.88.86.88.64 0 1.24-.48 1.24-1.14v-.87Zm7.38 2.8-.06-.9h-.03c-.37.68-.98 1.03-1.83 1.03-1.38 0-2.4-1.2-2.4-2.87 0-1.76 1.06-3 2.5-3 .76 0 1.3.26 1.6.77h.03V8.08h1.27v6.69c0 .54.01 1.05.05 1.51h-1.13Zm-.19-3.3c0-.8-.52-1.47-1.33-1.47-.94 0-1.51.83-1.51 1.98 0 1.14.6 1.91 1.48 1.91.8 0 1.36-.68 1.36-1.5v-.93Zm9.3 3.43c-1.66 0-2.74-1.23-2.74-2.9 0-1.73 1.1-2.97 2.83-2.97 1.64 0 2.74 1.17 2.74 2.88 0 1.76-1.13 2.99-2.83 2.99Zm.05-4.95c-.92 0-1.5.84-1.5 2.02 0 1.16.6 2 1.48 2 .9 0 1.49-.9 1.49-2.02 0-1.15-.58-2-1.48-2Zm9.59 4.82h-1.27v-3.23c0-1-.39-1.5-1.15-1.5-.75 0-1.26.65-1.26 1.39v3.34h-1.27v-4.01c0-.5-.01-1.04-.05-1.61h1.12l.06.86h.03c.34-.6 1.03-.98 1.8-.98 1.2 0 1.99.9 1.99 2.37v3.37Zm8.5-4.68h-1.38v2.73c0 .69.24 1.04.73 1.04.23 0 .41-.03.56-.06l.04.95c-.25.1-.57.14-.98.14-1 0-1.6-.55-1.6-1.97V11.6h-.83v-.94h.84V9.63l1.24-.37v1.4h1.39v.94Zm6.7 4.68h-1.26v-3.2c0-1.01-.38-1.52-1.15-1.52-.65 0-1.26.44-1.26 1.33v3.39h-1.27v-8.2h1.27v3.38h.02c.4-.62.98-.92 1.72-.92 1.2 0 1.94.93 1.94 2.4v3.34Zm6.87-2.51h-3.8c.03 1.06.74 1.67 1.8 1.67.56 0 1.07-.1 1.53-.27l.2.87a4.8 4.8 0 0 1-1.91.34c-1.78 0-2.84-1.1-2.84-2.83 0-1.72 1.08-3.02 2.7-3.02 1.45 0 2.36 1.07 2.36 2.67 0 .2 0 .38-.04.57Zm-1.16-.9c0-.86-.44-1.47-1.25-1.47-.73 0-1.3.62-1.39 1.48h2.64Z"/>
  <defs>
    <linearGradient id="a" x1="118.16" x2="118.16" y1="48.3" y2="-118.85" gradientUnits="userSpaceOnUse">
      <stop stop-color="#1A1A1A" stop-opacity=".1"/>
      <stop offset=".12" stop-color="#212121" stop-opacity=".15"/>
      <stop offset=".31" stop-color="#353535" stop-opacity=".23"/>
      <stop offset=".53" stop-color="#575757" stop-opacity=".32"/>
      <stop offset=".78" stop-color="#858585" stop-opacity=".42"/>
      <stop offset="1" stop-color="#B3B3B3" stop-opacity=".51"/>
    </linearGradient>
  </defs>
</svg>
