<svg xmlns="http://www.w3.org/2000/svg" fill="none" viewBox="0 0 163 50">
  <path fill="#000" stroke="#A6A6A6" stroke-width=".48" d="M6.96 49.24h149.08c3.47 0 6.2-2.75 6.2-6.24V7c0-3.5-2.73-6.24-6.2-6.24H6.96A6.16 6.16 0 0 0 .76 7v36c0 3.5 2.73 6.24 6.2 6.24Z"/>
  <path fill="#fff" stroke="#fff" stroke-miterlimit="10" stroke-width=".32" d="M57.53 13.24c0 .96-.24 1.8-.84 2.4a3.5 3.5 0 0 1-2.62 1.08 3.5 3.5 0 0 1-2.62-1.08A3.54 3.54 0 0 1 50.37 13c0-1.08.36-1.92 1.08-2.64a3.5 3.5 0 0 1 4.05-.72c.48.24.84.48 1.07.84l-.6.6c-.47-.6-1.07-.84-1.9-.84-.72 0-1.43.24-1.9.84-.6.48-.84 1.2-.84 2.04 0 .84.23 1.56.83 2.04s1.2.84 1.9.84a2.6 2.6 0 0 0 2.04-.84 2 2 0 0 0 .6-1.44h-2.63v-.96h3.46v.48Zm5.48-3H59.8v2.28h2.99v.84h-2.99v2.28h3.22v.96h-4.17V9.4h4.17v.84Zm3.94 6.36H66v-6.36h-2.03V9.4h5v.84h-2.02v6.36Zm5.49 0V9.4h.95v7.2h-.95Zm5 0h-.95v-6.36h-2.03V9.4h4.9v.84h-2.04v6.36h.12Zm11.33-.96a3.5 3.5 0 0 1-2.62 1.08 3.5 3.5 0 0 1-2.62-1.08A3.54 3.54 0 0 1 82.45 13c0-1.08.36-1.92 1.08-2.64a3.5 3.5 0 0 1 2.62-1.08c1.07 0 1.9.36 2.62 1.08A3.54 3.54 0 0 1 89.85 13c0 1.08-.36 1.92-1.08 2.64Zm-4.53-.6c.48.48 1.2.84 1.91.84.72 0 1.43-.24 1.9-.84.49-.48.84-1.2.84-2.04 0-.84-.24-1.56-.83-2.04a2.8 2.8 0 0 0-1.91-.84c-.72 0-1.43.24-1.9.84A2.9 2.9 0 0 0 83.4 13c0 .84.24 1.56.83 2.04Zm6.92 1.56V9.4h1.07l3.46 5.64V9.4h.95v7.2h-.95L92 10.72v5.88h-.83Z"/>
  <path fill="#fff" d="M82.21 27.16a5.03 5.03 0 0 0-5.12 5.16 5.1 5.1 0 0 0 5.12 5.16 5.03 5.03 0 0 0 5.13-5.16 4.96 4.96 0 0 0-5.13-5.16Zm0 8.16c-1.55 0-2.86-1.32-2.86-3.12s1.31-3.12 2.86-3.12c1.55 0 2.87 1.2 2.87 3.12 0 1.8-1.32 3.12-2.87 3.12Zm-11.09-8.16A5.03 5.03 0 0 0 66 32.32a5.1 5.1 0 0 0 5.13 5.16 5.03 5.03 0 0 0 5.13-5.16 4.96 4.96 0 0 0-5.13-5.16Zm0 8.16c-1.55 0-2.86-1.32-2.86-3.12s1.31-3.12 2.86-3.12c1.55 0 2.87 1.2 2.87 3.12 0 1.8-1.32 3.12-2.87 3.12Zm-13.23-6.6v2.16H63a4.55 4.55 0 0 1-1.19 2.76 5.26 5.26 0 0 1-3.93 1.56 5.57 5.57 0 0 1-5.61-5.76 5.64 5.64 0 0 1 9.54-4.2l1.55-1.56A7.62 7.62 0 0 0 58 21.52c-4.29 0-7.99 3.6-7.99 7.92s3.7 7.92 8 7.92c2.38 0 4.05-.72 5.48-2.28a7.25 7.25 0 0 0 1.9-5.04c0-.48 0-.96-.11-1.32h-7.4Zm54.14 1.68c-.48-1.2-1.67-3.24-4.3-3.24-2.62 0-4.77 2.04-4.77 5.16a5 5 0 0 0 9.19 2.88l-1.67-1.2c-.6.84-1.31 1.44-2.5 1.44-1.2 0-1.91-.48-2.51-1.56l6.8-2.88-.24-.6Zm-6.92 1.68c0-1.92 1.55-3 2.63-3 .83 0 1.67.48 1.9 1.08l-4.53 1.92ZM99.51 37h2.26V22h-2.26v15Zm-3.58-8.76c-.6-.6-1.55-1.2-2.74-1.2-2.5 0-4.9 2.28-4.9 5.16a4.95 4.95 0 0 0 4.9 5.04c1.19 0 2.14-.6 2.62-1.2h.12v.72c0 1.92-1.07 3-2.74 3a2.65 2.65 0 0 1-2.5-1.8l-1.92.84c.6 1.32 2.03 3 4.54 3 2.62 0 4.77-1.56 4.77-5.28V27.4h-2.15v.84Zm-2.62 7.08c-1.56 0-2.87-1.32-2.87-3.12s1.31-3.12 2.87-3.12c1.55 0 2.74 1.32 2.74 3.12s-1.2 3.12-2.74 3.12ZM122.4 22h-5.37v15h2.26v-5.64h3.1c2.5 0 4.9-1.8 4.9-4.68S124.9 22 122.4 22Zm.11 7.2h-3.22v-5.16h3.22a2.63 2.63 0 0 1 2.63 2.52c-.12 1.32-1.08 2.64-2.63 2.64Zm13.72-2.16c-1.67 0-3.34.72-3.94 2.28l2.03.84c.48-.84 1.2-1.08 2.03-1.08 1.2 0 2.26.72 2.38 1.92v.12a4.71 4.71 0 0 0-2.26-.6c-2.15 0-4.3 1.2-4.3 3.36 0 2.04 1.8 3.36 3.7 3.36 1.55 0 2.27-.72 2.86-1.44h.12V37h2.15v-5.76c-.24-2.64-2.27-4.2-4.77-4.2Zm-.24 8.28c-.72 0-1.79-.36-1.79-1.32 0-1.2 1.31-1.56 2.39-1.56.95 0 1.43.24 2.02.48-.24 1.44-1.43 2.4-2.62 2.4Zm12.52-7.92-2.5 6.48h-.12l-2.63-6.48h-2.38l3.94 9.12-2.27 5.04h2.26l6.09-14.16h-2.39ZM128.5 37h2.26V22h-2.26v15Z"/>
  <path fill="url(#a)" d="M13.4 10c-.36.36-.48.96-.48 1.68V38.2c0 .72.24 1.32.6 1.68l.12.12 14.79-14.88v-.24L13.4 10Z"/>
  <path fill="url(#b)" d="m33.2 30.16-4.89-4.92v-.36l4.89-4.92.12.12 5.84 3.36c1.67.96 1.67 2.52 0 3.48l-5.96 3.24Z"/>
  <path fill="url(#c)" d="M33.32 30.04 28.3 25 13.4 40c.59.6 1.42.6 2.5.12l17.4-10.08Z"/>
  <path fill="url(#d)" d="M33.32 19.96 15.9 10c-1.08-.6-1.91-.48-2.5.12L28.3 25l5-5.04Z"/>
  <path fill="#000" d="m33.2 29.92-17.3 9.84c-.95.6-1.78.48-2.38 0l-.12.12.12.12c.6.48 1.43.6 2.39 0L33.2 29.92Z" opacity=".2"/>
  <path fill="#000" d="M13.4 39.76c-.36-.36-.48-.96-.48-1.68v.12c0 .72.24 1.32.6 1.68v-.12h-.12Zm25.76-13.2-5.96 3.36.12.12 5.84-3.36c.84-.48 1.2-1.08 1.2-1.68 0 .6-.48 1.08-1.2 1.56Z" opacity=".12"/>
  <path fill="#fff" d="m15.9 10.12 23.26 13.32c.72.48 1.2.96 1.2 1.56 0-.6-.36-1.2-1.2-1.68L15.91 10c-1.67-.96-2.99-.24-2.99 1.68v.12c0-1.8 1.32-2.64 2.99-1.68Z" opacity=".25"/>
  <defs>
    <linearGradient id="a" x1="27" x2="6.86" y1="11.45" y2="31.46" gradientUnits="userSpaceOnUse">
      <stop stop-color="#00A0FF"/>
      <stop offset=".01" stop-color="#00A1FF"/>
      <stop offset=".26" stop-color="#00BEFF"/>
      <stop offset=".51" stop-color="#00D2FF"/>
      <stop offset=".76" stop-color="#00DFFF"/>
      <stop offset="1" stop-color="#00E3FF"/>
    </linearGradient>
    <linearGradient id="b" x1="41.35" x2="12.49" y1="25" y2="25" gradientUnits="userSpaceOnUse">
      <stop stop-color="#FFE000"/>
      <stop offset=".41" stop-color="#FFBD00"/>
      <stop offset=".78" stop-color="orange"/>
      <stop offset="1" stop-color="#FF9C00"/>
    </linearGradient>
    <linearGradient id="c" x1="30.61" x2="3.3" y1="27.75" y2="54.89" gradientUnits="userSpaceOnUse">
      <stop stop-color="#FF3A44"/>
      <stop offset="1" stop-color="#C31162"/>
    </linearGradient>
    <linearGradient id="d" x1="9.7" x2="21.9" y1="1.21" y2="13.33" gradientUnits="userSpaceOnUse">
      <stop stop-color="#32A071"/>
      <stop offset=".07" stop-color="#2DA771"/>
      <stop offset=".48" stop-color="#15CF74"/>
      <stop offset=".8" stop-color="#06E775"/>
      <stop offset="1" stop-color="#00F076"/>
    </linearGradient>
  </defs>
</svg>
