<svg xmlns="http://www.w3.org/2000/svg" fill="none" viewBox="0 0 24 24">
  <path fill="#fff" d="M19.93 1.6H4.08A2.48 2.48 0 0 0 1.6 4.08v15.84c0 1.37 1.11 2.48 2.48 2.48h15.85c1.36 0 2.47-1.11 2.47-2.48V4.08c0-1.37-1.1-2.48-2.47-2.48ZM8.04 9.52v9.41H5.07v-9.4h2.97ZM5.07 6.78c0-.69.6-1.22 1.48-1.22.9 0 1.45.53 1.49 1.22 0 .7-.56 1.26-1.49 1.26-.89 0-1.48-.56-1.48-1.26Zm13.86 12.15h-2.97v-4.95c0-.99-.5-1.98-1.73-2h-.04c-1.2 0-1.7 1.02-1.7 2v4.95H9.54v-9.4h2.97v1.26s.95-1.27 2.87-1.27c1.97 0 3.56 1.36 3.56 4.1v5.31Z" opacity=".5"/>
</svg>
