<svg xmlns="http://www.w3.org/2000/svg" fill="none" viewBox="0 0 24 24">
  <path fill="#fff" d="M7.667 1.6a6.074 6.074 0 0 0-6.065 6.068v8.667A6.074 6.074 0 0 0 7.67 22.4h8.667a6.074 6.074 0 0 0 6.065-6.069V7.665A6.074 6.074 0 0 0 16.333 1.6H7.667Zm10.401 3.466a.867.867 0 1 1 0 1.734.867.867 0 0 1 0-1.734ZM12.002 6.8c2.867 0 5.2 2.332 5.2 5.2 0 2.867-2.333 5.2-5.2 5.2a5.205 5.205 0 0 1-5.2-5.2c0-2.868 2.332-5.2 5.2-5.2Zm0 1.733a3.467 3.467 0 1 0 0 6.933 3.467 3.467 0 0 0 0-6.933Z" opacity=".5"/>
</svg>
