<svg xmlns="http://www.w3.org/2000/svg" fill="none" viewBox="0 0 99 30">
  <path fill="#fff" d="M35.19 22.57h3.49l8.13-16.39h-4.23l-5.6 11.97h-.06L31.29 6.18h-4.2l8.1 16.39Z"/>
  <path fill="#fff" d="M50.75 29.53h4.27L66.45 6.18h-4.3l-5.28 11.26h-.06L51.49 6.18h-4.27l7.55 15.3-4.02 8.05Z"/>
  <path fill="#fff" d="M68.27 22.57h3.84V0h-3.84v22.57Z"/>
  <path fill="#fff" d="M74.93 14.38c-.09 4.85 3.96 8.75 9.12 8.65 5.29 0 9.12-3.74 9.12-8.65.1-4.8-3.95-8.75-9.12-8.66-5.16-.1-9.21 3.86-9.12 8.66Zm14.41 0a5.05 5.05 0 0 1-5.29 5.29c-1.57 0-2.84-.5-3.83-1.5a5.25 5.25 0 0 1-1.45-3.8c0-1.54.5-2.8 1.45-3.8a5.17 5.17 0 0 1 3.83-1.48 5.05 5.05 0 0 1 5.29 5.29Z"/>
  <path fill="#fff" d="M19.05 9.3a3.2 3.2 0 1 1-6.4 0 3.2 3.2 0 0 1 6.4 0Z"/>
  <path fill="#fff" d="M6.39 9.23a3.2 3.2 0 1 1-6.4 0 3.2 3.2 0 0 1 6.4 0Z"/>
  <path fill="#fff" d="M12.72 19.37a3.2 3.2 0 1 1-6.4 0 3.2 3.2 0 0 1 6.4 0Z"/>
</svg>
