<?xml version="1.0" standalone="no"?>
<!DOCTYPE svg PUBLIC "-//W3C//DTD SVG 20010904//EN"
 "http://www.w3.org/TR/2001/REC-SVG-20010904/DTD/svg10.dtd">
<svg version="1.0" xmlns="http://www.w3.org/2000/svg"
 width="822.000000pt" height="801.000000pt" viewBox="0 0 822.000000 801.000000"
 preserveAspectRatio="xMidYMid meet">

<g transform="translate(0.000000,801.000000) scale(0.100000,-0.100000)"
fill="#fff" stroke="none">
<path d="M4387 7997 c-50 -14 -42 -31 16 -35 26 -2 47 -8 47 -13 0 -6 -16 -9
-37 -7 -35 3 -37 1 -44 -30 -4 -18 -8 -35 -11 -37 -2 -2 -30 -1 -62 2 -52 5
-57 8 -41 19 10 8 16 17 12 20 -4 4 -2 13 4 21 16 19 -10 17 -39 -3 -22 -15
-24 -15 -29 5 -6 22 -27 28 -38 11 -3 -5 -18 -10 -33 -11 l-27 -1 25 -7 c24
-7 24 -7 5 -15 l-20 -8 20 -9 c15 -6 10 -8 -20 -6 -40 2 -40 2 -38 41 2 21 8
45 14 52 9 11 6 14 -15 14 -25 0 -26 -2 -26 -60 l0 -60 -25 16 c-13 9 -30 12
-37 8 -6 -4 -63 -9 -125 -10 l-113 -3 15 23 c19 29 4 38 -32 22 -15 -8 -21
-17 -17 -28 4 -14 -1 -18 -23 -18 -15 0 -43 4 -61 10 -30 8 -37 6 -59 -16 -13
-13 -28 -22 -33 -19 -4 3 -11 -1 -13 -7 -4 -9 -12 -5 -26 12 -16 19 -23 22
-29 12 -7 -10 -20 -11 -46 -6 -37 6 -38 6 -34 -22 4 -34 44 -48 50 -17 3 16 5
16 26 -5 25 -25 22 -42 -8 -42 -10 0 -22 -5 -26 -12 -5 -8 2 -9 26 -5 18 4 39
7 46 7 8 0 14 10 14 22 0 21 1 21 14 3 9 -13 19 -16 32 -10 17 7 18 8 2 12
-10 3 -18 10 -18 18 0 8 7 11 18 8 10 -2 24 3 31 11 16 20 31 21 31 2 0 -14
80 -30 90 -18 3 4 37 7 76 7 67 0 73 -2 87 -26 15 -27 15 -27 -22 -33 -20 -3
-54 -1 -75 4 -22 5 -52 6 -68 3 -21 -4 -28 -2 -28 11 0 20 4 21 -66 -15 -51
-27 -73 -31 -163 -36 l-103 -6 11 22 c10 18 9 21 -8 21 -11 0 -42 -5 -68 -10
-41 -9 -54 -8 -85 9 l-38 19 31 6 c18 3 53 6 80 6 28 0 49 5 49 11 0 6 8 8 19
4 14 -4 20 0 23 20 6 28 -16 36 -26 9 -5 -13 -9 -14 -21 -4 -8 7 -22 9 -32 5
-21 -9 -157 -10 -171 -2 -11 8 -128 -27 -148 -44 -8 -6 -42 -13 -74 -15 -54
-3 -60 -1 -60 17 0 20 -15 26 -25 9 -4 -7 -13 -6 -27 1 -17 9 -24 8 -32 -3
-12 -16 -54 -33 -72 -30 -6 1 -17 -5 -24 -13 -7 -8 -19 -15 -26 -15 -8 0 -14
-7 -14 -15 0 -16 -12 -20 -23 -8 -11 11 -60 10 -85 -1 -17 -7 -22 -15 -18 -32
5 -17 1 -23 -17 -28 -35 -9 -38 -7 -26 15 10 20 9 21 -12 16 -13 -3 -37 -10
-54 -15 -16 -6 -62 -20 -101 -31 -49 -15 -94 -37 -139 -71 -37 -28 -77 -50
-89 -50 -11 0 -34 -7 -50 -15 -15 -8 -36 -15 -45 -15 -10 0 -28 -11 -41 -25
-13 -14 -32 -25 -41 -25 -10 0 -26 -8 -36 -19 -10 -10 -33 -26 -50 -35 -18 -9
-33 -21 -33 -26 0 -6 -6 -10 -14 -10 -7 0 -28 -16 -47 -35 -19 -20 -53 -45
-76 -56 -38 -17 -42 -22 -37 -47 5 -31 -8 -58 -25 -48 -6 4 -11 21 -11 38 l0
30 -33 -24 c-17 -14 -49 -30 -69 -37 -29 -10 -37 -18 -40 -39 -2 -19 -8 -27
-20 -26 -10 1 -18 -2 -18 -7 0 -5 -9 -9 -20 -9 -22 0 -73 -47 -65 -60 3 -5
-30 -27 -72 -51 -84 -46 -133 -90 -133 -120 0 -10 -4 -19 -10 -19 -5 0 -10 -6
-10 -14 0 -10 -13 -16 -37 -18 -34 -3 -41 -8 -63 -52 -26 -51 -144 -161 -161
-151 -5 4 -9 -6 -9 -21 0 -20 -3 -25 -11 -17 -8 8 -21 5 -48 -13 -80 -52 -82
-53 -69 -73 6 -10 8 -27 4 -37 -7 -18 -8 -18 -20 -2 -10 13 -15 15 -24 6 -18
-18 -14 -28 8 -28 26 0 44 -41 23 -53 -8 -5 -19 -21 -25 -35 -6 -16 -12 -22
-15 -14 -3 6 -9 9 -15 6 -6 -4 -8 2 -3 16 6 19 4 22 -10 17 -9 -4 -24 -7 -32
-7 -11 0 -14 -7 -9 -27 4 -16 12 -32 19 -38 12 -10 23 -85 12 -85 -3 0 -25 18
-50 41 l-44 40 -35 -52 c-26 -39 -34 -59 -29 -80 4 -24 0 -31 -36 -54 -41 -28
-45 -45 -11 -45 11 0 27 12 37 26 9 14 27 30 40 35 15 5 23 17 23 32 0 32 7
37 40 25 42 -14 45 -36 12 -72 -16 -17 -38 -46 -48 -64 -10 -17 -26 -35 -36
-38 -13 -4 -18 -16 -18 -44 0 -21 3 -46 7 -55 5 -15 8 -14 19 6 7 13 13 18 14
11 0 -7 -12 -24 -28 -38 -15 -14 -36 -43 -47 -64 -11 -21 -31 -59 -45 -84 -23
-43 -23 -47 -7 -63 16 -16 15 -18 -16 -28 -29 -10 -32 -14 -29 -47 2 -27 -5
-49 -24 -79 -17 -28 -26 -56 -26 -82 1 -22 -6 -46 -14 -54 -8 -8 -14 -26 -14
-41 0 -15 -7 -36 -15 -46 -14 -19 -15 -19 -15 7 0 15 -4 27 -9 27 -9 0 -21
-48 -21 -86 0 -16 -4 -22 -15 -18 -10 4 -16 -3 -20 -23 -4 -15 -9 -34 -11 -41
-3 -9 2 -11 15 -7 16 5 18 2 13 -17 -3 -12 -7 -17 -10 -10 -6 19 -24 14 -21
-5 2 -10 -2 -28 -9 -39 -9 -18 -8 -25 9 -40 35 -32 40 -50 28 -99 -8 -31 -20
-52 -38 -63 -14 -9 -27 -17 -29 -18 -2 -1 2 -13 9 -26 7 -12 13 -51 13 -85 1
-61 1 -62 -27 -61 -16 1 -32 -5 -37 -12 -13 -22 15 -72 49 -86 20 -9 31 -20
31 -34 0 -22 -16 -28 -22 -8 -3 7 -13 -9 -23 -35 -12 -33 -23 -47 -36 -47 -11
0 -19 -2 -19 -4 0 -12 23 -66 29 -66 12 0 6 -105 -6 -118 -17 -18 -16 -38 4
-69 11 -17 18 -49 19 -97 2 -96 14 -163 25 -145 6 10 9 7 9 -11 0 -15 -5 -31
-12 -38 -9 -9 -7 -13 6 -18 12 -5 14 -10 6 -19 -8 -9 -8 -15 0 -20 19 -12 11
-33 -10 -28 -24 6 -26 -9 -5 -27 8 -7 15 -24 15 -39 0 -14 5 -42 10 -62 6 -20
14 -68 19 -107 5 -42 16 -78 25 -87 20 -21 20 -23 -1 -21 -13 1 -17 -5 -15
-19 32 -221 37 -245 49 -245 16 0 16 -5 3 -30 -7 -13 -7 -21 0 -25 5 -3 10
-27 10 -53 1 -26 5 -65 9 -87 5 -22 14 -67 21 -100 6 -33 16 -66 22 -72 6 -7
8 -22 5 -32 -3 -12 4 -29 16 -42 19 -20 19 -23 4 -34 -18 -13 -23 -35 -8 -35
5 0 11 -19 15 -42 13 -85 49 -189 62 -184 11 4 11 1 2 -13 -14 -22 -3 -55 16
-48 27 10 36 -17 36 -104 0 -91 19 -167 45 -182 8 -4 15 -14 15 -22 0 -8 20
-54 44 -102 25 -48 68 -135 96 -193 28 -58 68 -132 88 -165 63 -102 91 -149
126 -210 13 -24 31 -41 44 -43 14 -2 22 -10 22 -22 0 -10 11 -32 25 -48 14
-17 25 -37 25 -45 0 -9 7 -20 16 -25 16 -9 94 -119 94 -133 0 -5 9 -9 19 -9
10 0 21 -7 24 -15 4 -8 24 -23 46 -34 27 -14 43 -31 50 -53 6 -18 28 -52 49
-75 20 -23 44 -52 52 -64 10 -13 31 -24 55 -28 32 -5 41 -11 43 -29 2 -13 20
-34 40 -48 20 -13 60 -42 87 -64 28 -22 58 -40 67 -40 9 0 20 -4 23 -10 3 -5
14 -10 24 -10 10 0 21 -9 24 -19 5 -21 273 -161 308 -161 11 0 52 -15 92 -34
90 -42 212 -82 302 -100 39 -8 84 -19 100 -25 36 -13 175 -52 305 -87 52 -14
108 -32 124 -40 16 -7 35 -14 41 -14 7 0 26 -7 41 -15 40 -21 90 -19 99 2 6
16 8 15 18 -7 5 -14 9 -29 8 -34 -1 -5 6 -5 16 -1 39 16 51 16 67 0 16 -16 36
-16 80 1 12 4 20 -4 31 -30 15 -35 46 -49 60 -26 11 17 86 11 134 -11 25 -12
56 -27 69 -32 16 -8 28 -8 40 -1 20 13 35 65 21 79 -13 13 -85 11 -102 -4 -17
-14 -27 -5 -27 25 0 12 -6 25 -12 28 -21 8 24 38 47 32 11 -3 33 -6 48 -6 16
0 26 -4 22 -10 -8 -13 4 -13 43 1 24 8 37 7 61 -5 16 -9 32 -12 35 -7 7 11 78
-12 76 -25 -1 -5 -15 -8 -31 -6 -19 1 -40 -6 -56 -18 -14 -11 -32 -20 -39 -20
-12 0 -16 -15 -13 -47 0 -5 7 -7 15 -5 7 2 34 -9 59 -23 55 -30 59 -31 52 -6
-3 12 3 27 15 37 16 15 22 16 39 5 16 -9 24 -9 35 0 10 8 14 8 14 0 0 -6 -5
-11 -12 -11 -9 0 -9 -3 0 -12 9 -9 18 -9 36 0 16 7 28 8 31 2 7 -11 177 -12
215 -1 19 5 25 13 25 36 l0 30 -60 -3 c-33 -2 -71 1 -85 7 -16 6 -19 10 -9 10
19 1 35 34 20 39 -6 2 -9 8 -5 13 8 14 57 -1 75 -24 16 -20 45 -16 33 5 -9 14
46 57 74 58 12 0 22 -4 22 -10 0 -5 10 -10 23 -10 20 -1 20 -2 5 -11 -10 -5
-18 -15 -18 -21 0 -6 12 -2 27 7 18 12 28 14 31 7 2 -7 10 -12 18 -12 21 0 17
-17 -7 -34 -19 -13 -24 -13 -45 1 l-24 15 0 -45 c0 -42 -2 -46 -27 -50 -18 -2
-10 -5 19 -6 37 -1 52 4 67 20 15 17 37 23 96 29 74 7 122 30 109 52 -9 15 28
37 63 38 17 0 33 6 36 13 3 8 13 4 31 -12 26 -24 26 -24 26 -3 0 18 6 22 30
22 22 0 30 5 30 18 0 12 2 14 8 4 10 -15 43 -6 55 15 7 11 12 11 23 2 11 -9
14 -8 14 2 0 8 -9 20 -20 27 -31 19 -24 32 19 32 25 0 41 -5 45 -15 3 -8 1
-15 -4 -15 -20 0 -9 -28 13 -33 41 -9 131 9 121 25 -14 22 21 27 40 6 l20 -22
6 23 c5 20 12 23 65 27 124 8 185 16 185 25 0 5 7 9 15 9 8 0 15 5 15 10 0 6
5 10 10 10 6 0 10 -7 10 -16 0 -13 6 -15 28 -10 15 4 66 13 114 21 58 9 97 20
114 34 15 12 35 21 45 21 10 0 21 4 24 10 3 5 25 10 48 10 24 0 59 8 79 19 27
13 40 15 48 7 8 -8 13 -7 19 3 6 8 19 12 34 9 18 -3 28 0 32 11 4 10 8 12 13
4 16 -24 246 109 349 202 42 39 89 78 104 87 15 9 75 59 133 110 121 107 144
125 285 218 57 37 120 83 140 100 20 17 65 50 101 73 96 61 236 205 356 364
11 15 26 43 32 61 6 18 27 52 47 76 19 24 35 46 35 50 0 5 9 21 20 36 11 15
43 79 71 141 28 63 55 116 59 119 4 3 11 25 15 49 7 42 53 100 81 101 16 0 54
44 54 63 0 9 -7 20 -15 25 -16 8 -20 30 -17 95 2 28 6 37 20 37 24 0 42 -19
43 -44 0 -19 2 -18 11 4 5 14 16 39 23 57 8 17 23 34 33 37 18 6 59 77 76 129
5 17 7 17 32 0 26 -17 27 -17 61 21 33 36 34 38 16 51 -17 14 -17 15 10 37 34
29 50 102 66 295 4 50 13 98 20 107 8 10 9 16 3 16 -6 0 -14 10 -18 22 -6 20
-7 21 -19 4 -12 -16 -14 -16 -20 4 -4 12 -5 24 -2 27 3 2 1 18 -3 35 -8 24 -6
29 6 24 12 -4 13 2 8 36 -5 30 -4 39 4 34 7 -4 12 -14 12 -22 0 -8 5 -14 11
-14 11 0 9 71 -5 225 -7 74 -7 86 0 128 4 22 2 43 -5 51 -8 10 -8 21 -1 40 12
33 12 36 2 36 -5 0 -14 -10 -20 -22 -7 -16 -11 -18 -11 -7 -1 9 8 28 20 43
l20 26 -25 0 c-19 0 -26 5 -26 20 0 15 7 20 25 20 29 0 28 -15 15 185 -6 84
-17 173 -26 203 -12 38 -14 56 -6 64 8 8 7 17 -2 32 -8 11 -19 62 -26 113 -7
50 -16 97 -20 103 -11 18 -30 3 -30 -24 0 -12 -5 -27 -12 -34 -9 -9 -9 -15 0
-24 7 -7 12 -20 12 -31 0 -30 -34 -16 -38 16 -4 29 -11 34 -28 17 -26 -26 -64
23 -64 80 0 22 4 28 16 23 8 -3 13 -12 10 -20 -4 -8 -4 -19 -1 -24 9 -14 49
33 67 79 14 37 15 44 2 49 -8 3 -24 -3 -35 -13 -25 -22 -43 -7 -34 28 5 19 12
24 25 21 24 -6 34 12 15 30 -18 19 -20 41 -2 33 6 -3 19 -9 29 -12 9 -3 18
-14 21 -25 6 -24 27 -25 27 -1 0 25 -29 64 -42 56 -14 -9 -28 15 -28 48 0 15
-4 30 -10 33 -5 3 -10 15 -10 27 0 17 2 18 15 8 12 -10 15 -10 15 4 0 9 -7 16
-16 16 -13 0 -15 7 -11 33 3 22 -2 49 -14 76 -23 51 -24 74 -5 90 19 16 8 50
-20 63 -13 6 -24 17 -24 25 0 12 -12 17 -36 14 -9 -1 -10 9 -4 35 5 21 4 48
-2 65 -5 16 -7 40 -4 52 6 24 -35 97 -54 97 -6 0 -10 17 -10 38 0 20 -9 52
-20 70 -21 33 -37 44 -26 16 10 -25 -17 -11 -32 17 -7 13 -10 38 -7 56 5 28 2
34 -23 47 -21 11 -29 23 -29 41 0 32 -11 44 -22 26 -10 -16 -31 -6 -31 15 0 8
-16 38 -35 67 -37 55 -45 87 -20 87 8 0 15 5 15 10 0 6 -5 10 -11 10 -21 0
-49 43 -49 74 -1 37 -22 68 -41 61 -21 -8 -34 5 -61 63 -24 50 -25 53 -7 62
22 12 15 40 -10 40 -31 0 -60 30 -101 105 -27 49 -52 81 -71 90 -24 13 -29 22
-29 51 0 41 -45 94 -79 94 -18 0 -19 -3 -9 -26 9 -20 9 -27 -1 -34 -15 -9 -13
-13 38 -83 19 -26 40 -47 48 -47 7 0 13 -8 14 -17 0 -14 2 -15 6 -3 4 8 12
-14 19 -49 8 -36 12 -67 9 -69 -4 -5 -21 12 -113 108 -23 25 -52 55 -65 67
-12 11 -37 39 -56 62 -19 24 -46 44 -65 49 -27 7 -31 13 -34 45 -3 38 -12 43
-67 39 -15 -2 -16 0 -7 7 10 6 5 14 -22 30 -20 13 -36 27 -36 32 0 5 -7 9 -15
9 -8 0 -15 5 -15 11 0 6 -6 9 -14 6 -10 -4 -16 5 -21 34 -4 23 -12 39 -21 39
-7 0 -16 11 -20 25 -3 14 -13 25 -21 25 -8 0 -17 9 -20 21 -5 18 -12 20 -61
17 -37 -2 -56 1 -59 10 -3 6 3 12 11 12 13 0 15 6 10 28 -9 38 -10 39 -43 45
-22 5 -31 13 -36 36 -7 33 -29 56 -45 46 -17 -11 -11 -32 15 -49 32 -21 32
-34 -2 -42 -45 -11 -46 -15 -14 -45 30 -27 40 -49 23 -49 -26 0 -281 146 -307
176 -6 6 -39 26 -75 44 -36 18 -78 43 -95 56 -46 34 -369 188 -470 223 -49 18
-101 40 -115 50 -14 10 -45 21 -70 25 -62 10 -215 63 -275 96 -27 15 -71 30
-96 34 -26 3 -62 12 -80 20 -68 28 -199 66 -265 76 -212 31 -252 36 -274 30
-14 -4 -52 -3 -85 1 -33 4 -88 8 -122 8 -39 1 -63 6 -67 14 -3 8 -8 7 -16 -5
-6 -10 -20 -18 -30 -18 -21 0 -36 17 -25 28 4 4 10 1 12 -6 4 -10 8 -10 19 -1
14 12 102 37 161 46 43 7 83 -4 83 -21 0 -11 10 -13 40 -9 24 3 46 1 54 -6 15
-13 61 -6 84 12 9 7 19 4 35 -12 19 -17 36 -21 85 -21 34 0 79 -7 100 -15 34
-14 41 -14 68 0 36 18 44 19 44 1 0 -27 68 -67 121 -71 28 -2 53 -6 56 -9 14
-13 33 -5 33 14 0 18 7 20 64 20 42 0 66 4 69 13 3 9 9 9 27 -1 29 -18 37 -8
19 26 -27 51 -56 68 -136 77 -48 6 -61 4 -73 -10 -12 -14 -12 -18 1 -27 10 -7
3 -8 -24 -3 -27 4 -37 3 -32 -4 3 -6 13 -11 21 -11 8 0 14 -9 14 -20 0 -10 8
-24 18 -29 15 -9 14 -10 -8 -11 -34 0 -98 18 -106 31 -3 6 2 16 11 23 17 12
17 15 -5 44 -21 29 -22 43 -6 83 8 17 -20 32 -83 44 -23 5 -31 4 -27 -4 4 -6
15 -11 25 -11 9 0 26 -7 37 -15 18 -14 17 -14 -13 -15 -26 0 -33 -4 -33 -20 0
-14 -5 -18 -16 -13 -13 5 -13 7 -2 14 10 7 8 9 -6 9 -14 0 -17 -5 -12 -24 5
-22 2 -24 -37 -29 -23 -3 -57 -9 -75 -13 -20 -4 -38 -2 -47 6 -10 8 -19 9 -27
3 -14 -11 -78 10 -78 26 0 4 -11 6 -25 3 -14 -2 -25 0 -25 4 1 15 27 44 33 38
3 -3 20 1 38 10 42 21 49 20 49 -6 1 -20 2 -21 13 -8 21 27 74 60 96 60 36 0
23 17 -21 28 -34 9 -46 8 -59 -4 -19 -17 -79 -8 -79 12 0 16 -9 16 -63 1z
m403 -157 c0 -5 -4 -10 -10 -10 -5 0 -10 5 -10 10 0 6 5 10 10 10 6 0 10 -4
10 -10z m-844 -21 c3 -6 0 -17 -7 -25 -12 -11 -16 -9 -26 11 -10 22 -9 25 7
25 11 0 22 -5 26 -11z m724 -13 c0 -2 -9 -2 -20 1 -11 3 -20 9 -20 15 0 5 9 4
20 -2 11 -6 20 -12 20 -14z m-1690 -32 c0 -8 -4 -12 -10 -9 -5 3 -10 10 -10
16 0 5 5 9 10 9 6 0 10 -7 10 -16z m2000 12 c0 -2 -8 -10 -17 -17 -16 -13 -17
-12 -4 4 13 16 21 21 21 13z m-2190 -45 c0 -5 -9 -11 -19 -14 -14 -3 -18 -11
-14 -25 5 -21 -12 -39 -22 -22 -3 5 -15 10 -26 10 -31 0 -22 15 24 37 47 25
57 27 57 14z m1250 -48 c28 -9 113 -18 225 -23 182 -9 328 -24 347 -36 5 -3
32 -8 58 -10 56 -4 153 -36 190 -62 14 -10 43 -23 65 -30 22 -7 45 -15 52 -20
14 -9 5 -55 -9 -46 -5 3 -15 -2 -22 -12 -15 -20 -46 -13 -46 10 0 8 -9 18 -20
21 -11 3 -20 11 -20 16 0 5 -8 9 -17 9 -15 0 -14 2 3 15 23 17 9 19 -33 4 -24
-8 -30 -15 -26 -30 6 -22 3 -23 -32 -7 -25 11 -30 36 -10 50 6 5 3 8 -6 8 -9
0 -22 -7 -29 -15 -14 -17 -51 -20 -78 -6 -43 22 -94 30 -187 32 -55 0 -107 0
-115 -1 -8 -1 -40 6 -70 16 -61 19 -171 24 -239 11 -24 -5 -46 -5 -50 -1 -11
16 -99 15 -153 -1 -37 -10 -84 -14 -156 -12 -57 2 -105 0 -108 -4 -2 -5 -11
-6 -19 -2 -8 3 -15 0 -15 -7 0 -10 -3 -10 -15 0 -10 8 -33 10 -77 5 -35 -5
-74 -9 -88 -11 -13 -1 -27 2 -31 8 -4 6 -19 7 -40 3 -19 -5 -28 -10 -21 -12 6
-3 12 -12 12 -21 -1 -15 -3 -14 -18 3 -20 23 -94 31 -201 20 -59 -6 -70 -10
-80 -31 -14 -32 -49 -32 -57 1 -3 13 -12 29 -20 36 -11 9 -14 7 -14 -9 0 -30
-27 -49 -51 -34 -10 7 -25 12 -33 12 -26 0 -28 19 -5 48 19 23 21 24 17 6 -3
-12 -2 -27 2 -34 10 -16 30 -4 30 18 0 24 40 48 50 31 11 -16 41 -3 47 21 4
15 11 18 35 13 24 -5 30 -2 35 16 4 17 11 21 27 17 63 -15 117 -17 157 -5 60
16 88 17 101 2 7 -9 22 -11 42 -8 17 3 74 8 126 10 247 11 310 16 372 28 97
17 167 18 218 0z m-1450 -13 c12 -23 55 -27 95 -8 20 9 28 9 38 -1 9 -10 8
-15 -7 -27 -11 -8 -30 -14 -43 -14 -37 0 -117 -31 -131 -51 -7 -11 -21 -19
-30 -19 -9 0 -28 -9 -42 -20 -14 -11 -31 -20 -38 -20 -7 0 -34 -11 -60 -25
-26 -14 -54 -25 -62 -25 -9 0 -27 -8 -40 -17 -14 -10 -29 -18 -35 -18 -27 -2
-65 -31 -74 -58 -9 -25 -13 -28 -26 -17 -12 10 -22 10 -38 3 -12 -6 -37 -16
-54 -23 -42 -16 -44 -38 -3 -32 42 6 37 -10 -10 -37 -27 -15 -53 -21 -78 -19
-30 2 -39 -1 -47 -19 -5 -13 -16 -22 -24 -20 -9 1 -22 -11 -30 -28 -8 -16 -20
-34 -27 -38 -10 -5 -11 -14 -4 -32 10 -27 10 -28 -14 -19 -9 3 -16 12 -16 20
0 29 -44 13 -84 -31 -23 -25 -48 -45 -56 -45 -21 0 -78 -42 -89 -67 -6 -13
-26 -27 -51 -34 -22 -7 -40 -18 -40 -26 0 -7 -10 -17 -23 -22 -13 -5 -29 -16
-36 -25 -7 -9 -20 -16 -27 -16 -9 0 -14 -11 -14 -28 0 -32 -16 -52 -41 -52
-10 0 -48 -37 -86 -81 -120 -144 -157 -184 -167 -184 -6 0 -16 -11 -22 -23 -6
-13 -17 -29 -23 -35 -6 -6 -11 -21 -11 -32 0 -16 -6 -21 -22 -21 -18 1 -22 -4
-20 -22 5 -33 -15 -52 -52 -52 -18 0 -41 -6 -52 -14 -17 -13 -17 -18 -6 -36
12 -19 10 -27 -13 -60 -15 -22 -24 -43 -21 -48 8 -14 -18 -22 -35 -11 -23 14
-27 11 -34 -33 -4 -24 -11 -51 -16 -60 -6 -11 -5 -18 4 -21 9 -4 9 -7 -1 -18
-7 -8 -17 -14 -21 -14 -12 0 -81 -63 -81 -75 0 -5 -9 -10 -21 -10 -15 0 -19
-5 -17 -22 4 -30 -16 -33 -41 -7 -12 13 -21 17 -21 11 0 -7 -5 -12 -12 -12 -9
0 -9 3 0 12 7 7 12 27 12 44 0 18 4 35 9 39 12 7 41 64 41 80 0 7 7 18 16 25
19 17 54 88 54 112 0 34 45 105 88 139 52 42 108 118 104 141 -2 11 3 18 12
18 9 0 26 17 40 38 47 75 282 313 391 398 42 32 59 52 57 65 -2 10 2 19 7 19
6 0 11 7 11 16 0 12 6 15 26 10 37 -10 65 10 181 123 21 21 33 41 30 52 -5 20
22 31 62 23 20 -4 44 4 87 30 78 47 99 66 107 98 4 14 16 28 27 31 16 4 20 0
20 -20 0 -21 -3 -23 -14 -14 -19 16 -32 -5 -16 -24 18 -22 35 -18 74 16 29 25
39 28 55 20 16 -9 23 -7 35 10 8 12 19 18 25 15 6 -4 18 8 28 28 17 37 22 40
62 36 18 -1 22 2 18 14 -4 10 1 20 13 26 11 6 20 19 20 28 0 42 61 84 72 51 4
-11 46 -1 126 29 7 2 12 -2 10 -9 -2 -8 7 -15 20 -17 18 -3 22 1 22 22 0 14 6
26 13 26 6 0 29 5 50 11 31 8 37 14 32 30 -8 25 11 25 25 -1z m135 -110 c3 -5
1 -10 -4 -10 -6 0 -11 5 -11 10 0 6 2 10 4 10 3 0 8 -4 11 -10z m-555 -9 c0
-14 -22 -28 -53 -33 -31 -6 -29 -3 10 23 32 20 43 23 43 10z m1577 -72 c6 -6
23 -13 39 -15 25 -5 174 -6 259 -3 16 1 31 -3 33 -10 6 -19 41 -12 53 10 11
21 11 21 40 -7 l29 -28 20 22 c31 33 47 27 55 -20 7 -42 8 -42 25 -20 10 11
20 18 24 15 3 -4 6 7 6 24 0 29 2 31 33 27 85 -12 107 -17 107 -25 0 -5 25 -9
56 -9 30 0 64 -5 75 -10 25 -14 26 -45 2 -35 -39 16 -93 17 -110 4 -9 -8 -14
-9 -10 -2 10 16 -39 25 -83 15 l-35 -8 25 -14 c15 -8 59 -14 110 -15 71 -1 85
-4 82 -17 -2 -12 8 -17 38 -20 22 -2 40 0 40 3 0 4 3 14 6 23 4 11 1 16 -10
16 -9 0 -16 5 -16 10 0 12 109 13 127 2 10 -6 8 -17 -8 -46 -16 -30 -18 -41
-8 -47 8 -5 18 3 28 24 9 18 28 36 43 41 24 9 32 6 59 -22 l31 -32 -31 -6
c-42 -9 -37 -35 8 -46 35 -10 61 -5 61 11 0 5 -19 7 -42 5 l-43 -4 35 13 c57
21 94 41 103 54 17 27 28 12 26 -33 -4 -52 15 -74 62 -74 15 0 31 -5 34 -10 4
-6 21 -8 42 -4 31 6 38 3 65 -30 17 -21 36 -35 44 -32 7 3 16 1 18 -3 3 -5 16
-6 29 -4 16 3 33 -4 52 -21 15 -14 35 -26 43 -26 9 0 23 -6 31 -14 9 -7 66
-35 126 -60 61 -26 133 -57 160 -70 28 -13 66 -29 87 -35 20 -7 39 -18 42 -26
3 -8 10 -15 15 -15 6 0 31 -13 57 -29 25 -17 59 -33 75 -36 16 -4 29 -11 29
-16 0 -5 4 -9 9 -9 16 0 80 -44 81 -56 0 -11 97 -94 109 -94 4 0 20 -20 36
-45 30 -48 87 -90 109 -82 9 4 12 -2 8 -19 -3 -17 0 -24 11 -24 8 0 25 -16 37
-35 13 -20 30 -35 41 -35 10 0 19 -6 19 -13 0 -7 30 -48 66 -92 37 -43 70 -90
75 -105 5 -14 25 -34 44 -44 19 -11 37 -27 40 -37 3 -10 28 -38 56 -63 27 -24
49 -50 49 -58 0 -22 55 -131 82 -163 14 -17 43 -62 63 -100 21 -39 50 -87 64
-109 39 -59 48 -76 66 -138 9 -32 26 -70 39 -85 26 -32 50 -96 60 -163 8 -49
63 -262 76 -295 8 -17 9 -16 9 8 1 47 18 21 26 -38 4 -38 3 -61 -5 -70 -8 -10
-10 -26 -5 -47 5 -18 8 -72 9 -121 1 -62 5 -87 14 -87 6 0 12 9 12 20 0 25 5
25 30 0 23 -23 44 -17 88 23 l22 20 0 -20 c0 -12 2 -27 5 -35 4 -9 -7 -14 -37
-16 -50 -3 -59 -10 -35 -23 9 -6 17 -18 17 -27 0 -10 5 -23 11 -29 14 -14 8
-55 -8 -61 -9 -2 -13 10 -13 40 -1 39 -2 41 -15 25 -22 -30 -29 -94 -12 -112
20 -20 24 -19 30 6 3 12 12 19 19 17 21 -7 71 -138 69 -183 -1 -21 1 -56 4
-77 l7 -37 43 6 c24 3 52 2 62 -1 17 -7 17 -8 1 -17 -10 -6 -18 -20 -18 -32 0
-35 -11 -67 -21 -61 -5 3 -19 2 -30 -1 -18 -6 -20 -12 -14 -43 4 -21 10 -41
15 -47 4 -5 11 -32 14 -60 4 -27 9 -66 12 -85 4 -26 3 -31 -5 -20 -8 12 -11 5
-11 -30 -1 -48 -26 -222 -30 -205 -4 14 -21 -90 -25 -150 -2 -28 -8 -70 -15
-94 -6 -24 -10 -60 -9 -80 2 -20 0 -41 -3 -46 -13 -23 -29 -157 -24 -204 3
-28 2 -51 -3 -51 -4 0 -18 -44 -30 -98 -13 -56 -37 -124 -57 -162 -18 -35 -34
-69 -34 -75 0 -5 -5 -26 -10 -46 -7 -27 -17 -39 -35 -43 -30 -8 -53 -45 -35
-56 8 -5 10 -18 7 -31 -20 -83 -27 -104 -38 -108 -6 -2 -20 -12 -30 -22 -19
-19 -35 -9 -25 16 10 28 -11 15 -57 -35 -56 -60 -60 -80 -11 -51 29 17 39 19
57 10 21 -12 21 -12 -7 -35 -18 -16 -40 -24 -64 -24 -27 0 -33 -3 -24 -12 8
-8 9 -15 1 -25 -16 -19 -29 -16 -29 7 0 24 -13 26 -30 5 -7 -8 -25 -15 -41
-15 -23 0 -29 -5 -30 -22 -1 -13 -2 -30 -3 -38 -1 -8 -16 -35 -33 -59 -18 -24
-33 -52 -33 -62 0 -13 -12 -21 -40 -29 -25 -7 -48 -22 -62 -40 -12 -17 -30
-33 -41 -36 -10 -3 -23 -18 -28 -34 -6 -15 -21 -32 -35 -39 -25 -11 -26 -11
-19 21 9 42 23 68 35 68 12 0 13 37 1 44 -10 7 -71 -16 -71 -26 0 -4 5 -8 10
-8 18 0 11 -26 -20 -72 -39 -59 -109 -138 -122 -138 -6 0 -5 6 2 15 11 13 8
15 -14 15 -22 0 -25 -3 -20 -27 4 -24 -1 -32 -32 -52 -29 -18 -36 -19 -31 -7
9 24 -23 5 -43 -25 -8 -12 -36 -46 -62 -76 -47 -52 -59 -71 -37 -57 7 4 10 1
7 -7 -3 -8 -18 -18 -34 -23 -48 -14 -93 -39 -125 -68 -16 -15 -35 -25 -43 -22
-7 3 -25 -11 -40 -31 -16 -20 -39 -41 -53 -46 -17 -6 -23 -14 -19 -26 7 -18
-20 -53 -41 -53 -7 0 -16 -7 -19 -15 -4 -8 -17 -15 -31 -15 -20 0 -23 -4 -18
-20 12 -39 -65 -47 -86 -9 -13 25 -28 24 -37 -2 -8 -21 -25 -32 -99 -68 -48
-22 -57 -37 -17 -27 20 5 27 3 31 -14 3 -11 14 -20 24 -20 11 0 19 -4 19 -10
0 -5 -11 -10 -25 -10 -18 0 -25 -5 -25 -20 0 -11 -9 -37 -20 -57 -11 -21 -20
-34 -20 -29 0 5 -11 -1 -25 -14 -13 -12 -38 -23 -55 -24 -24 -1 -29 -5 -24
-19 7 -22 -21 -34 -41 -17 -11 9 -20 8 -42 -7 -35 -24 -130 -63 -154 -63 -23
0 -35 -20 -19 -30 18 -11 -25 -33 -50 -25 -14 4 -20 2 -20 -9 0 -9 -9 -16 -20
-16 -11 0 -23 -6 -26 -14 -3 -7 -19 -13 -37 -14 -18 0 -42 -1 -54 -2 -11 0
-23 -6 -26 -14 -3 -7 -22 -17 -43 -21 -21 -4 -51 -13 -67 -22 -19 -9 -41 -13
-63 -9 -18 4 -41 3 -51 -2 -81 -41 -109 -52 -138 -52 -18 0 -35 -4 -37 -9 -4
-13 -115 -30 -155 -24 -26 4 -41 -1 -73 -27 l-40 -32 0 31 c0 36 -6 41 -43 34
-17 -3 -27 -12 -27 -23 0 -20 -52 -32 -85 -20 -20 8 -71 -13 -87 -35 -4 -6 -8
-2 -8 8 0 11 -8 17 -23 17 -13 0 -46 7 -73 15 -64 19 -255 10 -247 -11 3 -8
-2 -14 -11 -14 -9 0 -16 -4 -16 -10 0 -5 -7 -10 -15 -10 -8 0 -15 -4 -15 -10
0 -5 -4 -10 -10 -10 -5 0 -10 7 -10 15 0 13 -11 15 -57 13 -52 -3 -58 -1 -58
16 0 12 14 28 33 39 28 17 35 18 43 6 6 -10 9 -8 9 10 0 20 -3 23 -27 17 -16
-3 -43 -9 -60 -12 -24 -5 -33 -12 -33 -26 0 -10 -10 -22 -24 -28 -13 -5 -26
-15 -29 -22 -5 -16 -12 -10 -21 20 -7 19 -4 22 23 22 17 0 31 5 31 10 0 6 -9
10 -19 10 -11 0 -22 4 -25 9 -3 5 -22 12 -41 15 -21 4 -35 13 -35 21 0 11 -12
15 -42 15 -49 0 -107 43 -85 64 27 26 62 34 82 20 10 -8 37 -13 59 -13 23 1
81 -6 130 -16 50 -9 104 -14 120 -10 17 3 46 6 65 5 19 0 46 8 60 17 43 30 55
31 93 12 46 -23 123 -26 132 -4 6 17 61 21 71 5 4 -6 12 -10 18 -9 7 1 24 -1
39 -5 15 -4 35 -3 46 3 16 9 21 7 25 -11 5 -17 11 -20 37 -15 16 4 43 16 58
27 15 11 52 26 82 33 67 17 71 36 13 57 -36 12 -50 12 -90 1 -65 -17 -671 -35
-709 -21 -15 6 -93 11 -173 10 -80 0 -164 3 -186 6 -22 3 -71 6 -110 7 -38 2
-90 9 -115 16 -25 7 -56 15 -70 17 -102 14 -196 39 -205 54 -3 5 -22 14 -43
21 -20 6 -59 26 -87 44 -27 17 -65 36 -82 43 -18 6 -48 22 -65 36 -18 13 -53
32 -78 42 -25 10 -67 37 -95 61 -27 24 -56 43 -63 43 -7 0 -43 29 -79 65 -37
36 -79 73 -95 83 -15 9 -28 20 -28 24 0 14 -121 128 -136 128 -8 0 -23 20 -34
45 -12 27 -30 50 -45 57 -14 6 -25 17 -25 24 0 7 -10 21 -23 31 -13 10 -22 23
-20 28 1 6 -10 19 -27 30 -22 15 -31 30 -36 62 -5 36 -10 43 -29 43 -24 0 -55
23 -55 41 0 5 5 9 10 9 27 0 -13 90 -52 118 -10 7 -18 22 -18 33 0 10 -6 19
-14 19 -8 0 -18 14 -21 33 -4 17 -10 34 -14 37 -11 9 -41 80 -41 97 0 9 -3 13
-7 9 -13 -13 -85 70 -114 134 -17 36 -38 74 -48 85 -10 11 -23 39 -31 62 -7
23 -20 51 -29 61 -34 38 -57 79 -69 118 -6 22 -23 51 -37 64 -15 14 -25 35
-25 51 0 32 -70 197 -103 243 -13 19 -17 31 -10 33 16 6 5 31 -29 71 -17 20
-28 44 -28 62 0 19 -5 30 -14 30 -10 0 -13 16 -13 64 1 65 -12 96 -39 96 -17
0 -18 17 -1 23 9 3 8 16 -7 53 -44 117 -55 153 -67 227 -7 42 -16 77 -20 77
-9 0 -32 87 -26 97 3 5 -3 17 -14 26 -21 18 -25 57 -9 73 8 8 6 15 -5 24 -17
14 -21 75 -5 85 6 4 5 11 -3 20 -8 7 -17 43 -20 79 -4 37 -15 86 -25 109 -10
23 -17 48 -14 55 2 7 -2 20 -9 28 -11 13 -10 18 4 25 20 12 22 29 4 29 -16 0
-16 66 -2 179 7 56 6 66 -10 77 -13 10 -15 17 -8 26 9 12 32 171 32 223 0 28
16 91 40 157 12 32 21 76 21 98 0 23 5 50 10 61 8 15 7 19 -5 19 -8 0 -15 9
-15 20 0 16 5 19 24 14 28 -7 40 15 26 50 -5 13 -7 26 -5 27 2 2 5 19 8 36 8
49 30 94 44 88 7 -2 13 0 13 6 0 6 8 23 19 37 10 15 22 47 26 72 4 25 13 56
20 70 7 14 13 40 13 59 0 19 14 55 30 81 17 27 33 63 37 82 4 18 13 40 20 48
7 8 16 30 20 48 4 22 14 34 30 38 28 7 60 40 70 72 14 47 128 225 197 309 24
29 61 78 83 110 42 61 295 323 311 323 5 0 36 31 69 70 33 38 63 70 67 70 8 0
118 74 172 115 18 14 46 25 63 25 32 0 72 24 60 36 -4 4 -7 2 -7 -5 0 -7 -4
-10 -8 -7 -4 3 -8 24 -7 48 l2 43 37 -2 c21 -2 48 3 59 9 12 7 28 11 35 9 8
-1 24 9 37 23 13 14 33 26 44 26 11 0 22 4 26 10 3 5 13 6 21 3 9 -3 20 0 25
8 4 8 15 14 23 14 8 0 29 20 46 44 28 38 34 42 42 27 8 -13 13 -15 24 -5 7 6
20 9 29 6 9 -4 22 5 35 23 12 17 34 31 53 35 17 4 37 12 44 17 7 6 49 13 94
17 61 5 83 11 90 24 6 10 22 17 38 17 20 0 30 6 34 20 7 26 32 35 60 23 12 -6
26 -10 31 -11 5 0 13 -7 18 -16 12 -21 22 -20 86 10 30 14 85 30 121 35 36 5
80 14 96 19 17 6 75 15 130 20 221 23 278 30 283 35 9 8 27 6 39 -6z m-1702
-28 c-3 -6 -11 -8 -17 -5 -6 4 -5 9 3 15 16 10 23 4 14 -10z m425 5 c0 -2 -7
-6 -15 -10 -8 -3 -15 -1 -15 4 0 6 7 10 15 10 8 0 15 -2 15 -4z m2624 -22 c15
-14 16 -14 16 1 0 15 2 15 22 1 12 -9 30 -16 40 -16 10 0 18 -6 18 -14 0 -18
-37 -31 -53 -18 -7 5 -36 12 -64 15 -42 5 -54 3 -61 -10 -8 -13 -10 -12 -15 6
-6 24 2 31 47 42 17 4 32 7 33 8 1 1 9 -6 17 -15z m-2624 -2 c0 -5 -9 -17 -20
-27 -19 -18 -20 -17 -20 3 0 18 11 29 33 31 4 1 7 -3 7 -7z m-100 -22 c0 -5
-4 -10 -10 -10 -5 0 -10 5 -10 10 0 6 5 10 10 10 6 0 10 -4 10 -10z m-509 -33
c-10 -9 -11 -8 -5 6 3 10 9 15 12 12 3 -3 0 -11 -7 -18z m3438 -6 c21 -11 30
-21 22 -25 -16 -10 -14 -26 4 -26 26 0 75 -30 75 -45 0 -20 -18 -19 -63 5 -20
11 -46 20 -56 20 -11 0 -23 5 -26 10 -3 6 1 10 9 10 9 0 16 4 16 9 0 16 -20
23 -34 12 -15 -13 -26 -5 -26 20 0 32 31 36 79 10z m-2509 -11 c0 -5 -2 -10
-4 -10 -3 0 -8 5 -11 10 -3 6 -1 10 4 10 6 0 11 -4 11 -10z m2598 -35 c-3 -3
-9 2 -12 12 -6 14 -5 15 5 6 7 -7 10 -15 7 -18z m-3584 -20 c-11 -8 -20 -10
-23 -4 -1 6 5 16 15 24 11 8 20 10 23 4 1 -6 -5 -16 -15 -24z m3419 18 c4 -3
2 -12 -4 -20 -9 -10 -15 -10 -25 -2 -8 6 -14 15 -14 20 0 10 34 12 43 2z
m-158 -25 c6 -13 20 -24 33 -26 21 -3 32 -22 13 -22 -29 0 -59 21 -63 44 -6
32 4 34 17 4z m425 -28 c44 -13 66 -16 71 -9 5 8 8 8 13 0 4 -6 32 -23 62 -37
30 -14 63 -35 73 -45 10 -11 35 -23 56 -26 21 -3 68 -26 104 -50 36 -23 74
-43 83 -43 9 0 20 -5 23 -11 4 -5 17 -14 28 -20 47 -20 127 -77 127 -90 0 -5
-11 -9 -25 -9 -13 0 -28 -7 -33 -16 -5 -9 -18 -14 -28 -12 -14 2 -19 12 -19
36 0 18 -7 37 -15 42 -21 13 -60 12 -60 -2 0 -7 -7 -5 -18 5 -9 8 -29 20 -45
26 -15 6 -27 18 -27 28 0 19 -68 53 -107 53 -12 0 -29 9 -37 21 -8 12 -19 18
-25 14 -6 -3 -11 -2 -11 4 0 5 -26 19 -57 30 -32 12 -71 29 -87 38 -21 12 -31
13 -34 5 -6 -19 -23 -14 -21 6 3 33 -1 42 -19 42 -9 0 -23 9 -30 20 -7 11 -11
20 -10 20 2 0 32 -9 68 -20z m-170 -10 c0 -5 -2 -10 -4 -10 -3 0 -8 5 -11 10
-3 6 -1 10 4 10 6 0 11 -4 11 -10z m-3089 -34 c-14 -16 -51 -28 -51 -16 0 5 9
11 19 15 11 3 22 13 26 23 5 12 9 13 12 4 3 -7 0 -19 -6 -26z m44 -15 c-3 -6
-11 -11 -17 -11 -6 0 -6 6 2 15 14 17 26 13 15 -4z m-315 -25 c0 -3 -4 -8 -10
-11 -5 -3 -10 -1 -10 4 0 6 5 11 10 11 6 0 10 -2 10 -4z m-503 -68 c-3 -7 -5
-2 -5 12 0 14 2 19 5 13 2 -7 2 -19 0 -25z m4161 3 c3 -8 -1 -12 -9 -9 -7 2
-15 10 -17 17 -3 8 1 12 9 9 7 -2 15 -10 17 -17z m-3868 -111 c0 -5 -4 -10
-10 -10 -5 0 -10 5 -10 10 0 6 5 10 10 10 6 0 10 -4 10 -10z m4410 -110 c0 -5
-2 -10 -4 -10 -3 0 -8 5 -11 10 -3 6 -1 10 4 10 6 0 11 -4 11 -10z m-4696 -61
c-6 -11 -24 -2 -24 11 0 5 7 7 15 4 8 -4 12 -10 9 -15z m5229 -14 c-4 -15 -36
-12 -41 3 -3 9 3 13 19 10 13 -1 23 -7 22 -13z m-425 -4 c10 -6 10 -10 -2 -20
-17 -14 -36 -7 -36 15 0 15 18 18 38 5z m205 -98 c26 -19 47 -42 47 -50 0 -17
-40 10 -113 74 -20 18 -41 33 -47 33 -5 0 -7 7 -4 15 5 12 12 10 38 -11 17
-14 52 -41 79 -61z m-196 21 c3 -8 13 -14 22 -11 12 3 23 -8 35 -34 13 -25 27
-40 45 -44 40 -9 75 -40 68 -59 -6 -14 -10 -14 -44 5 -21 11 -42 25 -47 30 -6
5 -18 9 -28 9 -12 0 -18 8 -18 24 0 16 -11 32 -30 46 -16 12 -30 28 -30 36 0
19 19 18 27 -2z m-4770 -42 c-10 -10 -17 -24 -17 -30 0 -7 -9 -12 -20 -12 -28
0 -25 15 8 39 34 25 51 27 29 3z m5292 -51 c6 -10 35 -33 66 -52 44 -27 55
-38 55 -60 0 -20 11 -34 50 -60 28 -19 64 -53 81 -76 28 -40 29 -43 10 -43
-12 0 -21 4 -21 9 0 6 -26 34 -57 63 -128 118 -213 209 -213 229 0 16 19 9 29
-10z m-179 -63 c0 -6 -3 -8 -7 -5 -3 4 -12 2 -20 -4 -10 -9 -13 -8 -13 4 0 16
19 28 33 20 4 -2 7 -9 7 -15z m-116 -40 c8 -12 13 -25 10 -30 -3 -5 6 -20 20
-33 14 -13 26 -19 26 -12 0 7 5 4 11 -6 14 -24 4 -48 -16 -41 -21 8 -97 123
-89 135 9 15 22 10 38 -13z m128 -20 c-9 -9 -12 -7 -12 12 0 19 3 21 12 12 9
-9 9 -15 0 -24z m51 -28 c27 -14 37 -40 15 -40 -7 0 -23 11 -35 24 -23 23 -30
41 -15 34 4 -2 19 -10 35 -18z m-5403 -83 c0 -5 -4 -5 -10 -2 -5 3 -10 14 -10
23 0 15 2 15 10 2 5 -8 10 -19 10 -23z m5563 -65 c41 -42 95 -102 120 -132 25
-30 57 -66 70 -80 23 -24 31 -49 28 -94 -1 -16 -3 -17 -18 -5 -9 8 -32 39 -51
69 -20 30 -64 82 -99 116 -35 33 -63 68 -63 76 0 9 -10 23 -22 31 -50 34 -88
76 -82 92 10 26 38 9 117 -73z m-243 53 c-7 -8 -17 -15 -22 -15 -6 0 -5 7 2
15 7 8 17 15 22 15 6 0 5 -7 -2 -15z m120 -44 c0 -11 -4 -23 -10 -26 -6 -4
-10 5 -10 19 0 14 5 26 10 26 6 0 10 -9 10 -19z m-5520 -1 c0 -5 -4 -10 -10
-10 -5 0 -10 5 -10 10 0 6 5 10 10 10 6 0 10 -4 10 -10z m5485 0 c3 -5 2 -10
-4 -10 -5 0 -13 5 -16 10 -3 6 -2 10 4 10 5 0 13 -4 16 -10z m511 -42 l29 -33
-32 29 c-31 28 -38 36 -30 36 2 0 16 -15 33 -32z m-106 -29 c0 -18 -2 -19 -15
-9 -8 7 -15 16 -15 21 0 5 7 9 15 9 9 0 15 -9 15 -21z m250 -53 c0 -5 7 -18
17 -28 24 -27 7 -35 -25 -12 -32 24 -67 88 -56 105 5 8 16 1 35 -22 16 -19 29
-38 29 -43z m-574 39 c15 -14 35 -25 44 -25 11 0 22 -12 28 -28 8 -25 86 -109
171 -186 35 -32 121 -148 121 -165 0 -7 25 -46 55 -85 30 -40 63 -97 74 -126
34 -95 65 -164 94 -205 15 -22 27 -45 27 -52 0 -7 13 -27 29 -45 20 -23 31
-49 36 -85 4 -29 15 -64 26 -77 10 -13 19 -33 19 -44 0 -12 5 -24 11 -28 6 -4
8 -20 5 -39 -4 -21 -2 -36 5 -40 8 -6 8 -10 -1 -15 -9 -6 -10 -16 -1 -41 6
-19 20 -83 31 -144 11 -60 25 -121 31 -135 15 -35 38 -161 45 -246 5 -67 3
-74 -20 -99 -30 -32 -29 -27 -16 -59 12 -33 -4 -44 -30 -21 -23 21 -38 101
-22 117 8 8 13 7 18 -5 15 -41 24 -12 19 61 -8 104 -70 250 -102 238 -10 -4
-13 13 -13 82 0 49 5 93 10 98 7 7 5 21 -6 43 -10 21 -19 29 -24 22 -5 -9 -10
-8 -19 3 -7 8 -19 12 -27 9 -16 -6 -19 12 -4 22 16 10 12 25 -7 25 -16 1 -16
2 1 15 27 21 31 19 48 -16 20 -40 30 -16 16 39 -7 28 -14 39 -24 35 -8 -3 -14
0 -14 6 0 7 -9 31 -20 53 -11 23 -20 49 -20 58 0 9 -5 21 -11 27 -7 7 -15 29
-18 50 -5 28 -12 38 -24 37 -20 -2 -23 22 -4 29 7 4 6 6 -4 6 -19 1 -29 21
-29 59 0 15 -11 50 -25 77 -13 28 -25 60 -25 71 0 12 -7 27 -15 34 -9 7 -13
20 -10 28 4 11 -1 13 -20 10 -21 -4 -26 -1 -31 21 -3 14 -8 37 -10 51 -7 33
-22 50 -44 50 -24 0 -57 42 -72 91 -6 21 -21 45 -33 53 -26 17 -49 72 -34 81
5 4 9 17 9 29 0 18 -7 25 -29 29 -20 4 -43 24 -73 63 -24 31 -67 80 -95 109
-29 29 -53 55 -53 58 0 3 10 3 21 0 19 -5 20 -4 10 15 -21 40 -13 42 25 7z
m-5736 -79 c0 -3 -4 -8 -10 -11 -5 -3 -10 -1 -10 4 0 6 5 11 10 11 6 0 10 -2
10 -4z m6196 -18 c6 -4 32 -43 58 -88 32 -53 55 -82 70 -86 16 -4 27 -17 35
-44 6 -21 31 -68 56 -104 25 -36 50 -77 55 -91 8 -21 16 -25 49 -25 31 0 43
-5 51 -21 11 -19 10 -20 -9 -9 -24 13 -61 -2 -61 -24 0 -8 18 -38 41 -66 39
-50 85 -137 77 -146 -10 -9 -66 58 -71 85 -4 16 -15 38 -25 48 -11 10 -27 32
-36 50 -9 18 -28 38 -43 45 -16 8 -28 22 -29 33 -2 33 -15 59 -43 82 -14 13
-20 23 -13 23 18 0 15 30 -4 37 -8 3 -20 16 -25 29 -6 18 -16 24 -38 24 -23 0
-30 5 -36 27 -3 15 -26 57 -51 93 -24 36 -44 71 -44 77 0 6 -8 21 -19 34 l-19
24 32 0 c17 0 36 -3 42 -7z m224 -119 c0 -6 -4 -7 -10 -4 -5 3 -10 11 -10 16
0 6 5 7 10 4 6 -3 10 -11 10 -16z m-6720 -123 c0 -3 -4 -8 -10 -11 -5 -3 -10
-1 -10 4 0 6 5 11 10 11 6 0 10 -2 10 -4z m-209 -99 c-16 -16 -26 0 -10 19 9
11 15 12 17 4 2 -6 -1 -17 -7 -23z m142 -17 c-3 -11 -11 -20 -19 -20 -7 0 -21
-12 -31 -27 -10 -16 -23 -32 -30 -36 -7 -4 -13 -17 -13 -28 0 -30 -23 -33 -68
-9 -49 26 -47 50 4 50 31 0 34 3 34 30 0 22 5 30 18 31 10 0 12 3 5 6 -31 12
-8 23 46 23 54 0 59 -2 54 -20z m218 -23 c-10 -9 -11 -8 -5 6 3 10 9 15 12 12
3 -3 0 -11 -7 -18z m-361 -21 c0 -3 -4 -8 -10 -11 -5 -3 -10 -1 -10 4 0 6 5
11 10 11 6 0 10 -2 10 -4z m88 -103 c19 -15 11 -26 -12 -17 -9 4 -16 17 -15
33 0 15 3 20 6 11 3 -8 12 -21 21 -27z m-148 23 c0 -3 -4 -8 -10 -11 -5 -3
-10 -1 -10 4 0 6 5 11 10 11 6 0 10 -2 10 -4z m6659 -49 c6 -8 8 -17 4 -20 -7
-8 -33 11 -33 24 0 13 16 11 29 -4z m-6692 -22 c3 -9 0 -43 -7 -75 -10 -48
-10 -63 0 -75 10 -12 8 -17 -14 -26 -27 -13 -33 -24 -16 -34 27 -17 -10 -145
-42 -145 -6 0 -5 -6 2 -15 8 -9 10 -28 5 -52 -3 -21 -6 -56 -6 -77 1 -22 -4
-45 -10 -53 -16 -19 -24 -139 -10 -147 17 -11 13 -27 -6 -24 -24 4 -35 -49
-40 -197 -4 -112 -3 -121 17 -137 12 -10 16 -19 10 -23 -5 -3 -10 -15 -10 -27
0 -11 -11 -29 -26 -40 -27 -22 -28 -22 3 -147 14 -59 13 -66 -1 -77 -21 -15
-22 -66 -1 -57 14 5 14 2 3 -22 -11 -24 -10 -29 10 -44 l22 -16 -21 -18 c-12
-11 -18 -25 -15 -34 14 -34 18 -64 12 -80 -6 -15 -8 -15 -16 -3 -7 11 -10 6
-10 -17 0 -18 -4 -33 -10 -33 -5 0 -10 9 -10 20 0 10 -5 31 -12 45 -9 19 -9
31 -1 44 12 19 -6 46 -42 67 -11 6 -26 22 -32 35 l-13 24 0 -22 c0 -13 -5 -23
-10 -23 -6 0 -8 12 -4 28 10 46 14 53 24 47 5 -3 10 1 10 9 0 9 5 16 10 16 6
0 10 -4 10 -10 0 -5 5 -10 10 -10 17 0 0 73 -22 94 -14 13 -18 26 -13 45 3 14
9 75 12 134 4 89 2 112 -12 133 -19 29 -12 60 15 69 19 6 20 9 60 264 10 69
17 128 14 132 -2 5 5 35 16 68 11 33 20 79 20 101 0 23 4 39 9 36 5 -3 11 7
14 22 8 43 34 133 51 181 13 32 14 47 5 57 -8 10 -6 24 11 59 22 45 46 58 57
30z m101 -7 c2 -9 -5 -24 -15 -33 -13 -13 -14 -20 -5 -23 6 -2 12 -10 12 -18
0 -8 6 -11 16 -7 14 5 15 3 4 -18 l-13 -23 -8 22 c-5 12 -13 22 -18 22 -14 0
-25 -60 -13 -72 6 -6 -3 -28 -26 -63 -40 -60 -60 -65 -32 -8 11 23 16 50 13
68 -13 79 70 228 85 153z m-228 -92 c0 -3 -4 -8 -10 -11 -5 -3 -10 -1 -10 4 0
6 5 11 10 11 6 0 10 -2 10 -4z m7447 -51 c9 -24 -1 -27 -15 -5 -8 13 -8 20 -2
20 6 0 13 -7 17 -15z m-7412 -5 c-3 -5 -10 -10 -16 -10 -5 0 -9 5 -9 10 0 6 7
10 16 10 8 0 12 -4 9 -10z m182 -12 c-3 -8 -6 -5 -6 6 -1 11 2 17 5 13 3 -3 4
-12 1 -19z m71 10 c-6 -18 -28 -21 -28 -4 0 9 7 16 16 16 9 0 14 -5 12 -12z
m6622 8 c0 -3 -4 -8 -10 -11 -5 -3 -10 -1 -10 4 0 6 5 11 10 11 6 0 10 -2 10
-4z m-6520 -31 c-7 -8 -17 -15 -23 -15 -5 0 -2 9 8 20 21 23 35 19 15 -5z
m6960 -21 c0 -8 -4 -14 -10 -14 -5 0 -10 9 -10 21 0 11 5 17 10 14 6 -3 10
-13 10 -21z m56 -9 c-16 -24 -13 -75 4 -75 12 0 44 -59 58 -105 13 -45 3 -100
-18 -100 -14 0 -19 8 -49 74 -20 43 -20 43 -1 48 23 6 17 23 -9 23 -17 0 -32
20 -50 72 -8 22 -7 26 4 22 8 -4 15 3 17 17 2 13 14 29 28 36 34 17 35 17 16
-12z m-7035 -48 c-13 -13 -15 1 -4 30 7 17 8 17 11 -1 2 -10 -1 -23 -7 -29z
m-381 23 c0 -5 -2 -10 -4 -10 -3 0 -8 5 -11 10 -3 6 -1 10 4 10 6 0 11 -4 11
-10z m7460 -20 c0 -5 -5 -10 -11 -10 -5 0 -7 5 -4 10 3 6 8 10 11 10 2 0 4 -4
4 -10z m-7492 -18 c6 -18 -15 -14 -22 4 -4 10 -1 14 6 12 6 -2 14 -10 16 -16z
m6975 -12 c-3 -11 -7 -20 -9 -20 -2 0 -4 9 -4 20 0 11 4 20 9 20 5 0 7 -9 4
-20z m-6573 -34 c0 -3 -4 -8 -10 -11 -5 -3 -10 -1 -10 4 0 6 5 11 10 11 6 0
10 -2 10 -4z m-146 -22 c9 -25 7 -64 -4 -64 -5 0 -10 4 -10 8 0 5 -14 9 -32
10 -17 0 -35 7 -39 14 -11 17 -2 23 14 10 11 -9 16 -6 25 13 13 28 37 33 46 9z
m6799 -50 c-6 -17 -31 -25 -38 -14 -9 15 1 26 23 26 11 0 18 -5 15 -12z m546
-54 c0 -10 -3 -8 -9 5 -12 27 -12 43 0 25 5 -8 9 -22 9 -30z m-7692 -64 c-7
-14 -18 -26 -25 -26 -8 0 -12 3 -10 8 2 4 10 24 18 45 12 32 15 35 22 18 4
-11 1 -31 -5 -45z m7443 -31 c7 -8 8 -15 2 -15 -5 0 -15 7 -22 15 -7 8 -8 15
-2 15 5 0 15 -7 22 -15z m204 -7 c8 -13 19 -47 25 -77 9 -45 9 -57 -2 -69 -12
-11 -18 -9 -40 18 -15 17 -31 29 -36 26 -11 -7 -22 34 -13 48 3 6 7 18 7 26 1
8 2 23 3 33 3 25 39 21 56 -5z m-7178 -125 c-11 -11 -19 6 -11 24 8 17 8 17
12 0 3 -10 2 -21 -1 -24z m-129 -49 c-3 -3 -12 -4 -19 -1 -8 3 -5 6 6 6 11 1
17 -2 13 -5z m7463 -37 c0 -26 -15 -12 -25 23 -7 22 -6 23 9 11 9 -7 16 -23
16 -34z m-7517 10 c3 -8 1 -20 -4 -28 -6 -10 -9 -7 -9 14 0 29 5 35 13 14z
m6968 -42 c-3 -11 -5 -32 -5 -47 -1 -25 -2 -25 -18 -11 -16 14 -21 55 -10 76
9 17 37 1 33 -18z m-7031 -18 c0 -12 -5 -29 -10 -37 -7 -11 -10 -3 -10 28 0
26 4 41 10 37 6 -3 10 -16 10 -28z m7537 -99 c-3 -8 -6 -5 -6 6 -1 11 2 17 5
13 3 -3 4 -12 1 -19z m-7502 2 c3 -5 -1 -10 -9 -10 -9 0 -16 5 -16 10 0 6 4
10 9 10 6 0 13 -4 16 -10z m1 -56 c-21 -20 -20 -44 1 -44 13 0 14 -3 5 -12 -7
-7 -12 -20 -12 -29 0 -10 -6 -19 -12 -22 -8 -3 -1 -9 14 -16 25 -9 27 -13 17
-34 -27 -60 -84 -48 -73 16 17 105 39 157 66 157 5 0 2 -7 -6 -16z m-366 -8
c0 -3 -4 -8 -10 -11 -5 -3 -10 -1 -10 4 0 6 5 11 10 11 6 0 10 -2 10 -4z
m7450 -176 c0 -22 -2 -40 -5 -40 -7 0 -35 70 -35 87 0 11 4 11 20 3 15 -8 20
-21 20 -50z m599 -59 c1 -20 -2 -22 -11 -13 -19 19 -30 14 -26 -10 2 -18 -3
-24 -20 -26 -16 -3 -22 -8 -18 -19 3 -8 6 -19 6 -24 0 -5 6 -9 14 -9 7 0 16
-9 19 -19 4 -17 2 -19 -21 -10 -37 14 -49 26 -57 56 -4 17 -2 29 7 34 10 6 10
15 1 40 -15 40 -5 61 13 26 12 -23 16 -24 39 -14 14 7 29 23 32 37 l7 25 7
-25 c4 -14 7 -36 8 -49z m-7802 17 c-3 -8 -6 -5 -6 6 -1 11 2 17 5 13 3 -3 4
-12 1 -19z m253 -2 c0 -3 -4 -8 -10 -11 -5 -3 -10 -1 -10 4 0 6 5 11 10 11 6
0 10 -2 10 -4z m-182 -31 c-3 -14 -1 -25 4 -25 5 0 6 -4 3 -10 -13 -21 -25 -9
-25 25 0 19 5 35 11 35 7 0 9 -10 7 -25z m-87 -28 c-8 -8 -11 -5 -11 9 0 27
14 41 18 19 2 -9 -1 -22 -7 -28z m7349 -43 c0 -8 -5 -12 -10 -9 -6 4 -8 11 -5
16 9 14 15 11 15 -7z m478 -25 c-3 -8 -7 -3 -11 10 -4 17 -3 21 5 13 5 -5 8
-16 6 -23z m-7798 -25 c0 -8 -4 -12 -10 -9 -5 3 -10 13 -10 21 0 8 5 12 10 9
6 -3 10 -13 10 -21z m-176 0 c9 -22 8 -24 -9 -18 -8 4 -15 12 -15 20 0 19 16
18 24 -2z m236 -12 c0 -10 -7 -27 -16 -38 -15 -18 -15 -18 -10 6 3 14 6 31 6
38 0 6 5 12 10 12 6 0 10 -8 10 -18z m7670 -19 c0 -22 -2 -25 -10 -13 -13 20
-13 40 0 40 6 0 10 -12 10 -27z m-8010 13 c0 -3 -4 -8 -10 -11 -5 -3 -10 -1
-10 4 0 6 5 11 10 11 6 0 10 -2 10 -4z m7837 -18 c-3 -8 -6 -5 -6 6 -1 11 2
17 5 13 3 -3 4 -12 1 -19z m60 -5 c-3 -14 3 -41 12 -60 14 -29 20 -33 44 -29
15 3 27 1 27 -4 0 -6 -14 -10 -30 -10 -24 0 -33 -6 -41 -27 -6 -15 -8 -35 -6
-45 7 -26 -7 -30 -26 -8 -27 31 -31 67 -13 111 10 25 14 53 11 70 -5 23 -3 29
10 29 13 0 16 -6 12 -27z m-337 -49 c15 -44 9 -51 -24 -27 -27 20 -33 42 -14
61 16 16 25 8 38 -34z m497 -34 c2 -12 -4 -32 -14 -42 -16 -18 -18 -18 -30 -2
-18 25 -17 29 14 43 22 10 24 14 12 22 -11 9 -11 10 0 7 8 -2 16 -15 18 -28z
m-378 -57 c1 -24 -3 -43 -9 -43 -6 0 -10 27 -9 63 1 71 17 53 18 -20z m421 51
c0 -8 -4 -14 -9 -14 -11 0 -22 26 -14 34 9 9 23 -3 23 -20z m-7758 -75 l-9
-44 -8 37 c-8 44 0 77 16 61 7 -7 8 -25 1 -54z m7618 21 c0 -5 -2 -10 -4 -10
-3 0 -8 5 -11 10 -3 6 -1 10 4 10 6 0 11 -4 11 -10z m-7805 -81 c-6 -27 26
-96 52 -112 7 -4 13 -18 14 -30 0 -21 1 -21 9 -2 5 11 9 33 9 49 1 21 5 27 17
22 9 -3 19 -6 23 -6 5 0 5 -19 1 -42 -5 -24 -4 -50 1 -60 12 -23 11 -68 -2
-68 -7 0 -8 -11 -4 -31 4 -17 4 -60 0 -96 -5 -53 -10 -63 -22 -59 -13 6 -15
-1 -9 -41 7 -55 21 -74 31 -44 3 12 11 21 16 21 13 0 11 -18 -2 -22 -9 -3 -9
-9 0 -25 15 -30 14 -68 -4 -104 -14 -27 -14 -32 2 -59 13 -24 15 -34 7 -48
-17 -27 -5 -123 18 -145 15 -15 17 -26 12 -55 -4 -20 -7 -38 -8 -39 -1 -1 -18
5 -37 14 -30 13 -35 21 -35 47 0 17 -4 51 -9 75 -8 41 -7 43 14 36 22 -7 26 2
15 43 -4 12 -11 22 -17 22 -12 0 -55 49 -63 72 -3 10 0 26 5 37 8 14 7 22 -4
31 -9 7 -12 22 -9 38 8 40 -12 184 -27 193 -10 6 -10 10 0 23 10 12 10 26 -2
72 -8 31 -13 64 -10 73 2 9 0 72 -6 141 -5 69 -7 129 -4 134 11 17 34 -28 28
-55z m7535 16 c7 -9 10 -31 7 -57 -2 -24 2 -86 11 -139 15 -90 15 -98 -1 -114
-21 -20 -21 -31 -3 -42 23 -13 36 -79 24 -115 l-11 -32 -10 25 c-8 20 -11 21
-14 7 -3 -10 -8 -18 -13 -18 -19 0 -18 18 1 55 l21 38 -22 17 c-19 14 -21 20
-11 38 6 11 11 31 11 43 0 22 0 22 -16 3 -15 -18 -15 -18 -8 5 4 14 1 26 -6
31 -10 6 -7 18 10 48 l23 40 -22 43 c-14 27 -20 51 -16 67 3 13 0 30 -6 39
-10 12 -10 16 2 24 20 13 35 11 49 -6z m339 -4 c9 -6 10 -10 2 -16 -9 -5 -9
-10 0 -21 9 -11 8 -14 -5 -14 -9 0 -16 3 -16 8 0 4 -3 17 -6 30 -7 23 2 28 25
13z m-69 -35 c0 -18 -16 -29 -30 -21 -13 8 -1 35 16 35 8 0 14 -6 14 -14z
m120 -46 c0 -14 5 -18 18 -13 9 4 4 -5 -13 -19 l-29 -25 -19 24 c-15 19 -17
27 -7 38 18 22 50 19 50 -5z m-132 -101 c2 -19 8 -39 13 -45 13 -16 1 -42 -22
-49 -10 -4 -19 -13 -19 -20 0 -8 -4 -16 -9 -20 -9 -5 -5 133 5 163 8 25 29 6
32 -29z m39 -1 c-3 -7 -5 -2 -5 12 0 14 2 19 5 13 2 -7 2 -19 0 -25z m-7517
-78 c0 -5 -2 -10 -4 -10 -3 0 -8 5 -11 10 -3 6 -1 10 4 10 6 0 11 -4 11 -10z
m7530 -30 c0 -5 -5 -10 -11 -10 -5 0 -7 5 -4 10 3 6 8 10 11 10 2 0 4 -4 4
-10z m35 0 c3 -5 2 -10 -4 -10 -5 0 -13 5 -16 10 -3 6 -2 10 4 10 5 0 13 -4
16 -10z m-7555 -80 c0 -5 -7 -10 -15 -10 -8 0 -15 5 -15 10 0 6 7 10 15 10 8
0 15 -4 15 -10z m7550 -20 c0 -23 6 -33 25 -42 31 -14 31 -20 3 -33 -13 -6
-22 -18 -22 -28 1 -9 -4 -17 -12 -17 -18 0 -34 -33 -33 -67 1 -17 3 -21 6 -10
6 21 36 22 57 1 22 -21 21 -74 0 -74 -12 0 -15 -6 -10 -24 3 -14 2 -28 -4 -31
-23 -14 0 -105 27 -105 17 0 17 -15 -2 -30 -25 -21 -17 -30 25 -30 50 0 53
-24 10 -58 -32 -25 -50 -22 -50 9 0 12 -7 19 -20 19 -29 0 -36 27 -16 60 22
39 20 45 -9 26 -14 -9 -25 -12 -25 -7 0 5 5 13 11 17 6 3 8 17 5 30 -4 14 0
37 9 54 15 30 20 76 9 104 -8 20 -44 21 -44 1 0 -27 -29 -28 -55 -4 -28 27
-30 53 -14 129 8 38 8 54 -1 65 -10 12 -9 16 4 21 9 3 16 14 16 23 0 11 3 12
8 4 5 -8 14 -6 32 7 14 11 35 20 48 20 18 0 22 -5 22 -30z m-7510 -65 c0 -8
-4 -15 -10 -15 -5 0 -10 7 -10 15 0 8 5 15 10 15 6 0 10 -7 10 -15z m-180 -36
c0 -6 -4 -7 -10 -4 -5 3 -10 11 -10 16 0 6 5 7 10 4 6 -3 10 -11 10 -16z
m7320 1 c0 -5 -2 -10 -4 -10 -3 0 -8 5 -11 10 -3 6 -1 10 4 10 6 0 11 -4 11
-10z m50 -49 c0 -5 -9 -19 -19 -32 -16 -19 -22 -21 -32 -12 -10 10 -9 17 6 33
19 20 45 27 45 11z m-7547 -15 c3 -8 3 -17 0 -20 -8 -7 -43 12 -43 24 0 15 37
12 43 -4z m377 -36 c0 -5 -5 -10 -11 -10 -5 0 -7 5 -4 10 3 6 8 10 11 10 2 0
4 -4 4 -10z m7120 -25 c0 -8 -4 -15 -9 -15 -13 0 -22 16 -14 24 11 11 23 6 23
-9z m480 -5 c0 -5 -5 -10 -11 -10 -5 0 -7 5 -4 10 3 6 8 10 11 10 2 0 4 -4 4
-10z m-7583 -27 c-9 -9 -19 -14 -23 -11 -10 10 6 28 24 28 15 0 15 -1 -1 -17z
m-221 -79 c-4 -13 -11 -24 -16 -24 -13 0 -13 47 0 55 6 3 11 16 11 28 2 16 3
14 6 -7 3 -15 2 -39 -1 -52z m244 35 c0 -6 -4 -7 -10 -4 -5 3 -10 11 -10 16 0
6 5 7 10 4 6 -3 10 -11 10 -16z m7350 -29 c0 -22 -4 -28 -15 -24 -12 5 -15 -3
-15 -40 0 -27 -5 -46 -11 -46 -11 0 -7 56 8 118 8 33 33 28 33 -8z m-7400 10
c0 -5 -5 -10 -11 -10 -5 0 -7 5 -4 10 3 6 8 10 11 10 2 0 4 -4 4 -10z m7126
-30 c-1 -28 -35 -65 -48 -52 -13 13 -6 57 9 57 6 0 15 3 19 8 13 13 21 8 20
-13z m-7081 -20 c10 8 16 3 24 -21 14 -41 14 -44 -3 -30 -8 7 -25 9 -39 6 -20
-5 -25 -2 -29 17 -3 13 -9 32 -14 43 -7 18 -6 18 20 -3 21 -16 32 -19 41 -12z
m7283 -45 c-3 -3 -9 2 -12 12 -6 14 -5 15 5 6 7 -7 10 -15 7 -18z m78 -11 c-4
-9 -9 -15 -11 -12 -3 3 -3 13 1 22 4 9 9 15 11 12 3 -3 3 -13 -1 -22z m-397
-35 c-14 -28 -19 -23 -19 19 1 34 2 36 15 18 10 -13 11 -24 4 -37z m-7343 14
c-7 -7 -26 7 -26 19 0 6 6 6 15 -2 9 -7 13 -15 11 -17z m7444 17 c0 -5 -5 -10
-11 -10 -5 0 -7 5 -4 10 3 6 8 10 11 10 2 0 4 -4 4 -10z m-7031 -52 c10 -24
22 -59 26 -78 4 -19 16 -52 26 -72 11 -21 19 -48 19 -62 0 -13 7 -31 15 -40 8
-8 15 -26 15 -40 0 -16 9 -32 25 -42 14 -9 25 -24 25 -34 0 -10 7 -23 15 -30
20 -16 57 -120 52 -142 -3 -11 0 -18 9 -18 8 0 26 -24 40 -54 20 -43 23 -59
15 -75 -15 -27 -14 -41 4 -41 8 0 15 -6 15 -13 0 -7 9 -31 20 -52 11 -22 18
-45 16 -52 -3 -7 -1 -15 5 -19 6 -3 13 3 16 15 6 24 20 19 34 -12 5 -12 13
-29 18 -37 24 -42 55 -129 55 -160 1 -37 19 -59 50 -60 12 0 16 5 12 15 -7 20
42 41 58 25 7 -7 3 -10 -13 -10 -22 0 -21 -2 16 -70 32 -60 35 -72 23 -81 -8
-5 -25 -8 -37 -6 -27 5 -27 4 -8 -32 16 -32 45 -49 45 -26 0 18 5 18 29 5 13
-6 17 -17 14 -34 -3 -16 5 -43 22 -73 15 -26 43 -77 61 -113 29 -57 33 -61 36
-37 3 26 5 24 51 -33 26 -33 47 -62 47 -66 0 -4 -8 -12 -17 -19 -24 -18 -6
-37 52 -54 41 -12 46 -16 41 -37 -5 -18 -2 -23 16 -26 17 -2 24 -11 26 -33 l3
-30 -16 23 c-18 25 -35 29 -35 8 0 -36 -47 -28 -56 10 -8 33 -70 85 -91 77
-11 -4 -14 -3 -9 6 18 29 -6 71 -74 125 -38 31 -73 56 -77 56 -4 0 -14 14 -22
31 -7 17 -24 35 -38 40 -13 5 -29 22 -34 38 -7 21 -24 37 -54 51 -25 12 -47
31 -51 43 -4 12 -17 44 -30 71 -14 28 -20 54 -15 59 4 4 4 27 0 50 -4 23 -8
45 -9 49 0 13 -49 40 -60 33 -7 -4 -1 -17 15 -37 27 -32 30 -43 15 -53 -6 -3
-10 0 -10 8 0 8 -9 22 -20 32 -12 11 -20 31 -20 51 0 33 -40 84 -66 84 -6 0
-17 7 -24 15 -9 11 -8 20 6 44 16 28 16 32 2 48 -9 10 -27 41 -42 70 -14 29
-32 56 -39 60 -54 33 -152 307 -126 354 8 16 6 19 -14 19 -17 0 -27 7 -32 23
-11 36 -8 96 5 112 10 12 10 15 -2 15 -26 0 -39 46 -28 97 6 25 8 53 5 63 -3
10 1 35 10 56 17 42 11 59 -11 30 -14 -20 -14 -20 -14 0 0 52 44 46 69 -8z
m-219 -9 c-7 -11 -14 -19 -16 -16 -7 7 7 37 17 37 6 0 5 -9 -1 -21z m7570 17
c0 -16 -14 -36 -26 -36 -19 0 -18 -16 1 -24 8 -3 15 -15 15 -27 0 -18 4 -20
27 -16 27 5 62 -17 48 -31 -6 -7 -10 -8 -36 -11 -7 -1 -9 -11 -5 -27 12 -48
-28 -70 -63 -35 -26 26 -44 6 -35 -37 6 -30 8 -31 27 -17 29 20 34 19 49 -12
19 -39 38 -41 38 -3 0 20 9 40 25 55 23 24 23 25 4 25 -12 0 -19 5 -16 13 2 6
12 11 21 11 9 -1 23 11 32 27 8 16 22 29 32 29 15 0 15 -2 2 -10 -13 -9 -13
-12 3 -24 14 -11 16 -19 8 -33 -5 -11 -11 -47 -13 -81 -3 -56 -5 -63 -30 -73
-25 -10 -40 -39 -20 -39 4 0 6 -16 4 -35 -3 -25 -9 -35 -22 -35 -10 0 -23 -7
-30 -15 -21 -25 -29 -7 -15 32 7 21 16 55 20 75 l7 37 -38 -2 c-34 -3 -39 -6
-42 -30 -2 -20 0 -25 11 -21 7 2 19 -1 25 -9 9 -11 7 -16 -12 -26 -33 -18 -49
-56 -35 -82 5 -11 9 -27 7 -36 -3 -16 -13 -20 -75 -30 l-32 -5 20 52 c11 29
17 60 14 68 -3 8 4 23 15 34 29 27 26 73 -6 103 -15 14 -22 25 -15 25 6 0 11
5 11 10 0 6 -10 10 -22 10 -21 1 -22 2 -5 14 19 15 22 33 7 38 -7 2 -7 14 1
37 9 25 9 42 -1 72 -11 31 -11 41 0 54 22 26 40 19 34 -15 -5 -20 -3 -30 6
-30 13 0 4 -57 -13 -78 -7 -9 -7 -16 0 -23 14 -14 28 12 38 69 4 28 3 42 -4
42 -14 0 -14 40 -1 60 8 12 12 13 19 2 7 -11 9 -11 14 2 6 14 27 23 27 12z
m-7745 -26 c-3 -5 -10 -10 -16 -10 -5 0 -9 5 -9 10 0 6 7 10 16 10 8 0 12 -4
9 -10z m7320 -37 c-2 -10 -7 -35 -10 -56 -3 -21 -10 -35 -16 -31 -8 5 -5 55 6
92 6 19 24 14 20 -5z m-7167 -10 c0 -10 3 -27 7 -38 6 -14 5 -17 -3 -10 -16
15 -26 65 -14 65 6 0 10 -8 10 -17z m7452 -21 c0 -7 -4 -10 -10 -7 -5 3 -10
16 -10 28 0 18 2 19 10 7 5 -8 10 -21 10 -28z m-7623 2 c-3 -3 -12 -4 -19 -1
-8 3 -5 6 6 6 11 1 17 -2 13 -5z m230 -30 c8 -21 -13 -42 -28 -27 -13 13 -5
43 11 43 6 0 13 -7 17 -16z m-160 -94 c4 0 17 9 29 21 l21 20 22 -41 c12 -24
21 -59 21 -86 0 -30 7 -56 21 -75 17 -25 18 -30 5 -35 -8 -3 -24 0 -36 6 -16
9 -25 9 -33 1 -21 -21 -27 -10 -27 52 0 52 3 64 21 75 28 18 19 36 -22 42 -32
5 -34 7 -35 45 -1 32 -1 34 3 8 2 -18 7 -33 10 -33z m153 9 c0 -6 6 -9 14 -6
15 6 26 -12 26 -41 0 -13 -3 -12 -15 4 -14 18 -14 17 -15 -13 0 -17 -4 -34
-10 -38 -20 -12 -60 90 -45 115 8 12 45 -5 45 -21z m7130 -24 c0 -5 -5 -3 -10
5 -5 8 -10 20 -10 25 0 6 5 3 10 -5 5 -8 10 -19 10 -25z m-6703 -108 c-2 -7
-11 -13 -20 -15 -18 -4 -37 33 -37 71 1 20 3 19 31 -11 17 -19 28 -39 26 -45z
m7007 27 c28 -11 17 -24 -19 -24 -34 0 -47 13 -22 23 18 8 23 8 41 1z m-7369
-14 c3 -5 1 -10 -4 -10 -6 0 -11 5 -11 10 0 6 2 10 4 10 3 0 8 -4 11 -10z
m-44 -13 c-1 -12 -15 -9 -19 4 -3 6 1 10 8 8 6 -3 11 -8 11 -12z m434 -118
c-6 -9 -35 -1 -35 10 0 4 3 11 7 14 8 9 34 -13 28 -24z m-351 -1 c10 -39 6
-44 -13 -18 -19 23 -19 40 -2 40 5 0 11 -10 15 -22z m6939 -10 c4 -12 3 -25
-2 -28 -4 -3 -11 -33 -14 -68 -4 -34 -16 -79 -26 -100 -19 -36 -20 -36 -21
-10 0 15 -5 39 -12 54 -10 22 -10 28 5 39 21 15 47 76 47 110 0 31 16 33 23 3z
m-6957 -25 c27 -23 34 -35 34 -64 0 -22 9 -48 25 -70 21 -28 23 -35 10 -37
-20 -4 -19 -19 1 -30 20 -11 10 -34 -12 -25 -8 3 -21 20 -29 37 -8 17 -20 39
-27 48 -10 15 -9 20 7 32 11 9 14 16 8 16 -8 0 -13 13 -13 29 0 17 -11 42 -26
60 -32 38 -24 40 22 4z m7224 -5 c0 -5 -4 -8 -10 -8 -5 0 -10 10 -10 23 0 18
2 19 10 7 5 -8 10 -18 10 -22z m-7395 2 c3 -5 -1 -10 -9 -10 -9 0 -16 5 -16
10 0 6 4 10 9 10 6 0 13 -4 16 -10z m7352 -12 c-4 -15 1 -30 15 -45 18 -19 19
-23 5 -23 -9 0 -21 -9 -27 -20 -10 -18 -7 -24 13 -21 9 1 9 -31 -1 -46 -6 -10
-15 -10 -41 0 -29 11 -32 15 -27 41 8 37 52 136 62 136 3 0 4 -10 1 -22z
m-7287 -98 c6 0 10 -7 10 -16 0 -8 -4 -12 -10 -9 -14 9 -12 -7 5 -43 27 -53
45 -136 32 -144 -7 -4 -15 -8 -19 -8 -10 0 -21 40 -22 86 0 22 -7 48 -13 56
-7 8 -16 29 -19 46 -4 17 -13 37 -20 43 -15 12 -19 41 -7 52 3 4 17 -9 30 -28
13 -19 28 -35 33 -35z m7430 -51 c0 -11 -4 -17 -10 -14 -5 3 -10 13 -10 21 0
8 5 14 10 14 6 0 10 -9 10 -21z m-30 -3 c0 -3 -4 -8 -10 -11 -5 -3 -10 -1 -10
4 0 6 5 11 10 11 6 0 10 -2 10 -4z m-429 -59 c-8 -8 -11 -7 -11 4 0 20 13 34
18 19 3 -7 -1 -17 -7 -23z m244 -20 c21 -16 15 -32 -15 -40 -17 -4 -20 0 -20
24 0 32 7 35 35 16z m-7015 -21 c0 -8 -4 -18 -10 -21 -5 -3 -10 3 -10 14 0 12
5 21 10 21 6 0 10 -6 10 -14z m6766 -47 c3 -6 1 -16 -5 -22 -6 -6 -11 -19 -11
-28 0 -9 -16 -36 -35 -59 -37 -44 -43 -66 -23 -72 8 -3 5 -11 -10 -23 -12 -11
-22 -27 -22 -37 0 -9 -5 -20 -11 -24 -6 -3 -8 -17 -5 -29 4 -17 0 -28 -14 -38
-10 -7 -38 -37 -61 -66 -46 -58 -67 -63 -23 -5 21 27 28 46 27 75 -1 28 2 39
11 37 7 -2 25 11 39 28 27 32 35 50 17 39 -15 -9 -12 0 15 52 13 27 38 78 54
116 29 65 43 79 57 56z m-6898 -38 c3 -8 -1 -12 -9 -9 -7 2 -15 10 -17 17 -3
8 1 12 9 9 7 -2 15 -10 17 -17z m90 5 c-22 -16 -23 -26 -3 -26 24 0 19 -57 -5
-70 -28 -15 -26 -28 24 -129 24 -50 42 -99 40 -109 -6 -22 62 -137 126 -212
56 -66 110 -148 110 -167 0 -8 5 -11 10 -8 6 3 15 -4 20 -17 17 -36 35 -66 54
-86 9 -11 14 -25 11 -33 -3 -9 5 -18 23 -25 34 -13 82 -102 61 -114 -17 -11
-3 -28 39 -48 28 -13 44 -31 64 -72 14 -30 38 -65 53 -77 14 -13 21 -23 14
-23 -7 0 3 -10 22 -23 22 -15 36 -33 39 -52 4 -26 10 -31 45 -35 33 -4 43 -11
61 -43 12 -21 37 -52 56 -68 20 -15 43 -48 53 -71 9 -24 22 -46 28 -50 6 -4 8
-10 5 -14 -6 -6 -32 15 -177 140 -80 69 -258 245 -264 260 -8 21 -95 141 -116
160 -12 11 -21 23 -21 27 0 5 -16 33 -35 63 -19 30 -35 60 -35 66 0 5 -5 10
-11 10 -16 0 -31 20 -68 91 -19 35 -46 80 -61 99 -36 47 -95 156 -110 204 -7
22 -41 97 -75 167 -46 94 -65 125 -73 117 -8 -8 -13 -6 -17 8 -4 10 -11 30
-16 43 -12 30 -1 97 14 82 7 -7 15 -7 25 2 12 10 17 8 26 -6 31 -53 35 -54 36
-11 0 39 14 64 35 64 5 0 2 -7 -7 -14z m7046 -33 c-9 -21 -21 -51 -28 -68 -6
-16 -17 -34 -23 -38 -7 -4 -13 -19 -13 -32 0 -13 -4 -27 -10 -30 -5 -3 -10 1
-10 9 0 19 -19 22 -21 4 -1 -7 -3 -20 -4 -28 -1 -8 -3 -21 -4 -27 0 -7 -13
-13 -27 -13 -24 0 -25 1 -10 28 8 15 17 43 21 63 5 37 56 100 63 80 6 -18 22
-12 22 8 0 11 6 22 13 25 9 4 9 8 1 11 -21 10 -3 45 22 45 24 0 24 0 8 -37z
m-7006 -84 c-2 -6 -8 -10 -13 -10 -5 0 -11 4 -13 10 -2 6 4 11 13 11 9 0 15
-5 13 -11z m193 -87 c6 -47 4 -49 -23 -25 -18 16 -24 53 -11 67 15 14 28 -3
34 -42z m6359 18 c0 -5 -4 -10 -10 -10 -5 0 -10 5 -10 10 0 6 5 10 10 10 6 0
10 -4 10 -10z m-6285 -114 c31 -26 40 -41 40 -65 0 -19 -5 -31 -13 -31 -8 0
-12 -6 -9 -12 2 -7 13 -12 24 -10 17 2 22 -4 28 -37 7 -41 16 -53 77 -100 21
-16 34 -31 31 -35 -10 -10 -15 -76 -5 -76 4 0 13 5 19 11 7 7 12 1 17 -24 3
-18 20 -49 36 -67 17 -19 30 -37 30 -40 0 -4 17 -15 39 -26 26 -13 42 -29 50
-51 16 -42 36 -44 28 -3 -9 41 8 39 66 -12 41 -34 46 -43 33 -50 -19 -11 -20
-35 -3 -71 10 -22 17 -26 38 -22 26 6 39 -9 54 -63 4 -12 20 -29 36 -37 16 -9
29 -17 29 -19 0 -3 3 -12 7 -22 5 -14 3 -16 -12 -10 -10 3 -21 2 -25 -4 -11
-19 -39 1 -50 35 -7 22 -16 32 -25 29 -8 -4 -20 7 -31 28 -30 59 -43 68 -100
68 -59 0 -66 5 -49 37 9 17 14 20 23 11 9 -9 12 -8 12 4 0 9 -5 20 -11 23 -5
4 -14 17 -19 29 -7 19 -14 22 -44 18 -22 -3 -36 0 -36 7 0 6 -12 11 -26 11
l-27 0 27 21 c31 24 34 43 6 36 -16 -4 -20 0 -20 18 0 28 -17 42 -33 26 -17
-17 -29 -13 -19 6 7 12 5 24 -5 40 -14 21 -14 23 1 23 32 0 15 18 -24 24 -39
6 -51 18 -30 31 15 9 2 25 -20 25 -27 0 -69 85 -60 120 5 20 1 28 -20 41 -15
10 -40 45 -59 85 -18 38 -37 76 -41 85 -9 18 -4 29 14 29 6 0 29 -16 51 -34z
m6213 19 c6 -5 -41 -111 -67 -149 -15 -23 -40 -60 -55 -83 -14 -24 -33 -43
-42 -43 -10 0 -14 -6 -11 -15 4 -8 -10 -40 -29 -72 -20 -34 -32 -64 -28 -75 3
-11 0 -18 -8 -18 -7 0 -33 -29 -58 -65 -25 -36 -48 -65 -52 -65 -3 0 -20 -11
-36 -25 -16 -13 -32 -22 -36 -18 -3 3 -32 -15 -65 -40 -33 -26 -63 -47 -68
-47 -5 0 -20 -15 -33 -32 -13 -18 -32 -39 -42 -46 -10 -7 -18 -24 -18 -37 0
-26 -15 -41 -25 -25 -10 15 -41 12 -56 -7 -8 -9 -18 -30 -24 -47 -7 -22 -19
-34 -43 -42 -19 -6 -38 -17 -44 -25 -7 -10 -8 -8 -3 9 3 12 2 22 -3 22 -16 0
-61 -40 -67 -60 -4 -11 -13 -20 -21 -20 -8 0 -39 -25 -70 -55 -47 -47 -58 -54
-74 -45 -11 6 -19 16 -17 23 1 7 -12 13 -30 15 -26 3 -32 0 -27 -12 3 -9 1
-16 -5 -16 -6 0 -11 -4 -11 -10 0 -19 -39 -50 -56 -43 -13 5 -15 2 -9 -16 5
-18 1 -24 -30 -37 -21 -8 -40 -12 -44 -8 -3 4 0 9 7 11 10 4 10 8 1 19 -14 17
-66 18 -72 2 -9 -26 -16 -1 -10 39 5 41 6 42 44 40 29 -1 51 8 95 38 32 22 63
39 70 37 6 -1 14 7 17 18 3 13 13 20 30 20 28 0 44 15 25 23 -7 3 -3 6 9 6 20
1 21 4 12 36 -9 31 -7 39 12 59 24 25 55 24 62 -3 3 -11 5 -10 6 5 1 15 10 24
28 28 14 4 54 27 88 52 35 24 77 47 94 50 34 7 47 19 31 29 -17 11 -11 21 29
49 28 20 37 32 34 47 -6 23 9 25 27 4 21 -25 47 -17 81 25 18 22 43 43 56 46
22 6 23 8 8 30 -19 30 -19 44 1 44 9 0 18 9 21 20 3 11 9 20 14 20 5 0 9 7 9
16 0 13 -5 12 -34 -5 -48 -30 -52 -26 -16 19 22 28 39 40 57 40 18 0 24 -4 20
-14 -9 -22 12 -86 29 -93 9 -3 28 6 45 22 26 26 28 30 13 46 -18 20 -13 24 38
33 49 9 57 24 18 37 -40 15 -34 30 21 49 45 17 129 90 129 114 0 7 21 33 48
58 75 72 94 98 77 105 -24 9 -17 25 8 17 12 -3 23 -8 25 -9z m-84 -51 c4 -9 4
-19 2 -21 -8 -8 -26 8 -26 23 0 19 16 18 24 -2z m-104 -44 c0 -5 -2 -10 -4
-10 -3 0 -8 5 -11 10 -3 6 -1 10 4 10 6 0 11 -4 11 -10z m520 -44 c0 -2 -7 -9
-15 -16 -13 -11 -14 -10 -9 4 5 14 24 23 24 12z m-6183 -12 c-3 -3 -12 -4 -19
-1 -8 3 -5 6 6 6 11 1 17 -2 13 -5z m5873 -35 c-7 -11 -9 -31 -6 -44 5 -19 3
-22 -14 -18 -26 7 -25 24 1 57 25 31 34 34 19 5z m-304 -38 c-10 -16 -36 -13
-43 5 -8 22 18 37 36 20 7 -8 10 -19 7 -25z m610 21 c-12 -11 -56 -10 -56 2 0
8 11 11 30 8 17 -2 29 -7 26 -10z m-136 -17 c-7 -9 -15 -13 -17 -11 -7 7 7 26
19 26 6 0 6 -6 -2 -15z m130 -55 c0 -11 -2 -20 -4 -20 -2 0 -11 -3 -20 -6 -19
-7 -22 16 -4 34 18 18 28 15 28 -8z m-340 -60 c0 -5 -7 -7 -15 -4 -8 4 -12 10
-9 15 6 11 24 2 24 -11z m-349 -18 c-5 -10 -17 -24 -25 -32 -14 -10 -16 -10
-16 6 0 16 14 28 48 43 1 0 -2 -7 -7 -17z m546 -50 c17 -11 4 -60 -18 -67 -11
-4 -26 -20 -34 -36 -14 -26 -91 -77 -101 -66 -12 12 23 68 74 119 61 61 61 61
79 50z m-6008 -110 c-14 -6 -49 18 -49 34 0 12 6 10 28 -8 16 -13 25 -24 21
-26z m5261 44 c0 -3 -4 -8 -10 -11 -5 -3 -10 -1 -10 4 0 6 5 11 10 11 6 0 10
-2 10 -4z m-4900 -70 c0 -11 -19 -15 -25 -6 -3 5 1 10 9 10 9 0 16 -2 16 -4z
m4740 -33 c0 -5 -4 -15 -10 -23 -11 -18 -25 -7 -17 15 6 15 27 21 27 8z m743
-68 c-6 -16 -93 -79 -93 -67 0 12 47 62 58 62 5 0 12 10 16 23 5 17 8 19 15 8
5 -8 7 -20 4 -26z m-5463 4 c0 -5 -4 -9 -10 -9 -5 0 -10 7 -10 16 0 8 5 12 10
9 6 -3 10 -10 10 -16z m5130 -14 c-7 -8 -24 -15 -39 -15 l-26 1 30 24 c32 26
59 19 35 -10z m230 -27 c0 -16 -3 -19 -11 -11 -6 6 -8 16 -5 22 11 17 16 13
16 -11z m-155 -78 c3 -5 14 -10 25 -10 10 0 21 -8 25 -17 5 -15 4 -16 -6 -5
-18 17 -34 15 -19 -3 17 -21 8 -27 -24 -19 -21 5 -24 9 -15 20 9 11 8 18 -1
29 -8 9 -9 15 -2 15 6 0 14 -4 17 -10z m-5545 -10 c0 -5 -2 -10 -4 -10 -3 0
-8 5 -11 10 -3 6 -1 10 4 10 6 0 11 -4 11 -10z m385 -20 c27 -30 5 -49 -30
-26 -21 14 -23 19 -13 31 17 19 22 18 43 -5z m-315 -15 c0 -8 -4 -15 -10 -15
-5 0 -10 7 -10 15 0 8 5 15 10 15 6 0 10 -7 10 -15z m120 -5 c0 -5 -4 -10 -10
-10 -5 0 -10 5 -10 10 0 6 5 10 10 10 6 0 10 -4 10 -10z m5024 -13 c8 -13 8
-20 -3 -26 -7 -5 -10 -14 -7 -20 4 -6 2 -11 -4 -11 -7 0 -14 9 -17 20 -3 11
-9 20 -14 20 -14 0 -11 28 4 33 18 8 29 3 41 -16z m233 -33 c-3 -3 -12 -4 -19
-1 -8 3 -5 6 6 6 11 1 17 -2 13 -5z m-4983 -16 c-26 -47 -54 -56 -54 -18 0 13
5 17 15 14 8 -4 15 -1 15 5 0 6 7 11 16 11 9 0 12 -5 8 -12z m86 -18 c0 -5 -4
-10 -10 -10 -5 0 -10 5 -10 10 0 6 5 10 10 10 6 0 10 -4 10 -10z m4922 -7 c-6
-3 -10 -9 -6 -14 3 -5 0 -9 -5 -9 -15 0 -14 27 2 33 6 2 14 2 17 -1 3 -2 -1
-7 -8 -9z m-5143 -7 c13 -7 20 -16 15 -18 -13 -8 -54 9 -54 22 0 13 10 12 39
-4z m-41 -36 c3 -8 -5 -6 -21 6 -15 10 -27 23 -27 28 0 12 43 -18 48 -34z
m-138 9 c0 -6 -4 -7 -10 -4 -5 3 -10 11 -10 16 0 6 5 7 10 4 6 -3 10 -11 10
-16z m5250 7 c0 -11 -47 -53 -72 -63 -24 -11 -29 -10 -38 7 -12 22 5 39 22 22
6 -6 18 -2 35 14 23 21 53 32 53 20z m-4956 -26 c12 -12 -2 -30 -23 -30 -23 0
-45 25 -36 40 7 11 43 5 59 -10z m4156 -45 c0 -16 -27 -32 -37 -21 -7 7 16 36
28 36 5 0 9 -7 9 -15z m-3980 -40 c10 -12 10 -19 2 -27 -15 -15 -48 14 -38 31
10 15 21 14 36 -4z m4642 -5 c-20 -12 -41 -38 -52 -63 -14 -32 -28 -46 -53
-55 -19 -7 -42 -21 -52 -32 -10 -11 -24 -20 -31 -20 -7 0 -41 -24 -76 -52
-136 -113 -269 -201 -326 -215 -15 -3 -36 -12 -47 -19 -11 -8 -35 -14 -54 -14
-19 0 -54 -9 -77 -21 -34 -16 -47 -18 -63 -9 -13 6 -27 7 -38 2 -10 -5 -31
-16 -48 -24 -29 -15 -89 -30 -169 -43 -37 -6 -39 -5 -25 11 13 15 12 16 -11 9
-14 -4 -32 -14 -41 -21 -21 -19 -29 -18 -29 5 0 12 9 20 29 24 16 4 39 16 50
28 21 23 51 20 51 -6 0 -17 2 -18 25 -9 9 4 21 17 26 30 4 13 15 24 24 24 20
0 151 66 160 80 5 7 11 5 20 -7 11 -15 17 -15 39 -5 14 6 26 18 26 25 0 9 9
12 28 9 18 -2 33 2 42 12 11 14 10 19 -6 31 -17 13 -17 14 -2 15 9 0 18 5 20
12 2 6 12 9 21 5 20 -7 23 -43 5 -50 -7 -3 -4 -6 7 -6 26 -1 96 32 114 52 7
10 21 17 30 17 22 0 61 36 61 55 0 13 3 13 20 3 18 -11 23 -9 44 17 25 31 20
43 -11 27 -12 -7 -22 -6 -30 3 -16 17 -6 25 31 25 16 0 39 9 51 20 25 23 111
70 129 70 8 0 16 6 19 14 3 8 25 18 49 21 24 4 55 15 68 26 14 10 39 19 55 19
l30 0 -33 -20z m-4942 0 c0 -5 -4 -10 -10 -10 -5 0 -10 5 -10 10 0 6 5 10 10
10 6 0 10 -4 10 -10z m250 -20 c0 -5 -5 -10 -11 -10 -5 0 -7 5 -4 10 3 6 8 10
11 10 2 0 4 -4 4 -10z m-28 -24 c4 -6 1 -12 -8 -14 -16 -4 -44 15 -44 30 0 12
43 -1 52 -16z m-84 -9 c7 -5 12 -15 11 -21 -5 -38 1 -48 24 -42 19 4 26 0 35
-18 16 -37 0 -50 -31 -25 -15 11 -43 25 -62 30 -29 8 -34 14 -33 34 1 14 6 25
10 25 4 0 8 5 8 11 0 6 -9 9 -20 6 -10 -3 -25 2 -31 9 -10 13 -6 14 32 8 24
-4 50 -11 57 -17z m202 -3 c0 -12 -2 -12 -14 -2 -8 7 -12 16 -9 21 7 11 23 -2
23 -19z m-375 -84 l20 -23 -20 11 c-11 6 -33 25 -50 43 l-30 32 30 -20 c17
-12 39 -31 50 -43z m295 40 c0 -5 -4 -10 -10 -10 -5 0 -10 5 -10 10 0 6 5 10
10 10 6 0 10 -4 10 -10z m4250 -26 c0 -16 -5 -24 -12 -21 -7 2 -21 0 -30 -5
-10 -5 -18 -6 -18 -2 0 6 51 54 58 54 1 0 2 -12 2 -26z m-4210 -4 c0 -5 11
-10 24 -10 15 0 34 -11 48 -28 13 -16 44 -39 70 -51 25 -12 52 -29 58 -37 7
-7 16 -14 21 -14 5 0 20 -10 34 -22 31 -27 94 -49 118 -42 13 4 16 0 15 -17
-2 -16 3 -24 16 -27 54 -11 152 -101 127 -116 -16 -10 -49 6 -59 29 -11 23
-102 62 -120 51 -5 -3 -22 10 -39 28 -31 35 -100 76 -129 76 -9 0 -33 18 -51
40 -25 29 -47 43 -79 51 -37 10 -48 18 -61 48 -9 20 -19 39 -21 44 -2 4 3 7
12 7 9 0 16 -4 16 -10z m208 -17 c4 -26 -22 -32 -32 -8 -3 8 -18 15 -33 16
l-28 1 25 8 c41 14 65 7 68 -17z m3812 17 c0 -5 -4 -10 -10 -10 -5 0 -10 5
-10 10 0 6 5 10 10 10 6 0 10 -4 10 -10z m-4240 -30 c0 -5 7 -10 15 -10 8 0
15 -7 15 -15 0 -20 -3 -19 -30 10 -13 14 -18 25 -12 25 7 0 12 -4 12 -10z
m3986 -17 c18 -24 17 -50 -2 -57 -33 -13 -41 -7 -39 32 1 20 3 38 4 40 4 8 26
-1 37 -15z m-3809 -18 c3 -9 3 -19 -1 -22 -8 -9 -37 18 -30 28 8 14 24 11 31
-6z m-317 -15 c0 -5 -5 -10 -11 -10 -5 0 -7 5 -4 10 3 6 8 10 11 10 2 0 4 -4
4 -10z m177 -16 c44 -17 62 -46 49 -80 -5 -13 -9 -14 -21 -4 -8 7 -15 18 -15
24 0 12 -45 36 -67 36 -7 0 -13 9 -13 20 0 24 12 25 67 4z m3877 -39 c3 -8 1
-15 -3 -15 -5 0 -11 7 -15 15 -3 8 -1 15 3 15 5 0 11 -7 15 -15z m-114 -5 c0
-5 -4 -10 -10 -10 -5 0 -10 5 -10 10 0 6 5 10 10 10 6 0 10 -4 10 -10z m-3874
-14 c10 -8 16 -18 12 -22 -10 -9 -58 12 -58 26 0 14 23 12 46 -4z m247 -56
c52 -33 62 -46 20 -25 -16 8 -40 18 -55 24 -16 6 -28 15 -28 21 0 16 13 12 63
-20z m174 4 c-9 -9 -28 6 -21 18 4 6 10 6 17 -1 6 -6 8 -13 4 -17z m3743 14
c0 -14 -15 -16 -27 -3 -10 11 -9 13 7 12 11 -1 20 -5 20 -9z m-230 -8 c0 -5
-4 -10 -10 -10 -5 0 -10 5 -10 10 0 6 5 10 10 10 6 0 10 -4 10 -10z m-3539
-30 c24 0 29 -4 29 -23 0 -28 -34 -62 -50 -52 -7 4 -10 15 -7 25 3 11 -5 28
-20 42 -22 20 -22 23 -6 29 11 4 19 1 21 -7 2 -8 16 -14 33 -14z m484 -29
c-10 -16 -25 -3 -25 22 0 20 1 20 16 5 9 -9 13 -21 9 -27z m-770 19 c3 -5 1
-10 -4 -10 -6 0 -11 5 -11 10 0 6 2 10 4 10 3 0 8 -4 11 -10z m92 -42 c27 -22
11 -27 -27 -8 -46 23 -55 45 -13 29 15 -6 33 -15 40 -21z m1183 -18 c0 -5 -2
-10 -4 -10 -3 0 -8 5 -11 10 -3 6 -1 10 4 10 6 0 11 -4 11 -10z m-385 -10 c3
-5 2 -10 -4 -10 -5 0 -13 5 -16 10 -3 6 -2 10 4 10 5 0 13 -4 16 -10z m506 -2
c40 -11 50 -35 30 -66 -10 -17 -62 -5 -55 13 3 7 -5 15 -20 19 -17 4 -26 13
-26 26 0 23 16 25 71 8z m-901 -2 c0 -3 -4 -8 -10 -11 -5 -3 -10 -1 -10 4 0 6
5 11 10 11 6 0 10 -2 10 -4z m260 -16 c0 -5 -2 -10 -4 -10 -3 0 -8 5 -11 10
-3 6 -1 10 4 10 6 0 11 -4 11 -10z m475 1 c-3 -5 0 -13 6 -16 11 -8 -22 -45
-40 -45 -22 0 -22 23 0 46 22 23 46 34 34 15z m500 -2 c4 -6 5 -12 2 -15 -7
-7 -37 7 -37 17 0 13 27 11 35 -2z m-825 -19 c0 -5 -4 -10 -10 -10 -5 0 -10 5
-10 10 0 6 5 10 10 10 6 0 10 -4 10 -10z m58 -9 c3 -8 -1 -12 -9 -9 -7 2 -15
10 -17 17 -3 8 1 12 9 9 7 -2 15 -10 17 -17z m-553 -1 c3 -5 -1 -10 -10 -10
-9 0 -13 5 -10 10 3 6 8 10 10 10 2 0 7 -4 10 -10z m203 -29 c4 -29 -15 -25
-36 8 -15 22 -15 23 9 19 16 -2 25 -10 27 -27z m-125 -6 c1 -5 -13 -11 -30
-13 -31 -3 -42 6 -26 22 10 10 53 3 56 -9z m132 -45 c10 -16 -21 -12 -35 5 -7
9 -19 14 -26 11 -12 -4 -44 23 -44 37 0 10 97 -40 105 -53z m200 50 c3 -5 2
-10 -4 -10 -5 0 -13 5 -16 10 -3 6 -2 10 4 10 5 0 13 -4 16 -10z m531 -9 c24
-19 24 -19 4 -26 -12 -4 -19 -13 -16 -20 3 -8 -5 -15 -22 -18 -31 -6 -43 0
-23 12 10 7 7 13 -13 26 -23 15 -30 16 -52 5 -17 -10 -27 -11 -35 -3 -18 18
25 35 69 27 38 -7 49 -5 45 9 -5 13 19 7 43 -12z m-551 -21 c3 -6 -1 -7 -9 -4
-18 7 -21 14 -7 14 6 0 13 -4 16 -10z m-95 -15 c10 -12 10 -15 -3 -15 -8 0
-20 7 -27 15 -10 12 -10 15 3 15 8 0 20 -7 27 -15z m520 -16 c8 0 2 -5 -14 -9
-31 -10 -46 -6 -46 12 0 6 10 8 23 4 12 -3 29 -6 37 -7z m260 -49 c-10 -7 -16
-5 -18 4 -2 8 -14 13 -30 12 -38 -2 -43 18 -7 25 37 7 81 -25 55 -41z m-782
21 c3 -8 -1 -12 -9 -9 -7 2 -15 10 -17 17 -3 8 1 12 9 9 7 -2 15 -10 17 -17z
m2652 -16 c-7 -9 -15 -13 -17 -11 -7 7 7 26 19 26 6 0 6 -6 -2 -15z m-2310
-47 c0 -13 -23 -5 -28 10 -2 7 2 10 12 6 9 -3 16 -11 16 -16z m1097 6 c-3 -3
-12 -4 -19 -1 -8 3 -5 6 6 6 11 1 17 -2 13 -5z m-737 -64 c0 -5 -5 -10 -11
-10 -5 0 -7 5 -4 10 3 6 8 10 11 10 2 0 4 -4 4 -10z m1345 -30 c13 -21 -3 -38
-29 -33 -21 4 -24 8 -15 24 11 21 34 25 44 9z m73 -38 c2 -7 -3 -12 -12 -12
-9 0 -16 7 -16 16 0 17 22 14 28 -4z m-628 -41 c0 -5 -7 -15 -16 -22 -9 -7
-20 -23 -25 -36 -7 -19 -16 -23 -48 -23 -21 0 -44 6 -50 14 -15 17 -4 46 15
39 8 -3 14 1 14 10 0 9 8 18 18 20 31 8 92 7 92 -2z m-552 -13 c-3 -7 -11 -13
-18 -13 -7 0 -15 6 -17 13 -3 7 4 12 17 12 13 0 20 -5 18 -12z m976 4 c2 -4 1
-14 -3 -20 -10 -16 -41 -5 -41 14 0 15 35 20 44 6z m-989 -42 c-3 -5 -10 -10
-16 -10 -5 0 -9 5 -9 10 0 6 7 10 16 10 8 0 12 -4 9 -10z m540 -70 c3 -5 1
-10 -4 -10 -6 0 -11 5 -11 10 0 6 2 10 4 10 3 0 8 -4 11 -10z m80 0 c3 -5 1
-10 -4 -10 -6 0 -11 5 -11 10 0 6 2 10 4 10 3 0 8 -4 11 -10z m42 4 c-3 -3
-12 -4 -19 -1 -8 3 -5 6 6 6 11 1 17 -2 13 -5z"/>
</g>
</svg>
