<svg xmlns="http://www.w3.org/2000/svg" fill="none" viewBox="0 0 24 24">
  <path fill="#fff" d="M20.32 1.6H3.68A2.09 2.09 0 0 0 1.6 3.68v16.64a2.09 2.09 0 0 0 2.08 2.08h16.64a2.09 2.09 0 0 0 2.08-2.08V3.68a2.09 2.09 0 0 0-2.08-2.08ZM7.71 14.14a1.83 1.83 0 0 0 2.42-.91h1.44a3.2 3.2 0 1 1 0-1.52h-1.44a1.83 1.83 0 1 0-2.42 2.43Zm9.83.73a3.19 3.19 0 0 1-3.86.22v.32h-1.3V6.25h1.3v3.57c.46-.32 1-.5 1.55-.55h.24a3.18 3.18 0 0 1 2.07 5.6Zm-.2-2.4a1.82 1.82 0 1 1-3.64.08 1.82 1.82 0 0 1 3.65-.08Z" opacity=".5"/>
</svg>
