<svg xmlns="http://www.w3.org/2000/svg" fill="none" viewBox="0 0 51 8">
  <g clip-path="url(#a)">
    <mask id="b" width="51" height="8" x="0" y="0" maskUnits="userSpaceOnUse" style="mask-type:luminance">
      <path fill="#fff" d="M50.16.2H.63V7h49.53V.2Z"/>
    </mask>
    <g fill="#fff" mask="url(#b)">
      <path d="M12.85 3.56c.57 0 1.03-.45 1.04-1.01v-.63C13.9.89 13.23.2 12.28.2h-4.7V7h4.71c.8 0 1.6-.61 1.6-1.66V4.6c0-.58-.46-1.05-1.04-1.05ZM11.4 5.07c0 .08-.06.15-.15.15h-1.17v-.74h1.16c.1 0 .16.07.16.16v.43Zm0-2.59c0 .1-.07.16-.16.16h-1.16v-.66h1.16c.1 0 .17.08.17.17v.33Z"/>
      <path d="M7.04 2.31v-.45c0-.32-.1-.64-.25-.92V.93A1.6 1.6 0 0 0 5.52.2H2.31C1.44.2.72.92.72 1.8v1.35c0 .74.6 1.33 1.34 1.33h2.32c.09 0 .16.08.16.18v.4c0 .08-.08.16-.17.16H3.22V4.9H.72v.5c0 .3.1.6.26.87.27.44.75.72 1.27.74h3.19c.88 0 1.6-.71 1.6-1.6V3.97c0-.73-.6-1.33-1.34-1.33H3.4a.17.17 0 0 1-.18-.17v-.32c0-.1.08-.17.18-.17h1.15v.33h2.49Z"/>
      <path d="M36.53.2h-2.5V7h2.5V.2Z"/>
      <path d="M33.56.2h-5.7V2h1.6v5h2.5V2h1.6V.2Z"/>
      <path d="M41.76.2h-3.1c-.88 0-1.6.72-1.6 1.6v3.6c0 .89.72 1.6 1.6 1.6h3.1c.88 0 1.6-.71 1.6-1.6V1.8c0-.88-.71-1.6-1.6-1.6Zm-.9 4.86c0 .09-.06.16-.15.16h-.99a.16.16 0 0 1-.16-.16V2.15c0-.1.08-.16.16-.16h1c.08 0 .15.07.15.16v2.91Z"/>
      <path d="M47.72.2v2.45L45.98.67c-.25-.3-.62-.47-1.01-.47H43.9V7h2.42V4.54l1.74 1.99c.25.3.62.47 1.01.47h1.06V.2h-2.42Z"/>
      <path d="M18.26.2v2.45L16.5.67C16.26.37 15.9.2 15.5.2h-1.06V7h2.42V4.54l1.74 1.99c.25.3.62.47 1 .47h1.07V.2h-2.41Z"/>
      <path d="M27 1.08A1.33 1.33 0 0 0 25.75.2h-3.46V2h.52l-1.74 5h2.5l.35-1.03h2.3L26.58 7h2.47L27 1.08Zm-1.93 1.57.53 1.53h-1.06l.53-1.53Z"/>
    </g>
  </g>
  <defs>
    <clipPath id="a">
      <path fill="#fff" d="M.53.2H50.2V7H.53z"/>
    </clipPath>
  </defs>
</svg>
