<svg xmlns="http://www.w3.org/2000/svg" fill="none" viewBox="0 0 24 24">
  <path fill="#fff" d="M19.32 5.56a6.23 6.23 0 0 1-1.58-1.22 5.36 5.36 0 0 1-1.28-2.65c-.1-.57-.05-.94-.04-.94h-3.87v15.54l-.01.07v.04a3.28 3.28 0 0 1-3.25 3.03 3.27 3.27 0 0 1-3.26-3.28 3.27 3.27 0 0 1 4.26-3.12V9.09a7.18 7.18 0 0 0-7.18 3.66 7.07 7.07 0 0 0-.44 5.81v.01c.1.26.46 1.16 1.05 1.91.48.61 1.04 1.14 1.67 1.58h.01c1.87 1.27 3.95 1.2 3.95 1.2.36-.02 1.56 0 2.92-.66 1.52-.71 2.38-1.78 2.38-1.78.55-.64 1-1.37 1.3-2.16.35-.92.46-2.02.46-2.46V8.27l.68.44s.9.58 2.3.96c1 .26 2.36.32 2.36.32V6.15c-.47.05-1.44-.1-2.43-.59Z" opacity=".5"/>
</svg>
